<svg width="362" height="98" viewBox="0 0 362 98" fill="none" xmlns="http://www.w3.org/2000/svg">
<path d="M55.296 93.568L45.952 65.92H20.608L10.752 93.568H20.352V96H0.768V93.568H6.784L39.424 5.632H49.92L82.176 93.568H88.064V96H46.208V93.568H55.296ZM33.792 29.568L21.76 63.104H44.928L33.792 29.568ZM136.875 61.568C136.875 52.7787 136.448 46.8907 135.595 43.904C134.742 40.832 133.078 39.296 130.603 39.296C128.128 39.296 125.91 40.832 123.947 43.904C121.984 46.976 121.003 51.2 121.003 56.576V80.384C121.003 84.0533 121.728 87.168 123.179 89.728C124.715 92.288 126.848 93.568 129.579 93.568C132.395 93.568 134.315 91.6907 135.339 87.936C136.363 84.1813 136.875 77.6107 136.875 68.224V61.568ZM121.003 -7.62939e-06V44.8C124.246 37.4613 129.792 33.792 137.643 33.792C153.6 33.792 161.579 44.416 161.579 65.664C161.579 76.5013 159.36 84.48 154.923 89.6C150.571 94.72 144 97.28 135.211 97.28C130.774 97.28 127.36 96.5973 124.971 95.232C122.667 93.8667 121.088 91.6053 120.235 88.448L119.339 96H90.155V93.696H97.195V2.30399H90.155V-7.62939e-06H121.003ZM206.749 70.784V59.904C206.749 51.6267 206.28 45.6107 205.341 41.856C204.488 38.016 202.44 36.096 199.197 36.096C197.32 36.096 195.784 36.6507 194.589 37.76C193.48 38.784 192.669 40.5333 192.157 43.008C191.389 46.848 191.005 52.6933 191.005 60.544V70.528C191.005 79.8293 191.261 85.4187 191.773 87.296C192.37 89.1733 192.968 90.7093 193.565 91.904C194.504 93.952 196.338 94.976 199.069 94.976C202.397 94.976 204.573 93.056 205.597 89.216C206.365 86.4853 206.749 80.3413 206.749 70.784ZM198.813 97.28C188.146 97.28 180.082 94.5493 174.621 89.088C169.16 83.6267 166.429 75.8187 166.429 65.664C166.429 55.424 169.33 47.5733 175.133 42.112C181.021 36.5653 189.256 33.792 199.837 33.792C210.418 33.792 218.312 36.352 223.517 41.472C228.722 46.5067 231.325 54.2293 231.325 64.64C231.325 86.4 220.488 97.28 198.813 97.28ZM309.785 96H280.601L279.193 86.656C277.828 90.0693 275.78 92.7147 273.049 94.592C270.404 96.384 266.436 97.28 261.145 97.28C247.918 97.28 241.305 90.1547 241.305 75.904V37.376H234.137V35.072H265.113V78.976C265.113 84.096 265.454 87.4667 266.137 89.088C266.905 90.7093 268.356 91.52 270.489 91.52C272.708 91.52 274.67 90.1973 276.377 87.552C278.084 84.9067 278.937 81.2373 278.937 76.544V37.376H273.049V35.072H302.745V93.696H309.785V96ZM318.805 77.696V37.376H311.765V35.072H318.805V18.56L342.613 12.672V35.072H359.253V37.376H342.613V80.512C342.613 84.5227 342.997 87.4667 343.765 89.344C344.618 91.2213 346.325 92.16 348.885 92.16C351.445 92.16 353.664 90.88 355.541 88.32C357.504 85.76 358.784 82.2613 359.381 77.824L361.557 78.08C360.874 83.968 358.997 88.6613 355.925 92.16C352.853 95.5733 347.776 97.28 340.693 97.28C333.61 97.28 328.192 95.872 324.437 93.056C320.682 90.24 318.805 85.12 318.805 77.696Z" fill="url(#paint0_linear_51_37)"/>
<defs>
<linearGradient id="paint0_linear_51_37" x1="18.5" y1="46" x2="482" y2="96" gradientUnits="userSpaceOnUse">
<stop/>
<stop offset="1" stop-color="#4A4949"/>
</linearGradient>
</defs>
</svg>
