<svg width="90" height="36" viewBox="0 0 90 36" fill="none" xmlns="http://www.w3.org/2000/svg">
<path d="M71.8267 0.564697H18.4434C8.77296 0.564697 0.933594 8.40412 0.933594 18.0745C0.933594 27.7449 8.77296 35.5844 18.4434 35.5844H71.8267C81.4971 35.5844 89.3366 27.7449 89.3366 18.0745C89.3366 8.40412 81.4971 0.564697 71.8267 0.564697Z" fill="url(#paint0_linear_12_6)"/>
<path d="M19.1701 19.9343L18.6286 18.0511C18.4089 17.235 18.1813 16.3954 17.9459 15.5323C17.7105 14.6691 17.483 13.8138 17.2633 12.9663H17.1691C16.9494 13.8295 16.7219 14.6926 16.4865 15.5558C16.2667 16.4033 16.0391 17.235 15.8037 18.0511L15.2624 19.9343H19.1701ZM19.7821 22.0765H14.6503L13.4497 26.2432H10.6719L15.6625 10.8476H18.8641L23.8547 26.2432H20.9591L19.7821 22.0765ZM26.2558 9.62354H28.9865V13.908L28.8924 15.9324C29.3945 15.4616 29.9596 15.0928 30.5873 14.826C31.2151 14.5435 31.8428 14.4023 32.4705 14.4023C33.2239 14.4023 33.8909 14.5435 34.4715 14.826C35.0522 15.0928 35.5465 15.4852 35.9546 16.003C36.3626 16.5052 36.6687 17.1173 36.8727 17.8392C37.0924 18.5611 37.2022 19.3693 37.2022 20.2639C37.2022 21.2526 37.061 22.1393 36.7785 22.924C36.496 23.693 36.1114 24.3443 35.6249 24.8779C35.1541 25.4115 34.6049 25.8195 33.9771 26.102C33.3651 26.3845 32.7296 26.5257 32.0704 26.5257C31.5211 26.5257 30.9483 26.3923 30.3519 26.1255C29.7556 25.8587 29.2062 25.4742 28.704 24.972H28.6333L28.3979 26.2432H26.2556L26.2558 9.62354ZM28.9865 23.23C29.4102 23.6224 29.8497 23.897 30.3048 24.0539C30.76 24.2109 31.168 24.2894 31.5289 24.2894C32.345 24.2894 33.0277 23.9598 33.577 23.3006C34.1263 22.6258 34.4009 21.6292 34.4009 20.311C34.4009 19.1496 34.189 18.2473 33.7653 17.6038C33.3416 16.9604 32.6588 16.6386 31.7172 16.6386C31.2778 16.6386 30.8306 16.7485 30.3754 16.9682C29.9204 17.188 29.4574 17.541 28.9865 18.0276V23.23ZM39.6975 20.4758C39.6975 19.5185 39.8544 18.6631 40.1683 17.9098C40.4979 17.1565 40.9295 16.5209 41.4631 16.003C41.9966 15.4852 42.6166 15.0928 43.3228 14.826C44.029 14.5435 44.7587 14.4023 45.512 14.4023C46.2653 14.4023 46.9951 14.5435 47.7013 14.826C48.4075 15.0928 49.0275 15.4852 49.5611 16.003C50.0947 16.5209 50.5184 17.1565 50.8323 17.9098C51.1618 18.6631 51.3266 19.5185 51.3266 20.4758C51.3266 21.4331 51.1618 22.2884 50.8323 23.0417C50.5184 23.795 50.0947 24.4306 49.5611 24.9485C49.0275 25.4664 48.4075 25.8587 47.7013 26.1255C46.9951 26.3923 46.2653 26.5257 45.512 26.5257C44.7587 26.5257 44.029 26.3923 43.3228 26.1255C42.6166 25.8587 41.9966 25.4664 41.4631 24.9485C40.9295 24.4306 40.4979 23.795 40.1683 23.0417C39.8544 22.2884 39.6975 21.4331 39.6975 20.4758ZM42.4988 20.4758C42.4988 21.6371 42.7657 22.5709 43.2993 23.2771C43.8329 23.9676 44.5704 24.3129 45.512 24.3129C46.4536 24.3129 47.1913 23.9676 47.7249 23.2771C48.2584 22.5709 48.5252 21.6371 48.5252 20.4758C48.5252 19.2987 48.2584 18.3649 47.7249 17.6744C47.1913 16.9682 46.4536 16.6151 45.512 16.6151C44.5704 16.6151 43.8329 16.9682 43.2993 17.6744C42.7657 18.3649 42.4988 19.2987 42.4988 20.4758ZM64.6976 26.2432H62.4848L62.2729 24.4071H62.1787C61.6295 25.0505 61.0253 25.5684 60.3662 25.9607C59.707 26.3374 58.9458 26.5257 58.0826 26.5257C56.733 26.5257 55.7522 26.1255 55.1401 25.3251C54.5281 24.509 54.2221 23.3477 54.2221 21.8411V14.6848H56.9293V21.488C56.9293 22.4296 57.0861 23.1202 57.4 23.5596C57.7296 23.9833 58.2946 24.1952 59.095 24.1952C59.6442 24.1952 60.1307 24.0696 60.5545 23.8185C60.9939 23.5674 61.4725 23.1202 61.9904 22.4767V14.6848H64.6976V26.2432ZM71.1713 16.827H68.0875V14.8025L71.289 14.6848L71.642 11.5303H73.8785V14.6848H79.128V16.827H73.8785V21.5822C73.8785 22.5395 74.0746 23.2457 74.4669 23.7008C74.8592 24.1403 75.5498 24.36 76.5386 24.36C77.0408 24.36 77.4958 24.3207 77.9038 24.2423C78.3276 24.1481 78.7279 24.0304 79.1045 23.8891L79.5988 25.8666C79.0966 26.0392 78.5237 26.1883 77.8803 26.3139C77.2526 26.4551 76.5857 26.5257 75.8795 26.5257C75.0006 26.5257 74.2629 26.408 73.6666 26.1726C73.0702 25.9372 72.5837 25.6076 72.207 25.1839C71.8461 24.7444 71.5793 24.2187 71.4067 23.6067C71.2498 22.9946 71.1713 22.3198 71.1713 21.5822V16.827Z" fill="#161616"/>
<defs>
<linearGradient id="paint0_linear_12_6" x1="0.933665" y1="18.0745" x2="89.3367" y2="18.0745" gradientUnits="userSpaceOnUse">
<stop stop-color="#F4B011"/>
<stop offset="1" stop-color="#F6E54B" stop-opacity="0.920705"/>
</linearGradient>
</defs>
</svg>
