<svg width="78" height="19" viewBox="0 0 78 19" fill="none" xmlns="http://www.w3.org/2000/svg">
<path d="M9.54431 11.5801L8.93622 9.46502C8.68946 8.54848 8.43391 7.6055 8.16953 6.63609C7.90515 5.66668 7.64957 4.70607 7.4028 3.75428H7.29703C7.05027 4.7237 6.79472 5.69312 6.53033 6.66253C6.28357 7.61432 6.028 8.54848 5.76361 9.46502L5.15552 11.5801H9.54431ZM10.2317 13.986H4.46811L3.11975 18.6657H0L5.60498 1.37481H9.20062L14.8056 18.6657H11.5536L10.2317 13.986ZM17.5023 0H20.5692V4.81183L20.4635 7.08555C21.0275 6.55678 21.662 6.14257 22.3671 5.84293C23.0721 5.52567 23.7771 5.36704 24.4821 5.36704C25.3282 5.36704 26.0773 5.52567 26.7294 5.84293C27.3816 6.14257 27.9368 6.58321 28.3951 7.16486C28.8533 7.72889 29.197 8.41629 29.4261 9.22707C29.6729 10.0379 29.7963 10.9456 29.7963 11.9503C29.7963 13.0607 29.6377 14.0565 29.3204 14.9378C29.0031 15.8015 28.5713 16.5329 28.0249 17.1322C27.4961 17.7315 26.8793 18.1898 26.1742 18.507C25.4868 18.8243 24.773 18.9829 24.0327 18.9829C23.4158 18.9829 22.7724 18.8331 22.1027 18.5335C21.4329 18.2338 20.816 17.802 20.252 17.238H20.1727L19.9083 18.6657H17.5023V0ZM20.5692 15.2815C21.0451 15.7222 21.5387 16.0306 22.0498 16.2069C22.561 16.3831 23.0192 16.4712 23.4246 16.4712C24.3411 16.4712 25.1079 16.1011 25.7248 15.3608C26.3417 14.6029 26.6501 13.4837 26.6501 12.0031C26.6501 10.6988 26.4121 9.68534 25.9362 8.96269C25.4604 8.24004 24.6936 7.87871 23.6361 7.87871C23.1426 7.87871 22.6403 8.00209 22.1291 8.24885C21.618 8.49561 21.098 8.89219 20.5692 9.43858V15.2815ZM32.5988 12.1882C32.5988 11.113 32.7751 10.1524 33.1276 9.30639C33.4977 8.46036 33.9824 7.74651 34.5817 7.16486C35.181 6.58321 35.8772 6.14257 36.6703 5.84293C37.4635 5.52567 38.2831 5.36704 39.1292 5.36704C39.9752 5.36704 40.7948 5.52567 41.5879 5.84293C42.3811 6.14257 43.0773 6.58321 43.6766 7.16486C44.2758 7.74651 44.7517 8.46036 45.1042 9.30639C45.4744 10.1524 45.6595 11.113 45.6595 12.1882C45.6595 13.2634 45.4744 14.224 45.1042 15.07C44.7517 15.916 44.2758 16.6299 43.6766 17.2115C43.0773 17.7932 42.3811 18.2338 41.5879 18.5335C40.7948 18.8331 39.9752 18.9829 39.1292 18.9829C38.2831 18.9829 37.4635 18.8331 36.6703 18.5335C35.8772 18.2338 35.181 17.7932 34.5817 17.2115C33.9824 16.6299 33.4977 15.916 33.1276 15.07C32.7751 14.224 32.5988 13.2634 32.5988 12.1882ZM35.745 12.1882C35.745 13.4925 36.0446 14.5412 36.6439 15.3344C37.2432 16.1099 38.0716 16.4977 39.1292 16.4977C40.1867 16.4977 41.0151 16.1099 41.6143 15.3344C42.2136 14.5412 42.5133 13.4925 42.5133 12.1882C42.5133 10.8663 42.2136 9.81753 41.6143 9.042C41.0151 8.24885 40.1867 7.85227 39.1292 7.85227C38.0716 7.85227 37.2432 8.24885 36.6439 9.042C36.0446 9.81753 35.745 10.8663 35.745 12.1882ZM60.6766 18.6657H58.1914L57.9534 16.6034H57.8477C57.2308 17.3261 56.5522 17.9077 55.8119 18.3484C55.0716 18.7714 54.2168 18.9829 53.2474 18.9829C51.7316 18.9829 50.6299 18.5335 49.9425 17.6345C49.2551 16.718 48.9114 15.4137 48.9114 13.7216V5.6843H51.9519V13.3251C51.9519 14.3826 52.1281 15.1581 52.4807 15.6517C52.8508 16.1275 53.4853 16.3655 54.3842 16.3655C55.0011 16.3655 55.5475 16.2245 56.0234 15.9425C56.5169 15.6605 57.0545 15.1581 57.6362 14.4355V5.6843H60.6766V18.6657ZM67.9472 8.09021H64.4838V5.81649L68.0794 5.6843L68.476 2.14153H70.9877V5.6843H76.8835V8.09021H70.9877V13.4308C70.9877 14.506 71.208 15.2991 71.6487 15.8103C72.0893 16.3038 72.8648 16.5506 73.9752 16.5506C74.5392 16.5506 75.0504 16.5065 75.5087 16.4184C75.9846 16.3126 76.434 16.1804 76.857 16.0218L77.4123 18.2426C76.8482 18.4365 76.2049 18.604 75.4822 18.745C74.7772 18.9036 74.0281 18.9829 73.235 18.9829C72.2479 18.9829 71.4195 18.8507 70.7497 18.5863C70.0799 18.322 69.5336 17.9518 69.1105 17.4759C68.7051 16.9824 68.4055 16.3919 68.2116 15.7045C68.0353 15.0171 67.9472 14.2592 67.9472 13.4308V8.09021Z" fill="#161616"/>
</svg>
