<svg width="100" height="40" viewBox="0 0 100 40" fill="none" xmlns="http://www.w3.org/2000/svg">
<path d="M80.1339 0H19.7922C8.86126 0 0 8.86126 0 19.7922C0 30.7231 8.86126 39.5844 19.7922 39.5844H80.1339C91.0648 39.5844 99.926 30.7231 99.926 19.7922C99.926 8.86126 91.0648 0 80.1339 0Z" fill="url(#paint0_linear_602_47)"/>
<path d="M20.6133 21.8943L20.0013 19.7656C19.7529 18.8431 19.4958 17.8941 19.2297 16.9184C18.9636 15.9427 18.7063 14.9759 18.4579 14.018H18.3516C18.1032 14.9937 17.846 15.9693 17.5799 16.945C17.3315 17.9029 17.0743 18.8431 16.8082 19.7656L16.1962 21.8943H20.6133ZM21.3052 24.3157H15.5044L14.1473 29.0255H11.0074L16.6486 11.6232H20.2674L25.9085 29.0255H22.6356L21.3052 24.3157ZM28.6226 10.2395H31.7093V15.0824L31.6029 17.3708C32.1705 16.8386 32.8091 16.4217 33.5187 16.1201C34.2283 15.8008 34.9379 15.6411 35.6474 15.6411C36.4989 15.6411 37.2528 15.8008 37.9092 16.1201C38.5655 16.4217 39.1243 16.8652 39.5856 17.4506C40.0468 18.0182 40.3927 18.71 40.6233 19.5261C40.8716 20.3421 40.9958 21.2556 40.9958 22.2668C40.9958 23.3844 40.8362 24.3867 40.5169 25.2736C40.1976 26.1428 39.7629 26.879 39.213 27.4822C38.6808 28.0853 38.06 28.5465 37.3504 28.8658C36.6586 29.1851 35.9401 29.3448 35.1951 29.3448C34.5742 29.3448 33.9267 29.194 33.2526 28.8924C32.5785 28.5909 31.9576 28.1563 31.39 27.5886H31.31L31.0439 29.0255H28.6224L28.6226 10.2395ZM31.7093 25.6195C32.1882 26.063 32.6849 26.3734 33.1994 26.5508C33.7139 26.7282 34.1751 26.8169 34.5831 26.8169C35.5055 26.8169 36.2771 26.4444 36.8981 25.6993C37.5189 24.9366 37.8294 23.8101 37.8294 22.32C37.8294 21.0073 37.5899 19.9873 37.1109 19.26C36.632 18.5327 35.8603 18.169 34.7959 18.169C34.2992 18.169 33.7936 18.2932 33.2792 18.5415C32.7648 18.7899 32.2415 19.189 31.7093 19.739V25.6195ZM43.8164 22.5063C43.8164 21.4242 43.9938 20.4574 44.3486 19.6059C44.7211 18.7544 45.2089 18.036 45.8121 17.4506C46.4152 16.8652 47.1159 16.4217 47.9142 16.1201C48.7125 15.8008 49.5373 15.6411 50.3888 15.6411C51.2403 15.6411 52.0652 15.8008 52.8635 16.1201C53.6617 16.4217 54.3625 16.8652 54.9656 17.4506C55.5688 18.036 56.0477 18.7544 56.4025 19.6059C56.775 20.4574 56.9611 21.4242 56.9611 22.5063C56.9611 23.5884 56.775 24.5552 56.4025 25.4066C56.0477 26.2581 55.5688 26.9766 54.9656 27.562C54.3625 28.1474 53.6617 28.5909 52.8635 28.8924C52.0652 29.194 51.2403 29.3448 50.3888 29.3448C49.5373 29.3448 48.7125 29.194 47.9142 28.8924C47.1159 28.5909 46.4152 28.1474 45.8121 27.562C45.2089 26.9766 44.7211 26.2581 44.3486 25.4066C43.9938 24.5552 43.8164 23.5884 43.8164 22.5063ZM46.9828 22.5063C46.9828 23.819 47.2844 24.8745 47.8876 25.6727C48.4907 26.4533 49.3245 26.8435 50.3888 26.8435C51.4532 26.8435 52.2869 26.4533 52.8901 25.6727C53.4932 24.8745 53.7947 23.819 53.7947 22.5063C53.7947 21.1758 53.4932 20.1203 52.8901 19.3398C52.2869 18.5415 51.4532 18.1424 50.3888 18.1424C49.3245 18.1424 48.4907 18.5415 47.8876 19.3398C47.2844 20.1203 46.9828 21.1758 46.9828 22.5063ZM72.0751 29.0255H69.5739L69.3344 26.95H69.228C68.6071 27.6773 67.9241 28.2627 67.179 28.7062C66.4339 29.1319 65.5736 29.3448 64.598 29.3448C63.0724 29.3448 61.9638 28.8924 61.2719 27.9877C60.5801 27.0653 60.2342 25.7526 60.2342 24.0496V15.9604H63.2941V23.6505C63.2941 24.7148 63.4716 25.4954 63.8264 25.9921C64.1989 26.471 64.8375 26.7105 65.7421 26.7105C66.363 26.7105 66.913 26.5686 67.392 26.2848C67.8887 26.0009 68.4297 25.4953 69.0151 24.768V15.9604H72.0751V29.0255ZM79.3926 18.3819H75.9069V16.0935L79.5257 15.9604L79.9247 12.3949H82.4527V15.9604H88.3865V18.3819H82.4527V23.7569C82.4527 24.839 82.6744 25.6373 83.1179 26.1517C83.5613 26.6484 84.3419 26.8968 85.4595 26.8968C86.0272 26.8968 86.5415 26.8524 87.0027 26.7637C87.4817 26.6573 87.9342 26.5242 88.3599 26.3646L88.9186 28.5997C88.351 28.7949 87.7035 28.9634 86.9761 29.1053C86.2666 29.265 85.5127 29.3448 84.7144 29.3448C83.7209 29.3448 82.8873 29.2117 82.2132 28.9456C81.5391 28.6796 80.9892 28.307 80.5634 27.8281C80.1554 27.3314 79.8538 26.7371 79.6586 26.0453C79.4813 25.3535 79.3926 24.5906 79.3926 23.7569V18.3819Z" fill="#F9F9F9"/>
<defs>
<linearGradient id="paint0_linear_602_47" x1="0" y1="19.7922" x2="99.9259" y2="19.7922" gradientUnits="userSpaceOnUse">
<stop stop-color="#F4B011"/>
<stop offset="1" stop-color="#F6E54B" stop-opacity="0.920705"/>
</linearGradient>
</defs>
</svg>
