<svg width="751" height="270" viewBox="0 0 751 270" fill="none" xmlns="http://www.w3.org/2000/svg">
<path d="M76.688 46.4H143.248L144.528 71.744H142.224C138.64 63.1253 134.885 57.2373 130.96 54.08C127.035 50.8373 121.275 49.216 113.68 49.216H109.2V88.768H113.552C117.563 88.768 120.933 87.2747 123.664 84.288C126.395 81.216 128.315 77.12 129.424 72H131.344V109.888H129.168C127.632 103.488 125.541 98.9227 122.896 96.192C120.336 93.4613 116.795 92.096 112.272 92.096H109.2V133.184H114.064C121.915 133.184 128.571 130.837 134.032 126.144C139.579 121.451 143.376 115.435 145.424 108.096H147.984L146.96 136H76.688V133.184H84.24V49.216H76.688V46.4ZM197.907 78.656C194.75 78.656 191.976 80.704 189.587 84.8C187.198 88.896 186.003 93.76 186.003 99.392V133.696H195.091V136H155.155V133.696H162.195V77.376H155.155V75.072H186.003V87.36C187.112 83.008 189.246 79.68 192.403 77.376C195.56 74.9867 199.144 73.792 203.155 73.792C207.166 73.792 210.408 74.944 212.883 77.248C215.443 79.4667 216.723 82.6667 216.723 86.848C216.723 90.944 215.784 94.1013 213.907 96.32C212.03 98.5387 209.128 99.648 205.203 99.648C201.363 99.648 198.504 98.368 196.627 95.808C194.835 93.248 194.622 89.7067 195.987 85.184H200.595C202.728 80.832 201.832 78.656 197.907 78.656ZM261.282 78.656C258.125 78.656 255.351 80.704 252.962 84.8C250.573 88.896 249.378 93.76 249.378 99.392V133.696H258.466V136H218.53V133.696H225.57V77.376H218.53V75.072H249.378V87.36C250.487 83.008 252.621 79.68 255.778 77.376C258.935 74.9867 262.519 73.792 266.53 73.792C270.541 73.792 273.783 74.944 276.258 77.248C278.818 79.4667 280.098 82.6667 280.098 86.848C280.098 90.944 279.159 94.1013 277.282 96.32C275.405 98.5387 272.503 99.648 268.578 99.648C264.738 99.648 261.879 98.368 260.002 95.808C258.21 93.248 257.997 89.7067 259.362 85.184H263.97C266.103 80.832 265.207 78.656 261.282 78.656ZM322.624 110.784V99.904C322.624 91.6267 322.155 85.6107 321.216 81.856C320.363 78.016 318.315 76.096 315.072 76.096C313.195 76.096 311.659 76.6507 310.464 77.76C309.355 78.784 308.544 80.5333 308.032 83.008C307.264 86.848 306.88 92.6933 306.88 100.544V110.528C306.88 119.829 307.136 125.419 307.648 127.296C308.245 129.173 308.843 130.709 309.44 131.904C310.379 133.952 312.213 134.976 314.944 134.976C318.272 134.976 320.448 133.056 321.472 129.216C322.24 126.485 322.624 120.341 322.624 110.784ZM314.688 137.28C304.021 137.28 295.957 134.549 290.496 129.088C285.035 123.627 282.304 115.819 282.304 105.664C282.304 95.424 285.205 87.5733 291.008 82.112C296.896 76.5653 305.131 73.792 315.712 73.792C326.293 73.792 334.187 76.352 339.392 81.472C344.597 86.5067 347.2 94.2293 347.2 104.64C347.2 126.4 336.363 137.28 314.688 137.28ZM393.532 78.656C390.375 78.656 387.601 80.704 385.212 84.8C382.823 88.896 381.628 93.76 381.628 99.392V133.696H390.716V136H350.78V133.696H357.82V77.376H350.78V75.072H381.628V87.36C382.737 83.008 384.871 79.68 388.028 77.376C391.185 74.9867 394.769 73.792 398.78 73.792C402.791 73.792 406.033 74.944 408.508 77.248C411.068 79.4667 412.348 82.6667 412.348 86.848C412.348 90.944 411.409 94.1013 409.532 96.32C407.655 98.5387 404.753 99.648 400.828 99.648C396.988 99.648 394.129 98.368 392.252 95.808C390.46 93.248 390.247 89.7067 391.612 85.184H396.22C398.353 80.832 397.457 78.656 393.532 78.656ZM475.299 106.048C475.299 97.9413 474.574 92.2667 473.123 89.024C471.758 85.7813 468.6 84.16 463.651 84.16C458.702 84.16 453.283 85.9947 447.395 89.664L445.219 88.64V47.808L447.267 46.272C452.472 47.04 460.366 47.9787 470.947 49.088C481.528 50.112 487.63 50.624 489.251 50.624C490.958 50.624 492.152 50.24 492.835 49.472C493.603 48.6187 494.243 47.2107 494.755 45.248L496.675 45.504C495.395 58.56 493.731 66.3253 491.683 68.8C490.574 70.08 489.166 70.72 487.459 70.72C485.752 70.72 482.168 69.9947 476.707 68.544L448.803 61.248L448.163 86.08C454.392 82.752 460.835 81.088 467.491 81.088C474.147 81.088 479.694 81.856 484.131 83.392C488.568 84.8427 491.982 86.8907 494.371 89.536C498.894 94.5707 501.155 100.672 501.155 107.84C501.155 116.971 497.87 124.181 491.299 129.472C484.814 134.677 475.854 137.28 464.419 137.28C458.275 137.28 452.6 136 447.395 133.44C444.579 131.989 442.275 129.941 440.483 127.296C438.776 124.565 437.923 121.451 437.923 117.952C437.923 114.368 438.904 111.424 440.867 109.12C442.915 106.816 445.688 105.664 449.187 105.664C452.771 105.664 455.544 106.56 457.507 108.352C459.555 110.059 460.579 112.32 460.579 115.136C460.579 117.867 460.195 120.213 459.427 122.176H455.203C454.691 123.541 454.435 125.163 454.435 127.04C454.435 128.832 455.16 130.581 456.611 132.288C458.062 133.909 460.195 134.72 463.011 134.72C465.827 134.72 467.96 134.293 469.411 133.44C470.862 132.501 471.971 131.392 472.739 130.112C473.507 128.832 474.104 126.827 474.531 124.096C475.043 120.171 475.299 114.155 475.299 106.048ZM546.728 137.28C534.355 137.28 524.925 133.099 518.44 124.736C512.04 116.373 508.84 104.683 508.84 89.664C508.84 74.6453 512.296 63.4667 519.208 56.128C526.12 48.704 535.549 44.992 547.496 44.992C559.528 44.992 568.957 48.6613 575.784 56C582.696 63.3387 586.152 75.0293 586.152 91.072C586.152 107.115 582.696 118.848 575.784 126.272C568.872 133.611 559.187 137.28 546.728 137.28ZM535.08 86.336V97.728C535.08 106.005 535.123 111.851 535.208 115.264C535.379 118.677 535.848 122.219 536.616 125.888C537.384 129.557 538.621 131.947 540.328 133.056C542.035 134.08 544.04 134.592 546.344 134.592C548.648 134.592 550.355 134.464 551.464 134.208C552.659 133.952 553.683 133.44 554.536 132.672C555.475 131.819 556.243 131.008 556.84 130.24C557.437 129.387 557.907 128.107 558.248 126.4C558.675 124.693 559.016 123.115 559.272 121.664C559.528 120.213 559.699 118.08 559.784 115.264C559.955 109.803 560.04 104.299 560.04 98.752V87.488C560.04 70.7627 559.4 59.968 558.12 55.104C556.925 50.1547 553.427 47.68 547.624 47.68C541.821 47.68 538.28 50.1973 537 55.232C535.72 60.2667 535.08 70.6347 535.08 86.336ZM631.728 137.28C619.355 137.28 609.925 133.099 603.44 124.736C597.04 116.373 593.84 104.683 593.84 89.664C593.84 74.6453 597.296 63.4667 604.208 56.128C611.12 48.704 620.549 44.992 632.496 44.992C644.528 44.992 653.957 48.6613 660.784 56C667.696 63.3387 671.152 75.0293 671.152 91.072C671.152 107.115 667.696 118.848 660.784 126.272C653.872 133.611 644.187 137.28 631.728 137.28ZM620.08 86.336V97.728C620.08 106.005 620.123 111.851 620.208 115.264C620.379 118.677 620.848 122.219 621.616 125.888C622.384 129.557 623.621 131.947 625.328 133.056C627.035 134.08 629.04 134.592 631.344 134.592C633.648 134.592 635.355 134.464 636.464 134.208C637.659 133.952 638.683 133.44 639.536 132.672C640.475 131.819 641.243 131.008 641.84 130.24C642.437 129.387 642.907 128.107 643.248 126.4C643.675 124.693 644.016 123.115 644.272 121.664C644.528 120.213 644.699 118.08 644.784 115.264C644.955 109.803 645.04 104.299 645.04 98.752V87.488C645.04 70.7627 644.4 59.968 643.12 55.104C641.925 50.1547 638.427 47.68 632.624 47.68C626.821 47.68 623.28 50.1973 622 55.232C620.72 60.2667 620.08 70.6347 620.08 86.336Z" fill="url(#paint0_linear_51_43)"/>
<path d="M9.216 231V185.112H12.096V231H9.216ZM10.56 173.4C9.728 173.4 8.992 173.08 8.352 172.44C7.776 171.8 7.488 170.968 7.488 169.944C7.488 168.984 7.776 168.216 8.352 167.64C8.992 167 9.728 166.68 10.56 166.68C11.456 166.68 12.192 167 12.768 167.64C13.344 168.216 13.632 168.984 13.632 169.944C13.632 170.968 13.344 171.8 12.768 172.44C12.192 173.08 11.456 173.4 10.56 173.4ZM30.4973 231V185.112H32.9933L33.3773 192.408H33.5693C36.0013 189.976 38.4653 187.96 40.9613 186.36C43.5213 184.76 46.3693 183.96 49.5052 183.96C54.2413 183.96 57.7293 185.4 59.9693 188.28C62.2093 191.096 63.3293 195.48 63.3293 201.432V231H60.4493V201.816C60.4493 196.696 59.5853 192.888 57.8573 190.392C56.1293 187.896 53.2813 186.648 49.3133 186.648C46.4333 186.648 43.8093 187.416 41.4413 188.952C39.0733 190.488 36.3853 192.792 33.3773 195.864V231H30.4973ZM92.7405 231.768C88.5165 231.768 85.6685 230.552 84.1965 228.12C82.7245 225.624 81.9885 222.424 81.9885 218.52V187.8H74.6925V185.496L81.9885 185.112L82.3725 169.752H84.8685V185.112H98.5005V187.8H84.8685V218.904C84.8685 221.848 85.3805 224.28 86.4045 226.2C87.4285 228.12 89.6045 229.08 92.9325 229.08C93.8285 229.08 94.7565 228.984 95.7165 228.792C96.6765 228.536 97.7325 228.12 98.8845 227.544L100.036 229.656C98.8205 230.296 97.5725 230.808 96.2925 231.192C95.0125 231.576 93.8285 231.768 92.7405 231.768ZM125.956 232.152C122.116 232.152 118.596 231.192 115.396 229.272C112.26 227.352 109.732 224.6 107.812 221.016C105.956 217.432 105.028 213.144 105.028 208.152C105.028 203.16 105.956 198.872 107.812 195.288C109.732 191.64 112.196 188.856 115.204 186.936C118.212 184.952 121.412 183.96 124.804 183.96C128.324 183.96 131.364 184.792 133.924 186.456C136.548 188.056 138.564 190.424 139.972 193.56C141.38 196.696 142.084 200.536 142.084 205.08C142.084 205.528 142.084 206.008 142.084 206.52C142.084 207.032 142.02 207.576 141.892 208.152H106.564V205.464H139.204C139.204 199.128 137.892 194.424 135.268 191.352C132.644 188.216 129.156 186.648 124.804 186.648C122.116 186.648 119.492 187.448 116.932 189.048C114.372 190.584 112.26 192.952 110.596 196.152C108.932 199.288 108.1 203.224 108.1 207.96C108.1 212.312 108.868 216.12 110.404 219.384C112.004 222.584 114.18 225.08 116.932 226.872C119.684 228.6 122.756 229.464 126.148 229.464C128.772 229.464 131.14 229.112 133.252 228.408C135.364 227.704 137.22 226.776 138.82 225.624L140.164 227.736C138.436 228.888 136.484 229.912 134.308 230.808C132.196 231.704 129.412 232.152 125.956 232.152ZM154.904 231V185.112H157.4L157.784 193.752H157.976C159.448 190.936 161.272 188.6 163.448 186.744C165.624 184.888 168.152 183.96 171.031 183.96C171.8 183.96 172.536 184.024 173.24 184.152C173.944 184.28 174.68 184.536 175.448 184.92L174.488 187.416C173.912 187.224 173.336 187.096 172.76 187.032C172.248 186.904 171.544 186.84 170.648 186.84C168.536 186.84 166.328 187.768 164.024 189.624C161.72 191.416 159.64 194.584 157.784 199.128V231H154.904ZM184.247 231V185.112H186.743L187.127 192.408H187.319C189.751 189.976 192.215 187.96 194.711 186.36C197.271 184.76 200.119 183.96 203.255 183.96C207.991 183.96 211.479 185.4 213.719 188.28C215.959 191.096 217.079 195.48 217.079 201.432V231H214.199V201.816C214.199 196.696 213.335 192.888 211.607 190.392C209.879 187.896 207.031 186.648 203.063 186.648C200.183 186.648 197.559 187.416 195.191 188.952C192.823 190.488 190.135 192.792 187.127 195.864V231H184.247ZM244.571 232.152C242.203 232.152 239.995 231.736 237.947 230.904C235.963 230.008 234.363 228.664 233.147 226.872C231.931 225.016 231.323 222.648 231.323 219.768C231.323 214.648 233.755 210.776 238.619 208.152C243.483 205.464 251.099 203.544 261.467 202.392C261.531 199.896 261.275 197.432 260.699 195C260.187 192.568 259.099 190.584 257.435 189.048C255.771 187.448 253.339 186.648 250.139 186.648C246.875 186.648 243.931 187.288 241.307 188.568C238.683 189.784 236.635 190.936 235.163 192.024L233.627 189.912C234.587 189.144 235.899 188.312 237.562 187.416C239.227 186.456 241.147 185.656 243.323 185.016C245.499 184.312 247.835 183.96 250.331 183.96C253.915 183.96 256.731 184.76 258.779 186.36C260.827 187.96 262.267 190.072 263.099 192.696C263.931 195.32 264.347 198.168 264.347 201.24V231H261.851L261.467 224.856H261.275C258.907 226.776 256.283 228.472 253.403 229.944C250.587 231.416 247.643 232.152 244.571 232.152ZM244.763 229.464C247.579 229.464 250.299 228.792 252.923 227.448C255.547 226.104 258.395 224.152 261.467 221.592V204.888C254.747 205.656 249.403 206.712 245.435 208.056C241.531 209.336 238.715 210.936 236.987 212.856C235.259 214.776 234.395 217.048 234.395 219.672C234.395 223.192 235.419 225.72 237.467 227.256C239.579 228.728 242.011 229.464 244.763 229.464ZM286.074 231.768C285.114 231.768 284.282 231.544 283.578 231.096C282.874 230.712 282.33 230.072 281.946 229.176C281.626 228.28 281.466 227.096 281.466 225.624V161.688H284.346V226.2C284.346 227.224 284.538 227.96 284.922 228.408C285.306 228.856 285.818 229.08 286.458 229.08C286.65 229.08 286.842 229.08 287.034 229.08C287.29 229.016 287.61 228.952 287.994 228.888L288.57 231.192C288.186 231.384 287.802 231.512 287.418 231.576C287.034 231.704 286.586 231.768 286.074 231.768ZM333.562 232.152C329.914 232.152 326.682 231.576 323.866 230.424C321.114 229.272 318.778 227.736 316.858 225.816L318.586 223.896C320.506 225.496 322.586 226.84 324.826 227.928C327.13 228.952 330.106 229.464 333.754 229.464C337.594 229.464 340.506 228.472 342.49 226.488C344.474 224.504 345.466 222.232 345.466 219.672C345.466 217.624 344.858 215.928 343.642 214.584C342.49 213.24 341.018 212.12 339.226 211.224C337.498 210.328 335.738 209.56 333.946 208.92C331.578 208.088 329.274 207.16 327.034 206.136C324.794 205.112 322.938 203.8 321.466 202.2C320.058 200.6 319.354 198.488 319.354 195.864C319.354 192.664 320.57 189.88 323.002 187.512C325.498 185.144 329.082 183.96 333.754 183.96C336.25 183.96 338.586 184.408 340.762 185.304C342.938 186.136 344.826 187.224 346.426 188.568L344.698 190.488C343.162 189.4 341.53 188.504 339.802 187.8C338.074 187.032 335.994 186.648 333.562 186.648C329.722 186.648 326.906 187.608 325.114 189.528C323.322 191.384 322.426 193.432 322.426 195.672C322.426 197.528 322.938 199.064 323.962 200.28C324.986 201.432 326.298 202.424 327.898 203.256C329.562 204.024 331.322 204.76 333.178 205.464C335.61 206.424 338.01 207.416 340.378 208.44C342.746 209.4 344.698 210.744 346.234 212.472C347.77 214.136 348.538 216.472 348.538 219.48C348.538 221.72 347.962 223.8 346.81 225.72C345.658 227.64 343.962 229.208 341.722 230.424C339.482 231.576 336.762 232.152 333.562 232.152ZM378.143 232.152C374.303 232.152 370.783 231.192 367.583 229.272C364.447 227.352 361.919 224.6 359.999 221.016C358.143 217.432 357.215 213.144 357.215 208.152C357.215 203.16 358.143 198.872 359.999 195.288C361.919 191.64 364.383 188.856 367.391 186.936C370.399 184.952 373.599 183.96 376.991 183.96C380.511 183.96 383.551 184.792 386.111 186.456C388.735 188.056 390.751 190.424 392.159 193.56C393.567 196.696 394.271 200.536 394.271 205.08C394.271 205.528 394.271 206.008 394.271 206.52C394.271 207.032 394.207 207.576 394.079 208.152H358.751V205.464H391.391C391.391 199.128 390.079 194.424 387.455 191.352C384.831 188.216 381.343 186.648 376.991 186.648C374.303 186.648 371.679 187.448 369.119 189.048C366.559 190.584 364.447 192.952 362.783 196.152C361.119 199.288 360.287 203.224 360.287 207.96C360.287 212.312 361.055 216.12 362.591 219.384C364.191 222.584 366.367 225.08 369.119 226.872C371.871 228.6 374.943 229.464 378.335 229.464C380.959 229.464 383.327 229.112 385.439 228.408C387.551 227.704 389.407 226.776 391.007 225.624L392.351 227.736C390.623 228.888 388.671 229.912 386.495 230.808C384.383 231.704 381.599 232.152 378.143 232.152ZM407.091 231V185.112H409.587L409.971 193.752H410.163C411.635 190.936 413.459 188.6 415.635 186.744C417.811 184.888 420.339 183.96 423.219 183.96C423.987 183.96 424.723 184.024 425.427 184.152C426.131 184.28 426.867 184.536 427.635 184.92L426.675 187.416C426.099 187.224 425.523 187.096 424.947 187.032C424.435 186.904 423.731 186.84 422.835 186.84C420.723 186.84 418.515 187.768 416.211 189.624C413.907 191.416 411.827 194.584 409.971 199.128V231H407.091ZM449.687 231L432.215 185.112H435.479L446.423 214.872C447.191 217.048 447.991 219.256 448.823 221.496C449.655 223.736 450.455 225.88 451.223 227.928H451.607C452.375 225.88 453.175 223.736 454.007 221.496C454.839 219.256 455.639 217.048 456.406 214.872L467.351 185.112H470.423L453.143 231H449.687ZM497.675 232.152C493.835 232.152 490.315 231.192 487.115 229.272C483.979 227.352 481.451 224.6 479.531 221.016C477.675 217.432 476.747 213.144 476.747 208.152C476.747 203.16 477.675 198.872 479.531 195.288C481.451 191.64 483.915 188.856 486.923 186.936C489.931 184.952 493.131 183.96 496.523 183.96C500.043 183.96 503.083 184.792 505.643 186.456C508.267 188.056 510.283 190.424 511.691 193.56C513.099 196.696 513.803 200.536 513.803 205.08C513.803 205.528 513.803 206.008 513.803 206.52C513.803 207.032 513.739 207.576 513.611 208.152H478.283V205.464H510.923C510.923 199.128 509.611 194.424 506.987 191.352C504.363 188.216 500.875 186.648 496.523 186.648C493.835 186.648 491.211 187.448 488.651 189.048C486.091 190.584 483.979 192.952 482.315 196.152C480.651 199.288 479.819 203.224 479.819 207.96C479.819 212.312 480.587 216.12 482.123 219.384C483.723 222.584 485.899 225.08 488.651 226.872C491.403 228.6 494.475 229.464 497.867 229.464C500.491 229.464 502.859 229.112 504.971 228.408C507.083 227.704 508.939 226.776 510.539 225.624L511.883 227.736C510.155 228.888 508.203 229.912 506.027 230.808C503.915 231.704 501.131 232.152 497.675 232.152ZM526.622 231V185.112H529.118L529.502 193.752H529.694C531.166 190.936 532.99 188.6 535.166 186.744C537.342 184.888 539.87 183.96 542.75 183.96C543.518 183.96 544.254 184.024 544.958 184.152C545.662 184.28 546.398 184.536 547.166 184.92L546.206 187.416C545.63 187.224 545.054 187.096 544.478 187.032C543.966 186.904 543.262 186.84 542.366 186.84C540.254 186.84 538.046 187.768 535.742 189.624C533.438 191.416 531.358 194.584 529.502 199.128V231H526.622ZM592.081 232.152C588.241 232.152 584.721 231.192 581.521 229.272C578.385 227.352 575.857 224.6 573.937 221.016C572.081 217.432 571.153 213.144 571.153 208.152C571.153 203.16 572.081 198.872 573.937 195.288C575.857 191.64 578.321 188.856 581.329 186.936C584.337 184.952 587.537 183.96 590.929 183.96C594.449 183.96 597.489 184.792 600.049 186.456C602.673 188.056 604.689 190.424 606.097 193.56C607.505 196.696 608.209 200.536 608.209 205.08C608.209 205.528 608.209 206.008 608.209 206.52C608.209 207.032 608.145 207.576 608.017 208.152H572.689V205.464H605.329C605.329 199.128 604.017 194.424 601.393 191.352C598.769 188.216 595.281 186.648 590.929 186.648C588.241 186.648 585.617 187.448 583.057 189.048C580.497 190.584 578.385 192.952 576.721 196.152C575.057 199.288 574.225 203.224 574.225 207.96C574.225 212.312 574.993 216.12 576.529 219.384C578.129 222.584 580.305 225.08 583.057 226.872C585.809 228.6 588.881 229.464 592.273 229.464C594.897 229.464 597.265 229.112 599.377 228.408C601.489 227.704 603.345 226.776 604.945 225.624L606.289 227.736C604.561 228.888 602.609 229.912 600.433 230.808C598.321 231.704 595.537 232.152 592.081 232.152ZM621.029 231V185.112H623.525L623.909 193.752H624.101C625.573 190.936 627.397 188.6 629.573 186.744C631.749 184.888 634.277 183.96 637.156 183.96C637.925 183.96 638.661 184.024 639.365 184.152C640.069 184.28 640.805 184.536 641.573 184.92L640.613 187.416C640.037 187.224 639.461 187.096 638.885 187.032C638.373 186.904 637.669 186.84 636.773 186.84C634.661 186.84 632.453 187.768 630.149 189.624C627.845 191.416 625.765 194.584 623.909 199.128V231H621.029ZM650.372 231V185.112H652.868L653.252 193.752H653.444C654.916 190.936 656.74 188.6 658.916 186.744C661.092 184.888 663.62 183.96 666.5 183.96C667.268 183.96 668.004 184.024 668.708 184.152C669.412 184.28 670.148 184.536 670.916 184.92L669.956 187.416C669.38 187.224 668.804 187.096 668.228 187.032C667.716 186.904 667.012 186.84 666.116 186.84C664.004 186.84 661.796 187.768 659.492 189.624C657.188 191.416 655.108 194.584 653.252 199.128V231H650.372ZM695.099 232.152C691.451 232.152 688.059 231.224 684.923 229.368C681.851 227.448 679.387 224.696 677.531 221.112C675.675 217.528 674.747 213.208 674.747 208.152C674.747 203.032 675.675 198.68 677.531 195.096C679.387 191.448 681.851 188.696 684.923 186.84C688.059 184.92 691.451 183.96 695.099 183.96C698.747 183.96 702.107 184.92 705.179 186.84C708.251 188.696 710.715 191.448 712.571 195.096C714.491 198.68 715.451 203.032 715.451 208.152C715.451 213.208 714.491 217.528 712.571 221.112C710.715 224.696 708.251 227.448 705.179 229.368C702.107 231.224 698.747 232.152 695.099 232.152ZM695.099 229.464C698.363 229.464 701.307 228.568 703.931 226.776C706.555 224.984 708.603 222.488 710.075 219.288C711.611 216.088 712.379 212.376 712.379 208.152C712.379 203.928 711.611 200.216 710.075 197.016C708.603 193.752 706.555 191.224 703.931 189.432C701.307 187.576 698.363 186.648 695.099 186.648C691.835 186.648 688.891 187.576 686.267 189.432C683.707 191.224 681.659 193.752 680.123 197.016C678.587 200.216 677.819 203.928 677.819 208.152C677.819 212.376 678.587 216.088 680.123 219.288C681.659 222.488 683.707 224.984 686.267 226.776C688.891 228.568 691.835 229.464 695.099 229.464ZM729.872 231V185.112H732.368L732.752 193.752H732.944C734.416 190.936 736.24 188.6 738.416 186.744C740.592 184.888 743.12 183.96 746 183.96C746.768 183.96 747.504 184.024 748.208 184.152C748.912 184.28 749.648 184.536 750.416 184.92L749.456 187.416C748.88 187.224 748.304 187.096 747.728 187.032C747.216 186.904 746.512 186.84 745.616 186.84C743.504 186.84 741.296 187.768 738.992 189.624C736.688 191.416 734.608 194.584 732.752 199.128V231H729.872Z" fill="url(#paint1_linear_51_43)"/>
<defs>
<linearGradient id="paint0_linear_51_43" x1="104.714" y1="86" x2="858.988" y2="221.087" gradientUnits="userSpaceOnUse">
<stop/>
<stop offset="1" stop-color="#4A4949"/>
</linearGradient>
<linearGradient id="paint1_linear_51_43" x1="38.3287" y1="201.104" x2="938.123" y2="455.05" gradientUnits="userSpaceOnUse">
<stop/>
<stop offset="1" stop-color="#202020"/>
</linearGradient>
</defs>
</svg>
