<svg width="777" height="260" viewBox="0 0 777 260" fill="none" xmlns="http://www.w3.org/2000/svg">
<path d="M93.688 46.4H160.248L161.528 71.744H159.224C155.64 63.1253 151.885 57.2373 147.96 54.08C144.035 50.8373 138.275 49.216 130.68 49.216H126.2V88.768H130.552C134.563 88.768 137.933 87.2747 140.664 84.288C143.395 81.216 145.315 77.12 146.424 72H148.344V109.888H146.168C144.632 103.488 142.541 98.9227 139.896 96.192C137.336 93.4613 133.795 92.096 129.272 92.096H126.2V133.184H131.064C138.915 133.184 145.571 130.837 151.032 126.144C156.579 121.451 160.376 115.435 162.424 108.096H164.984L163.96 136H93.688V133.184H101.24V49.216H93.688V46.4ZM214.907 78.656C211.75 78.656 208.976 80.704 206.587 84.8C204.198 88.896 203.003 93.76 203.003 99.392V133.696H212.091V136H172.155V133.696H179.195V77.376H172.155V75.072H203.003V87.36C204.112 83.008 206.246 79.68 209.403 77.376C212.56 74.9867 216.144 73.792 220.155 73.792C224.166 73.792 227.408 74.944 229.883 77.248C232.443 79.4667 233.723 82.6667 233.723 86.848C233.723 90.944 232.784 94.1013 230.907 96.32C229.03 98.5387 226.128 99.648 222.203 99.648C218.363 99.648 215.504 98.368 213.627 95.808C211.835 93.248 211.622 89.7067 212.987 85.184H217.595C219.728 80.832 218.832 78.656 214.907 78.656ZM278.282 78.656C275.125 78.656 272.351 80.704 269.962 84.8C267.573 88.896 266.378 93.76 266.378 99.392V133.696H275.466V136H235.53V133.696H242.57V77.376H235.53V75.072H266.378V87.36C267.487 83.008 269.621 79.68 272.778 77.376C275.935 74.9867 279.519 73.792 283.53 73.792C287.541 73.792 290.783 74.944 293.258 77.248C295.818 79.4667 297.098 82.6667 297.098 86.848C297.098 90.944 296.159 94.1013 294.282 96.32C292.405 98.5387 289.503 99.648 285.578 99.648C281.738 99.648 278.879 98.368 277.002 95.808C275.21 93.248 274.997 89.7067 276.362 85.184H280.97C283.103 80.832 282.207 78.656 278.282 78.656ZM339.624 110.784V99.904C339.624 91.6267 339.155 85.6107 338.216 81.856C337.363 78.016 335.315 76.096 332.072 76.096C330.195 76.096 328.659 76.6507 327.464 77.76C326.355 78.784 325.544 80.5333 325.032 83.008C324.264 86.848 323.88 92.6933 323.88 100.544V110.528C323.88 119.829 324.136 125.419 324.648 127.296C325.245 129.173 325.843 130.709 326.44 131.904C327.379 133.952 329.213 134.976 331.944 134.976C335.272 134.976 337.448 133.056 338.472 129.216C339.24 126.485 339.624 120.341 339.624 110.784ZM331.688 137.28C321.021 137.28 312.957 134.549 307.496 129.088C302.035 123.627 299.304 115.819 299.304 105.664C299.304 95.424 302.205 87.5733 308.008 82.112C313.896 76.5653 322.131 73.792 332.712 73.792C343.293 73.792 351.187 76.352 356.392 81.472C361.597 86.5067 364.2 94.2293 364.2 104.64C364.2 126.4 353.363 137.28 331.688 137.28ZM410.532 78.656C407.375 78.656 404.601 80.704 402.212 84.8C399.823 88.896 398.628 93.76 398.628 99.392V133.696H407.716V136H367.78V133.696H374.82V77.376H367.78V75.072H398.628V87.36C399.737 83.008 401.871 79.68 405.028 77.376C408.185 74.9867 411.769 73.792 415.78 73.792C419.791 73.792 423.033 74.944 425.508 77.248C428.068 79.4667 429.348 82.6667 429.348 86.848C429.348 90.944 428.409 94.1013 426.532 96.32C424.655 98.5387 421.753 99.648 417.828 99.648C413.988 99.648 411.129 98.368 409.252 95.808C407.46 93.248 407.247 89.7067 408.612 85.184H413.22C415.353 80.832 414.457 78.656 410.532 78.656ZM476.171 136V133.568H488.203V113.088H453.515V110.656L489.611 46.4H511.755V110.016H524.427V98.88H526.859V122.56H524.427V113.088H511.755V133.568H520.587V136H476.171ZM457.611 110.016H488.203V56.128L457.611 110.016ZM571.728 137.28C559.355 137.28 549.925 133.099 543.44 124.736C537.04 116.373 533.84 104.683 533.84 89.664C533.84 74.6453 537.296 63.4667 544.208 56.128C551.12 48.704 560.549 44.992 572.496 44.992C584.528 44.992 593.957 48.6613 600.784 56C607.696 63.3387 611.152 75.0293 611.152 91.072C611.152 107.115 607.696 118.848 600.784 126.272C593.872 133.611 584.187 137.28 571.728 137.28ZM560.08 86.336V97.728C560.08 106.005 560.123 111.851 560.208 115.264C560.379 118.677 560.848 122.219 561.616 125.888C562.384 129.557 563.621 131.947 565.328 133.056C567.035 134.08 569.04 134.592 571.344 134.592C573.648 134.592 575.355 134.464 576.464 134.208C577.659 133.952 578.683 133.44 579.536 132.672C580.475 131.819 581.243 131.008 581.84 130.24C582.437 129.387 582.907 128.107 583.248 126.4C583.675 124.693 584.016 123.115 584.272 121.664C584.528 120.213 584.699 118.08 584.784 115.264C584.955 109.803 585.04 104.299 585.04 98.752V87.488C585.04 70.7627 584.4 59.968 583.12 55.104C581.925 50.1547 578.427 47.68 572.624 47.68C566.821 47.68 563.28 50.1973 562 55.232C560.72 60.2667 560.08 70.6347 560.08 86.336ZM654.424 106.048C654.424 97.9413 653.699 92.2667 652.248 89.024C650.883 85.7813 647.725 84.16 642.776 84.16C637.827 84.16 632.408 85.9947 626.52 89.664L624.344 88.64V47.808L626.392 46.272C631.597 47.04 639.491 47.9787 650.072 49.088C660.653 50.112 666.755 50.624 668.376 50.624C670.083 50.624 671.277 50.24 671.96 49.472C672.728 48.6187 673.368 47.2107 673.88 45.248L675.8 45.504C674.52 58.56 672.856 66.3253 670.808 68.8C669.699 70.08 668.291 70.72 666.584 70.72C664.877 70.72 661.293 69.9947 655.832 68.544L627.928 61.248L627.288 86.08C633.517 82.752 639.96 81.088 646.616 81.088C653.272 81.088 658.819 81.856 663.256 83.392C667.693 84.8427 671.107 86.8907 673.496 89.536C678.019 94.5707 680.28 100.672 680.28 107.84C680.28 116.971 676.995 124.181 670.424 129.472C663.939 134.677 654.979 137.28 643.544 137.28C637.4 137.28 631.725 136 626.52 133.44C623.704 131.989 621.4 129.941 619.608 127.296C617.901 124.565 617.048 121.451 617.048 117.952C617.048 114.368 618.029 111.424 619.992 109.12C622.04 106.816 624.813 105.664 628.312 105.664C631.896 105.664 634.669 106.56 636.632 108.352C638.68 110.059 639.704 112.32 639.704 115.136C639.704 117.867 639.32 120.213 638.552 122.176H634.328C633.816 123.541 633.56 125.163 633.56 127.04C633.56 128.832 634.285 130.581 635.736 132.288C637.187 133.909 639.32 134.72 642.136 134.72C644.952 134.72 647.085 134.293 648.536 133.44C649.987 132.501 651.096 131.392 651.864 130.112C652.632 128.832 653.229 126.827 653.656 124.096C654.168 120.171 654.424 114.155 654.424 106.048Z" fill="url(#paint0_linear_51_41)"/>
<path d="M9.216 221V175.112H11.712L12.096 182.408H12.288C14.4 179.976 16.736 177.96 19.296 176.36C21.856 174.76 24.384 173.96 26.88 173.96C30.656 173.96 33.504 174.856 35.424 176.648C37.408 178.376 38.784 180.68 39.552 183.56C42.24 180.552 44.896 178.216 47.52 176.552C50.144 174.824 52.736 173.96 55.296 173.96C59.84 173.96 63.232 175.4 65.472 178.28C67.776 181.096 68.928 185.48 68.928 191.432V221H66.048V191.816C66.048 186.696 65.152 182.888 63.36 180.392C61.632 177.896 58.88 176.648 55.104 176.648C52.8 176.648 50.464 177.416 48.096 178.952C45.728 180.488 43.2 182.792 40.512 185.864V221H37.632V191.816C37.632 186.696 36.736 182.888 34.944 180.392C33.216 177.896 30.464 176.648 26.688 176.648C22.336 176.648 17.472 179.72 12.096 185.864V221H9.216ZM103.456 222.152C99.6158 222.152 96.0958 221.192 92.8958 219.272C89.7598 217.352 87.2318 214.6 85.3118 211.016C83.4558 207.432 82.5278 203.144 82.5278 198.152C82.5278 193.16 83.4558 188.872 85.3118 185.288C87.2318 181.64 89.6958 178.856 92.7038 176.936C95.7118 174.952 98.9118 173.96 102.304 173.96C105.824 173.96 108.864 174.792 111.424 176.456C114.048 178.056 116.064 180.424 117.472 183.56C118.88 186.696 119.584 190.536 119.584 195.08C119.584 195.528 119.584 196.008 119.584 196.52C119.584 197.032 119.52 197.576 119.392 198.152H84.0638V195.464H116.704C116.704 189.128 115.392 184.424 112.768 181.352C110.144 178.216 106.656 176.648 102.304 176.648C99.6158 176.648 96.9918 177.448 94.4318 179.048C91.8718 180.584 89.7598 182.952 88.0958 186.152C86.4318 189.288 85.5998 193.224 85.5998 197.96C85.5998 202.312 86.3678 206.12 87.9038 209.384C89.5038 212.584 91.6798 215.08 94.4318 216.872C97.1838 218.6 100.256 219.464 103.648 219.464C106.272 219.464 108.64 219.112 110.752 218.408C112.864 217.704 114.72 216.776 116.32 215.624L117.664 217.736C115.936 218.888 113.984 219.912 111.808 220.808C109.696 221.704 106.912 222.152 103.456 222.152ZM143.178 221.768C138.954 221.768 136.106 220.552 134.634 218.12C133.162 215.624 132.426 212.424 132.426 208.52V177.8H125.13V175.496L132.426 175.112L132.81 159.752H135.306V175.112H148.938V177.8H135.306V208.904C135.306 211.848 135.818 214.28 136.842 216.2C137.866 218.12 140.042 219.08 143.37 219.08C144.266 219.08 145.194 218.984 146.154 218.792C147.114 218.536 148.17 218.12 149.322 217.544L150.474 219.656C149.258 220.296 148.01 220.808 146.73 221.192C145.45 221.576 144.266 221.768 143.178 221.768ZM160.435 221V151.688H163.315V172.232V182.6C165.811 180.104 168.339 178.056 170.899 176.456C173.459 174.792 176.307 173.96 179.443 173.96C184.179 173.96 187.667 175.4 189.907 178.28C192.147 181.096 193.267 185.48 193.267 191.432V221H190.387V191.816C190.387 186.696 189.523 182.888 187.795 180.392C186.067 177.896 183.219 176.648 179.251 176.648C176.371 176.648 173.747 177.416 171.379 178.952C169.011 180.488 166.323 182.792 163.315 185.864V221H160.435ZM226.911 222.152C223.263 222.152 219.871 221.224 216.735 219.368C213.663 217.448 211.199 214.696 209.343 211.112C207.487 207.528 206.559 203.208 206.559 198.152C206.559 193.032 207.487 188.68 209.343 185.096C211.199 181.448 213.663 178.696 216.735 176.84C219.871 174.92 223.263 173.96 226.911 173.96C230.559 173.96 233.919 174.92 236.991 176.84C240.063 178.696 242.527 181.448 244.383 185.096C246.303 188.68 247.263 193.032 247.263 198.152C247.263 203.208 246.303 207.528 244.383 211.112C242.527 214.696 240.063 217.448 236.991 219.368C233.919 221.224 230.559 222.152 226.911 222.152ZM226.911 219.464C230.175 219.464 233.119 218.568 235.743 216.776C238.367 214.984 240.415 212.488 241.887 209.288C243.423 206.088 244.191 202.376 244.191 198.152C244.191 193.928 243.423 190.216 241.887 187.016C240.415 183.752 238.367 181.224 235.743 179.432C233.119 177.576 230.175 176.648 226.911 176.648C223.647 176.648 220.703 177.576 218.079 179.432C215.519 181.224 213.471 183.752 211.935 187.016C210.399 190.216 209.631 193.928 209.631 198.152C209.631 202.376 210.399 206.088 211.935 209.288C213.471 212.488 215.519 214.984 218.079 216.776C220.703 218.568 223.647 219.464 226.911 219.464ZM276.661 222.152C270.901 222.152 266.293 220.104 262.837 216.008C259.381 211.848 257.653 205.896 257.653 198.152C257.653 193.224 258.581 188.968 260.437 185.384C262.357 181.736 264.853 178.92 267.925 176.936C271.061 174.952 274.485 173.96 278.197 173.96C281.013 173.96 283.477 174.472 285.589 175.496C287.765 176.456 290.037 177.864 292.405 179.72L292.213 171.08V151.688H295.093V221H292.597L292.213 214.856H292.021C290.101 216.776 287.861 218.472 285.301 219.944C282.741 221.416 279.861 222.152 276.661 222.152ZM276.853 219.464C279.541 219.464 282.133 218.76 284.629 217.352C287.125 215.944 289.653 213.96 292.213 211.4V182.984C289.653 180.68 287.253 179.048 285.013 178.088C282.773 177.128 280.437 176.648 278.005 176.648C274.741 176.648 271.797 177.608 269.173 179.528C266.613 181.448 264.565 184.04 263.029 187.304C261.493 190.568 260.725 194.184 260.725 198.152C260.725 204.488 262.101 209.64 264.853 213.608C267.669 217.512 271.669 219.464 276.853 219.464ZM332.747 221V175.112H335.243L335.627 182.408H335.819C338.251 179.976 340.715 177.96 343.211 176.36C345.771 174.76 348.619 173.96 351.755 173.96C356.491 173.96 359.979 175.4 362.219 178.28C364.459 181.096 365.579 185.48 365.579 191.432V221H362.699V191.816C362.699 186.696 361.835 182.888 360.107 180.392C358.379 177.896 355.531 176.648 351.563 176.648C348.683 176.648 346.059 177.416 343.691 178.952C341.323 180.488 338.635 182.792 335.627 185.864V221H332.747ZM399.599 222.152C395.951 222.152 392.559 221.224 389.423 219.368C386.351 217.448 383.887 214.696 382.031 211.112C380.175 207.528 379.247 203.208 379.247 198.152C379.247 193.032 380.175 188.68 382.031 185.096C383.887 181.448 386.351 178.696 389.423 176.84C392.559 174.92 395.951 173.96 399.599 173.96C403.247 173.96 406.607 174.92 409.679 176.84C412.751 178.696 415.215 181.448 417.071 185.096C418.991 188.68 419.951 193.032 419.951 198.152C419.951 203.208 418.991 207.528 417.071 211.112C415.215 214.696 412.751 217.448 409.679 219.368C406.607 221.224 403.247 222.152 399.599 222.152ZM399.599 219.464C402.863 219.464 405.807 218.568 408.431 216.776C411.055 214.984 413.103 212.488 414.575 209.288C416.111 206.088 416.879 202.376 416.879 198.152C416.879 193.928 416.111 190.216 414.575 187.016C413.103 183.752 411.055 181.224 408.431 179.432C405.807 177.576 402.863 176.648 399.599 176.648C396.335 176.648 393.391 177.576 390.767 179.432C388.207 181.224 386.159 183.752 384.623 187.016C383.087 190.216 382.319 193.928 382.319 198.152C382.319 202.376 383.087 206.088 384.623 209.288C386.159 212.488 388.207 214.984 390.767 216.776C393.391 218.568 396.335 219.464 399.599 219.464ZM445.147 221.768C440.923 221.768 438.075 220.552 436.603 218.12C435.131 215.624 434.395 212.424 434.395 208.52V177.8H427.099V175.496L434.395 175.112L434.779 159.752H437.275V175.112H450.907V177.8H437.275V208.904C437.275 211.848 437.787 214.28 438.811 216.2C439.835 218.12 442.011 219.08 445.339 219.08C446.235 219.08 447.163 218.984 448.123 218.792C449.083 218.536 450.139 218.12 451.291 217.544L452.443 219.656C451.227 220.296 449.979 220.808 448.699 221.192C447.419 221.576 446.235 221.768 445.147 221.768ZM491.414 222.152C489.046 222.152 486.838 221.736 484.79 220.904C482.806 220.008 481.206 218.664 479.99 216.872C478.774 215.016 478.166 212.648 478.166 209.768C478.166 204.648 480.598 200.776 485.462 198.152C490.326 195.464 497.942 193.544 508.31 192.392C508.374 189.896 508.118 187.432 507.542 185C507.03 182.568 505.942 180.584 504.278 179.048C502.614 177.448 500.182 176.648 496.982 176.648C493.718 176.648 490.774 177.288 488.15 178.568C485.526 179.784 483.478 180.936 482.006 182.024L480.47 179.912C481.43 179.144 482.742 178.312 484.406 177.416C486.07 176.456 487.99 175.656 490.166 175.016C492.342 174.312 494.678 173.96 497.174 173.96C500.758 173.96 503.574 174.76 505.622 176.36C507.67 177.96 509.11 180.072 509.942 182.696C510.774 185.32 511.19 188.168 511.19 191.24V221H508.694L508.31 214.856H508.118C505.75 216.776 503.126 218.472 500.246 219.944C497.43 221.416 494.486 222.152 491.414 222.152ZM491.606 219.464C494.422 219.464 497.142 218.792 499.766 217.448C502.39 216.104 505.238 214.152 508.31 211.592V194.888C501.59 195.656 496.246 196.712 492.278 198.056C488.374 199.336 485.558 200.936 483.83 202.856C482.102 204.776 481.238 207.048 481.238 209.672C481.238 213.192 482.262 215.72 484.31 217.256C486.422 218.728 488.854 219.464 491.606 219.464ZM532.918 221.768C531.958 221.768 531.126 221.544 530.422 221.096C529.718 220.712 529.174 220.072 528.79 219.176C528.47 218.28 528.31 217.096 528.31 215.624V151.688H531.19V216.2C531.19 217.224 531.382 217.96 531.766 218.408C532.15 218.856 532.662 219.08 533.302 219.08C533.494 219.08 533.686 219.08 533.878 219.08C534.134 219.016 534.454 218.952 534.838 218.888L535.414 221.192C535.03 221.384 534.646 221.512 534.262 221.576C533.878 221.704 533.43 221.768 532.918 221.768ZM555.043 221.768C554.083 221.768 553.251 221.544 552.547 221.096C551.843 220.712 551.299 220.072 550.915 219.176C550.595 218.28 550.435 217.096 550.435 215.624V151.688H553.315V216.2C553.315 217.224 553.507 217.96 553.891 218.408C554.275 218.856 554.787 219.08 555.427 219.08C555.619 219.08 555.811 219.08 556.003 219.08C556.259 219.016 556.579 218.952 556.963 218.888L557.539 221.192C557.155 221.384 556.771 221.512 556.387 221.576C556.003 221.704 555.555 221.768 555.043 221.768ZM588.88 222.152C585.232 222.152 581.84 221.224 578.704 219.368C575.632 217.448 573.168 214.696 571.312 211.112C569.456 207.528 568.528 203.208 568.528 198.152C568.528 193.032 569.456 188.68 571.312 185.096C573.168 181.448 575.632 178.696 578.704 176.84C581.84 174.92 585.232 173.96 588.88 173.96C592.528 173.96 595.888 174.92 598.96 176.84C602.032 178.696 604.496 181.448 606.352 185.096C608.272 188.68 609.232 193.032 609.232 198.152C609.232 203.208 608.272 207.528 606.352 211.112C604.496 214.696 602.032 217.448 598.96 219.368C595.888 221.224 592.528 222.152 588.88 222.152ZM588.88 219.464C592.144 219.464 595.088 218.568 597.712 216.776C600.336 214.984 602.384 212.488 603.856 209.288C605.392 206.088 606.16 202.376 606.16 198.152C606.16 193.928 605.392 190.216 603.856 187.016C602.384 183.752 600.336 181.224 597.712 179.432C595.088 177.576 592.144 176.648 588.88 176.648C585.616 176.648 582.672 177.576 580.048 179.432C577.488 181.224 575.44 183.752 573.904 187.016C572.368 190.216 571.6 193.928 571.6 198.152C571.6 202.376 572.368 206.088 573.904 209.288C575.44 212.488 577.488 214.984 580.048 216.776C582.672 218.568 585.616 219.464 588.88 219.464ZM630.566 221L616.742 175.112H620.006L628.838 206.024C629.414 208.136 629.99 210.184 630.566 212.168C631.142 214.088 631.654 216.072 632.102 218.12H632.486C633.062 216.072 633.638 214.088 634.214 212.168C634.79 210.184 635.366 208.136 635.942 206.024L644.774 175.112H648.806L657.638 206.024C658.214 208.136 658.79 210.184 659.366 212.168C659.942 214.088 660.518 216.072 661.094 218.12H661.478C662.054 216.072 662.63 214.088 663.206 212.168C663.782 210.184 664.358 208.136 664.934 206.024L673.574 175.112H676.646L663.206 221H659.174L650.534 191.048C649.894 188.808 649.286 186.632 648.71 184.52C648.198 182.344 647.59 180.168 646.886 177.992H646.502C645.926 180.168 645.318 182.376 644.678 184.616C644.102 186.792 643.43 189 642.661 191.24L634.214 221H630.566ZM705.05 222.152C701.21 222.152 697.69 221.192 694.49 219.272C691.354 217.352 688.826 214.6 686.906 211.016C685.05 207.432 684.122 203.144 684.122 198.152C684.122 193.16 685.05 188.872 686.906 185.288C688.826 181.64 691.29 178.856 694.298 176.936C697.306 174.952 700.506 173.96 703.898 173.96C707.418 173.96 710.458 174.792 713.018 176.456C715.642 178.056 717.658 180.424 719.066 183.56C720.474 186.696 721.178 190.536 721.178 195.08C721.178 195.528 721.178 196.008 721.178 196.52C721.178 197.032 721.114 197.576 720.986 198.152H685.658V195.464H718.298C718.298 189.128 716.986 184.424 714.362 181.352C711.738 178.216 708.25 176.648 703.898 176.648C701.21 176.648 698.586 177.448 696.026 179.048C693.466 180.584 691.354 182.952 689.69 186.152C688.026 189.288 687.194 193.224 687.194 197.96C687.194 202.312 687.962 206.12 689.498 209.384C691.098 212.584 693.274 215.08 696.026 216.872C698.778 218.6 701.85 219.464 705.242 219.464C707.866 219.464 710.234 219.112 712.346 218.408C714.458 217.704 716.314 216.776 717.914 215.624L719.258 217.736C717.53 218.888 715.578 219.912 713.402 220.808C711.29 221.704 708.506 222.152 705.05 222.152ZM748.973 222.152C743.213 222.152 738.605 220.104 735.149 216.008C731.693 211.848 729.965 205.896 729.965 198.152C729.965 193.224 730.893 188.968 732.749 185.384C734.669 181.736 737.165 178.92 740.237 176.936C743.373 174.952 746.797 173.96 750.509 173.96C753.325 173.96 755.789 174.472 757.901 175.496C760.077 176.456 762.349 177.864 764.717 179.72L764.525 171.08V151.688H767.405V221H764.909L764.525 214.856H764.333C762.413 216.776 760.173 218.472 757.613 219.944C755.053 221.416 752.173 222.152 748.973 222.152ZM749.165 219.464C751.853 219.464 754.445 218.76 756.941 217.352C759.437 215.944 761.965 213.96 764.525 211.4V182.984C761.965 180.68 759.565 179.048 757.325 178.088C755.085 177.128 752.749 176.648 750.317 176.648C747.053 176.648 744.109 177.608 741.485 179.528C738.925 181.448 736.877 184.04 735.341 187.304C733.805 190.568 733.037 194.184 733.037 198.152C733.037 204.488 734.413 209.64 737.165 213.608C739.981 217.512 743.981 219.464 749.165 219.464Z" fill="url(#paint1_linear_51_41)"/>
<defs>
<linearGradient id="paint0_linear_51_41" x1="121.356" y1="86" x2="867.382" y2="218.054" gradientUnits="userSpaceOnUse">
<stop/>
<stop offset="1" stop-color="#4A4949"/>
</linearGradient>
<linearGradient id="paint1_linear_51_41" x1="39.7086" y1="191.104" x2="966.882" y2="462.198" gradientUnits="userSpaceOnUse">
<stop/>
<stop offset="1" stop-color="#202020"/>
</linearGradient>
</defs>
</svg>
