<svg width="602" height="273" viewBox="0 0 602 273" fill="none" xmlns="http://www.w3.org/2000/svg">
<path d="M2.688 46.4H69.248L70.528 71.744H68.224C64.64 63.1253 60.8853 57.2373 56.96 54.08C53.0347 50.8373 47.2747 49.216 39.68 49.216H35.2V88.768H39.552C43.5627 88.768 46.9333 87.2747 49.664 84.288C52.3947 81.216 54.3147 77.12 55.424 72H57.344V109.888H55.168C53.632 103.488 51.5413 98.9227 48.896 96.192C46.336 93.4613 42.7947 92.096 38.272 92.096H35.2V133.184H40.064C47.9147 133.184 54.5707 130.837 60.032 126.144C65.5787 121.451 69.376 115.435 71.424 108.096H73.984L72.96 136H2.688V133.184H10.24V49.216H2.688V46.4ZM123.907 78.656C120.75 78.656 117.976 80.704 115.587 84.8C113.198 88.896 112.003 93.76 112.003 99.392V133.696H121.091V136H81.155V133.696H88.195V77.376H81.155V75.072H112.003V87.36C113.112 83.008 115.246 79.68 118.403 77.376C121.56 74.9867 125.144 73.792 129.155 73.792C133.166 73.792 136.408 74.944 138.883 77.248C141.443 79.4667 142.723 82.6667 142.723 86.848C142.723 90.944 141.784 94.1013 139.907 96.32C138.03 98.5387 135.128 99.648 131.203 99.648C127.363 99.648 124.504 98.368 122.627 95.808C120.835 93.248 120.622 89.7067 121.987 85.184H126.595C128.728 80.832 127.832 78.656 123.907 78.656ZM187.282 78.656C184.125 78.656 181.351 80.704 178.962 84.8C176.573 88.896 175.378 93.76 175.378 99.392V133.696H184.466V136H144.53V133.696H151.57V77.376H144.53V75.072H175.378V87.36C176.487 83.008 178.621 79.68 181.778 77.376C184.935 74.9867 188.519 73.792 192.53 73.792C196.541 73.792 199.783 74.944 202.258 77.248C204.818 79.4667 206.098 82.6667 206.098 86.848C206.098 90.944 205.159 94.1013 203.282 96.32C201.405 98.5387 198.503 99.648 194.578 99.648C190.738 99.648 187.879 98.368 186.002 95.808C184.21 93.248 183.997 89.7067 185.362 85.184H189.97C192.103 80.832 191.207 78.656 187.282 78.656ZM248.624 110.784V99.904C248.624 91.6267 248.155 85.6107 247.216 81.856C246.363 78.016 244.315 76.096 241.072 76.096C239.195 76.096 237.659 76.6507 236.464 77.76C235.355 78.784 234.544 80.5333 234.032 83.008C233.264 86.848 232.88 92.6933 232.88 100.544V110.528C232.88 119.829 233.136 125.419 233.648 127.296C234.245 129.173 234.843 130.709 235.44 131.904C236.379 133.952 238.213 134.976 240.944 134.976C244.272 134.976 246.448 133.056 247.472 129.216C248.24 126.485 248.624 120.341 248.624 110.784ZM240.688 137.28C230.021 137.28 221.957 134.549 216.496 129.088C211.035 123.627 208.304 115.819 208.304 105.664C208.304 95.424 211.205 87.5733 217.008 82.112C222.896 76.5653 231.131 73.792 241.712 73.792C252.293 73.792 260.187 76.352 265.392 81.472C270.597 86.5067 273.2 94.2293 273.2 104.64C273.2 126.4 262.363 137.28 240.688 137.28ZM319.532 78.656C316.375 78.656 313.601 80.704 311.212 84.8C308.823 88.896 307.628 93.76 307.628 99.392V133.696H316.716V136H276.78V133.696H283.82V77.376H276.78V75.072H307.628V87.36C308.737 83.008 310.871 79.68 314.028 77.376C317.185 74.9867 320.769 73.792 324.78 73.792C328.791 73.792 332.033 74.944 334.508 77.248C337.068 79.4667 338.348 82.6667 338.348 86.848C338.348 90.944 337.409 94.1013 335.532 96.32C333.655 98.5387 330.753 99.648 326.828 99.648C322.988 99.648 320.129 98.368 318.252 95.808C316.46 93.248 316.247 89.7067 317.612 85.184H322.22C324.353 80.832 323.457 78.656 319.532 78.656ZM385.171 136V133.568H397.203V113.088H362.515V110.656L398.611 46.4H420.755V110.016H433.427V98.88H435.859V122.56H433.427V113.088H420.755V133.568H429.587V136H385.171ZM366.611 110.016H397.203V56.128L366.611 110.016ZM480.728 137.28C468.355 137.28 458.925 133.099 452.44 124.736C446.04 116.373 442.84 104.683 442.84 89.664C442.84 74.6453 446.296 63.4667 453.208 56.128C460.12 48.704 469.549 44.992 481.496 44.992C493.528 44.992 502.957 48.6613 509.784 56C516.696 63.3387 520.152 75.0293 520.152 91.072C520.152 107.115 516.696 118.848 509.784 126.272C502.872 133.611 493.187 137.28 480.728 137.28ZM469.08 86.336V97.728C469.08 106.005 469.123 111.851 469.208 115.264C469.379 118.677 469.848 122.219 470.616 125.888C471.384 129.557 472.621 131.947 474.328 133.056C476.035 134.08 478.04 134.592 480.344 134.592C482.648 134.592 484.355 134.464 485.464 134.208C486.659 133.952 487.683 133.44 488.536 132.672C489.475 131.819 490.243 131.008 490.84 130.24C491.437 129.387 491.907 128.107 492.248 126.4C492.675 124.693 493.016 123.115 493.272 121.664C493.528 120.213 493.699 118.08 493.784 115.264C493.955 109.803 494.04 104.299 494.04 98.752V87.488C494.04 70.7627 493.4 59.968 492.12 55.104C490.925 50.1547 487.427 47.68 481.624 47.68C475.821 47.68 472.28 50.1973 471 55.232C469.72 60.2667 469.08 70.6347 469.08 86.336ZM547.296 136V133.568H559.328V113.088H524.64V110.656L560.736 46.4H582.88V110.016H595.552V98.88H597.984V122.56H595.552V113.088H582.88V133.568H591.712V136H547.296ZM528.736 110.016H559.328V56.128L528.736 110.016Z" fill="url(#paint0_linear_51_42)"/>
<path d="M18.216 255.312V188.112H20.712L21.096 194.064H21.288C23.592 192.208 26.088 190.576 28.776 189.168C31.528 187.696 34.344 186.96 37.224 186.96C41.384 186.96 44.808 187.92 47.496 189.84C50.248 191.76 52.296 194.48 53.64 198C54.984 201.52 55.656 205.648 55.656 210.384C55.656 215.568 54.696 220.016 52.776 223.728C50.92 227.376 48.456 230.192 45.384 232.176C42.312 234.16 38.952 235.152 35.304 235.152C33.128 235.152 30.824 234.64 28.392 233.616C26.024 232.592 23.592 231.184 21.096 229.392V238.032V255.312H18.216ZM35.496 232.464C38.824 232.464 41.768 231.536 44.328 229.68C46.888 227.76 48.904 225.136 50.376 221.808C51.848 218.48 52.584 214.672 52.584 210.384C52.584 206.48 52.072 202.96 51.048 199.824C50.024 196.688 48.36 194.224 46.056 192.432C43.816 190.576 40.808 189.648 37.032 189.648C34.664 189.648 32.168 190.352 29.544 191.76C26.92 193.104 24.104 195.088 21.096 197.712V226.128C23.912 228.432 26.568 230.064 29.064 231.024C31.56 231.984 33.704 232.464 35.496 232.464ZM78.3518 235.152C75.9838 235.152 73.7758 234.736 71.7278 233.904C69.7438 233.008 68.1438 231.664 66.9278 229.872C65.7118 228.016 65.1038 225.648 65.1038 222.768C65.1038 217.648 67.5358 213.776 72.3998 211.152C77.2638 208.464 84.8798 206.544 95.2478 205.392C95.3118 202.896 95.0558 200.432 94.4798 198C93.9678 195.568 92.8798 193.584 91.2158 192.048C89.5518 190.448 87.1198 189.648 83.9198 189.648C80.6558 189.648 77.7118 190.288 75.0878 191.568C72.4638 192.784 70.4158 193.936 68.9438 195.024L67.4078 192.912C68.3678 192.144 69.6798 191.312 71.3438 190.416C73.0078 189.456 74.9278 188.656 77.1038 188.016C79.2798 187.312 81.6158 186.96 84.1118 186.96C87.6958 186.96 90.5118 187.76 92.5598 189.36C94.6078 190.96 96.0478 193.072 96.8798 195.696C97.7118 198.32 98.1278 201.168 98.1278 204.24V234H95.6318L95.2478 227.856H95.0558C92.6878 229.776 90.0638 231.472 87.1838 232.944C84.3678 234.416 81.4238 235.152 78.3518 235.152ZM78.5438 232.464C81.3598 232.464 84.0798 231.792 86.7038 230.448C89.3278 229.104 92.1758 227.152 95.2478 224.592V207.888C88.5278 208.656 83.1838 209.712 79.2158 211.056C75.3118 212.336 72.4958 213.936 70.7678 215.856C69.0398 217.776 68.1758 220.048 68.1758 222.672C68.1758 226.192 69.1998 228.72 71.2478 230.256C73.3598 231.728 75.7918 232.464 78.5438 232.464ZM130.031 256.464C126.127 256.464 122.767 255.92 119.951 254.832C117.135 253.744 114.959 252.24 113.423 250.32C111.951 248.4 111.215 246.16 111.215 243.6C111.215 241.552 111.823 239.536 113.039 237.552C114.319 235.568 116.015 233.808 118.127 232.272V231.888C116.975 231.184 116.015 230.224 115.247 229.008C114.479 227.792 114.095 226.32 114.095 224.592C114.095 222.48 114.671 220.72 115.823 219.312C117.039 217.84 118.127 216.784 119.087 216.144V215.76C117.679 214.48 116.367 212.752 115.151 210.576C113.935 208.336 113.327 205.84 113.327 203.088C113.327 200.016 114.031 197.264 115.439 194.832C116.847 192.4 118.735 190.48 121.103 189.072C123.471 187.664 126.127 186.96 129.071 186.96C130.351 186.96 131.503 187.088 132.527 187.344C133.551 187.536 134.383 187.792 135.023 188.112H150.383V190.8H139.247V191.184C140.783 192.336 142.095 193.904 143.183 195.888C144.271 197.872 144.815 200.272 144.815 203.088C144.815 206.16 144.111 208.944 142.703 211.44C141.295 213.872 139.407 215.824 137.039 217.296C134.671 218.704 132.015 219.408 129.071 219.408C127.727 219.408 126.351 219.216 124.943 218.832C123.535 218.448 122.287 217.936 121.199 217.296C120.175 218.128 119.247 219.12 118.415 220.272C117.583 221.36 117.167 222.736 117.167 224.4C117.167 226.128 117.775 227.632 118.991 228.912C120.271 230.128 122.671 230.736 126.191 230.736H136.367C141.487 230.736 145.231 231.568 147.599 233.232C149.967 234.896 151.151 237.52 151.151 241.104C151.151 243.664 150.287 246.096 148.559 248.4C146.831 250.768 144.367 252.688 141.167 254.16C138.031 255.696 134.319 256.464 130.031 256.464ZM129.071 216.72C131.311 216.72 133.391 216.144 135.311 214.992C137.231 213.84 138.767 212.24 139.919 210.192C141.135 208.144 141.743 205.776 141.743 203.088C141.743 198.928 140.495 195.664 137.999 193.296C135.503 190.864 132.527 189.648 129.071 189.648C125.615 189.648 122.639 190.864 120.143 193.296C117.647 195.664 116.399 198.928 116.399 203.088C116.399 205.776 116.975 208.144 118.127 210.192C119.343 212.24 120.911 213.84 122.831 214.992C124.751 216.144 126.831 216.72 129.071 216.72ZM130.223 253.776C133.871 253.776 137.007 253.168 139.631 251.952C142.319 250.736 144.399 249.168 145.871 247.248C147.343 245.328 148.079 243.344 148.079 241.296C148.079 238.608 147.119 236.688 145.199 235.536C143.343 234.384 140.591 233.808 136.943 233.808H126.383C126.127 233.808 125.455 233.744 124.367 233.616C123.279 233.488 122.095 233.296 120.815 233.04C118.511 234.576 116.847 236.24 115.823 238.032C114.799 239.888 114.287 241.68 114.287 243.408C114.287 246.48 115.663 248.976 118.415 250.896C121.231 252.816 125.167 253.776 130.223 253.776ZM177.331 235.152C173.491 235.152 169.971 234.192 166.771 232.272C163.635 230.352 161.107 227.6 159.187 224.016C157.331 220.432 156.403 216.144 156.403 211.152C156.403 206.16 157.331 201.872 159.187 198.288C161.107 194.64 163.571 191.856 166.579 189.936C169.587 187.952 172.787 186.96 176.179 186.96C179.699 186.96 182.739 187.792 185.299 189.456C187.923 191.056 189.939 193.424 191.347 196.56C192.755 199.696 193.459 203.536 193.459 208.08C193.459 208.528 193.459 209.008 193.459 209.52C193.459 210.032 193.395 210.576 193.267 211.152H157.939V208.464H190.579C190.579 202.128 189.267 197.424 186.643 194.352C184.019 191.216 180.531 189.648 176.179 189.648C173.491 189.648 170.867 190.448 168.307 192.048C165.747 193.584 163.635 195.952 161.971 199.152C160.307 202.288 159.475 206.224 159.475 210.96C159.475 215.312 160.243 219.12 161.779 222.384C163.379 225.584 165.555 228.08 168.307 229.872C171.059 231.6 174.131 232.464 177.523 232.464C180.147 232.464 182.515 232.112 184.627 231.408C186.739 230.704 188.595 229.776 190.195 228.624L191.539 230.736C189.811 231.888 187.859 232.912 185.683 233.808C183.571 234.704 180.787 235.152 177.331 235.152ZM225.497 234V188.112H227.993L228.377 195.408H228.569C231.001 192.976 233.465 190.96 235.961 189.36C238.521 187.76 241.369 186.96 244.505 186.96C249.241 186.96 252.729 188.4 254.969 191.28C257.209 194.096 258.329 198.48 258.329 204.432V234H255.449V204.816C255.449 199.696 254.585 195.888 252.857 193.392C251.129 190.896 248.281 189.648 244.313 189.648C241.433 189.648 238.809 190.416 236.441 191.952C234.073 193.488 231.385 195.792 228.377 198.864V234H225.497ZM292.349 235.152C288.701 235.152 285.309 234.224 282.173 232.368C279.101 230.448 276.637 227.696 274.781 224.112C272.925 220.528 271.997 216.208 271.997 211.152C271.997 206.032 272.925 201.68 274.781 198.096C276.637 194.448 279.101 191.696 282.173 189.84C285.309 187.92 288.701 186.96 292.349 186.96C295.997 186.96 299.357 187.92 302.429 189.84C305.501 191.696 307.965 194.448 309.821 198.096C311.741 201.68 312.701 206.032 312.701 211.152C312.701 216.208 311.741 220.528 309.821 224.112C307.965 227.696 305.501 230.448 302.429 232.368C299.357 234.224 295.997 235.152 292.349 235.152ZM292.349 232.464C295.613 232.464 298.557 231.568 301.181 229.776C303.805 227.984 305.853 225.488 307.325 222.288C308.861 219.088 309.629 215.376 309.629 211.152C309.629 206.928 308.861 203.216 307.325 200.016C305.853 196.752 303.805 194.224 301.181 192.432C298.557 190.576 295.613 189.648 292.349 189.648C289.085 189.648 286.141 190.576 283.517 192.432C280.957 194.224 278.909 196.752 277.373 200.016C275.837 203.216 275.069 206.928 275.069 211.152C275.069 215.376 275.837 219.088 277.373 222.288C278.909 225.488 280.957 227.984 283.517 229.776C286.141 231.568 289.085 232.464 292.349 232.464ZM337.897 234.768C333.673 234.768 330.825 233.552 329.353 231.12C327.881 228.624 327.145 225.424 327.145 221.52V190.8H319.849V188.496L327.145 188.112L327.529 172.752H330.025V188.112H343.657V190.8H330.025V221.904C330.025 224.848 330.537 227.28 331.561 229.2C332.585 231.12 334.761 232.08 338.089 232.08C338.985 232.08 339.913 231.984 340.873 231.792C341.833 231.536 342.889 231.12 344.041 230.544L345.193 232.656C343.977 233.296 342.729 233.808 341.449 234.192C340.169 234.576 338.985 234.768 337.897 234.768ZM374.756 234V176.784C374.756 173.776 375.172 171.312 376.004 169.392C376.9 167.408 378.116 165.936 379.652 164.976C381.252 164.016 383.14 163.536 385.316 163.536C386.276 163.536 387.332 163.664 388.484 163.92C389.636 164.176 390.692 164.56 391.652 165.072L390.692 167.376C388.708 166.608 386.852 166.224 385.124 166.224C382.564 166.224 380.676 167.184 379.46 169.104C378.244 171.024 377.636 173.712 377.636 177.168V234H374.756ZM368.036 190.8V188.496L374.756 188.112H388.58V190.8H368.036ZM413.942 235.152C410.294 235.152 406.902 234.224 403.766 232.368C400.694 230.448 398.23 227.696 396.374 224.112C394.518 220.528 393.59 216.208 393.59 211.152C393.59 206.032 394.518 201.68 396.374 198.096C398.23 194.448 400.694 191.696 403.766 189.84C406.902 187.92 410.294 186.96 413.942 186.96C417.59 186.96 420.95 187.92 424.022 189.84C427.094 191.696 429.558 194.448 431.414 198.096C433.334 201.68 434.294 206.032 434.294 211.152C434.294 216.208 433.334 220.528 431.414 224.112C429.558 227.696 427.094 230.448 424.022 232.368C420.95 234.224 417.59 235.152 413.942 235.152ZM413.942 232.464C417.206 232.464 420.15 231.568 422.774 229.776C425.398 227.984 427.446 225.488 428.918 222.288C430.454 219.088 431.222 215.376 431.222 211.152C431.222 206.928 430.454 203.216 428.918 200.016C427.446 196.752 425.398 194.224 422.774 192.432C420.15 190.576 417.206 189.648 413.942 189.648C410.678 189.648 407.734 190.576 405.11 192.432C402.55 194.224 400.502 196.752 398.966 200.016C397.43 203.216 396.662 206.928 396.662 211.152C396.662 215.376 397.43 219.088 398.966 222.288C400.502 225.488 402.55 227.984 405.11 229.776C407.734 231.568 410.678 232.464 413.942 232.464ZM461.772 235.152C457.1 235.152 453.612 233.744 451.308 230.928C449.068 228.048 447.948 223.632 447.948 217.68V188.112H450.828V217.296C450.828 222.352 451.692 226.16 453.42 228.72C455.212 231.216 458.06 232.464 461.964 232.464C464.844 232.464 467.468 231.664 469.836 230.064C472.204 228.464 474.828 225.936 477.708 222.48V188.112H480.588V234H478.092L477.708 226.128H477.516C475.212 228.816 472.812 230.992 470.316 232.656C467.82 234.32 464.972 235.152 461.772 235.152ZM499.06 234V188.112H501.556L501.94 195.408H502.132C504.564 192.976 507.028 190.96 509.524 189.36C512.084 187.76 514.932 186.96 518.068 186.96C522.804 186.96 526.292 188.4 528.532 191.28C530.772 194.096 531.892 198.48 531.892 204.432V234H529.012V204.816C529.012 199.696 528.148 195.888 526.42 193.392C524.692 190.896 521.844 189.648 517.876 189.648C514.996 189.648 512.372 190.416 510.004 191.952C507.636 193.488 504.948 195.792 501.94 198.864V234H499.06ZM564.567 235.152C558.807 235.152 554.199 233.104 550.743 229.008C547.287 224.848 545.559 218.896 545.559 211.152C545.559 206.224 546.487 201.968 548.343 198.384C550.263 194.736 552.759 191.92 555.831 189.936C558.967 187.952 562.391 186.96 566.103 186.96C568.919 186.96 571.383 187.472 573.495 188.496C575.671 189.456 577.943 190.864 580.311 192.72L580.119 184.08V164.688H582.999V234H580.503L580.119 227.856H579.927C578.007 229.776 575.767 231.472 573.207 232.944C570.647 234.416 567.767 235.152 564.567 235.152ZM564.759 232.464C567.447 232.464 570.039 231.76 572.535 230.352C575.031 228.944 577.559 226.96 580.119 224.4V195.984C577.559 193.68 575.159 192.048 572.919 191.088C570.679 190.128 568.343 189.648 565.911 189.648C562.647 189.648 559.703 190.608 557.079 192.528C554.519 194.448 552.471 197.04 550.935 200.304C549.399 203.568 548.631 207.184 548.631 211.152C548.631 217.488 550.007 222.64 552.759 226.608C555.575 230.512 559.575 232.464 564.759 232.464Z" fill="url(#paint1_linear_51_42)"/>
<defs>
<linearGradient id="paint0_linear_51_42" x1="30.7652" y1="86" x2="786.216" y2="221.523" gradientUnits="userSpaceOnUse">
<stop/>
<stop offset="1" stop-color="#4A4949"/>
</linearGradient>
<linearGradient id="paint1_linear_51_42" x1="38.8453" y1="204.104" x2="760.443" y2="362.683" gradientUnits="userSpaceOnUse">
<stop/>
<stop offset="1" stop-color="#202020"/>
</linearGradient>
</defs>
</svg>
