<svg width="161" height="161" viewBox="0 0 161 161" fill="none" xmlns="http://www.w3.org/2000/svg">
<path opacity="0.5" d="M149.863 149.576L149.863 149.576C145.49 154.099 139.736 156.443 131.179 157.633C122.574 158.83 111.36 158.834 96.2002 158.834H64.1334C48.9732 158.834 37.7591 158.83 29.1542 157.633C20.5977 156.443 14.8438 154.099 10.4706 149.576L9.3921 150.618L10.4705 149.576C6.0905 145.045 3.81507 139.072 2.6615 130.197C1.50298 121.284 1.5 109.672 1.5 93.9956V81.8014C1.5 72.6009 1.50153 65.8032 2.0137 60.3526C2.52303 54.9323 3.52962 50.9589 5.47805 47.3993C7.4251 43.8422 10.1962 40.9111 14.4194 37.6768C18.6698 34.4218 24.2993 30.926 31.928 26.1914L47.9614 16.2406C56.0257 11.2357 61.9788 7.54322 67.0226 5.09048C72.0356 2.65268 76.0343 1.5 80.1668 1.5C84.2993 1.5 88.2979 2.65268 93.311 5.09048C98.3548 7.54322 104.308 11.2357 112.372 16.2406L128.406 26.1913C136.035 30.9259 141.664 34.4217 145.914 37.6768C150.138 40.9111 152.909 43.8422 154.856 47.3993C156.804 50.9589 157.811 54.9323 158.32 60.3526C158.832 65.8032 158.834 72.6009 158.834 81.8014V93.9956C158.834 109.672 158.831 121.284 157.672 130.197C156.518 139.072 154.243 145.045 149.863 149.576Z" fill="url(#paint0_linear_51_36)" stroke="url(#paint1_linear_51_36)" stroke-width="3"/>
<path d="M74.1523 128.267C74.1523 131.587 76.8443 134.279 80.1649 134.279C83.4854 134.279 86.1774 131.587 86.1774 128.267V104.217C86.1774 100.896 83.4854 98.2041 80.1649 98.2041C76.8443 98.2041 74.1523 100.896 74.1523 104.217V128.267Z" fill="url(#paint2_linear_51_36)"/>
<defs>
<linearGradient id="paint0_linear_51_36" x1="44.5" y1="23" x2="160" y2="196" gradientUnits="userSpaceOnUse">
<stop/>
<stop offset="1" stop-color="#4A4949"/>
</linearGradient>
<linearGradient id="paint1_linear_51_36" x1="80.1668" y1="0" x2="80.1668" y2="160.334" gradientUnits="userSpaceOnUse">
<stop stop-color="#F4B011"/>
<stop offset="1" stop-color="#F6E54B" stop-opacity="0.920705"/>
</linearGradient>
<linearGradient id="paint2_linear_51_36" x1="74.1523" y1="100.729" x2="80.1649" y2="134.279" gradientUnits="userSpaceOnUse">
<stop stop-color="#F4B011"/>
<stop offset="1" stop-color="#F6E54B" stop-opacity="0.920705"/>
</linearGradient>
</defs>
</svg>
