<svg width="95" height="40" viewBox="0 0 95 40" fill="none" xmlns="http://www.w3.org/2000/svg">
<path d="M75.1945 0H19.7922C8.86132 0 0 8.86126 0 19.7922C0 30.7231 8.86132 39.5844 19.7922 39.5844H75.1945C86.1254 39.5844 94.9866 30.7231 94.9866 19.7922C94.9866 8.86126 86.1254 0 75.1945 0Z" fill="#161616"/>
<path d="M17.292 10.9314H20.3788V17.9295H26.3391V10.9314H29.4258V28.3336H26.3391V20.617H20.3788V28.3336H17.292V10.9314ZM32.752 21.8145C32.752 20.7324 32.9293 19.7655 33.2841 18.9141C33.6566 18.0626 34.1444 17.3441 34.7476 16.7587C35.3507 16.1733 36.0514 15.7299 36.8497 15.4283C37.648 15.109 38.4729 14.9493 39.3243 14.9493C40.1758 14.9493 41.0007 15.109 41.799 15.4283C42.5972 15.7299 43.2979 16.1733 43.901 16.7587C44.5041 17.3441 44.9831 18.0626 45.3379 18.9141C45.7104 19.7655 45.8967 20.7324 45.8967 21.8145C45.8967 22.8966 45.7104 23.8633 45.3379 24.7148C44.9831 25.5663 44.5041 26.2847 43.901 26.8701C43.2979 27.4555 42.5972 27.899 41.799 28.2006C41.0007 28.5022 40.1758 28.653 39.3243 28.653C38.4729 28.653 37.648 28.5022 36.8497 28.2006C36.0514 27.899 35.3507 27.4555 34.7476 26.8701C34.1444 26.2847 33.6566 25.5663 33.2841 24.7148C32.9293 23.8633 32.752 22.8966 32.752 21.8145ZM35.9183 21.8145C35.9183 23.1272 36.2199 24.1827 36.823 24.9809C37.4261 25.7615 38.2599 26.1517 39.3243 26.1517C40.3887 26.1517 41.2224 25.7615 41.8256 24.9809C42.4287 24.1827 42.7302 23.1272 42.7302 21.8145C42.7302 20.484 42.4287 19.4285 41.8256 18.648C41.2224 17.8497 40.3887 17.4506 39.3243 17.4506C38.2599 17.4506 37.4261 17.8497 36.823 18.648C36.2199 19.4285 35.9183 20.484 35.9183 21.8145ZM48.5842 15.2686H50.8993L51.1388 16.945H51.2188C51.5204 16.3773 51.884 15.9073 52.3097 15.5347C52.7532 15.1445 53.3475 14.9493 54.0925 14.9493C55.3697 14.9493 56.168 15.6766 56.4873 17.1313C56.7889 16.5104 57.1704 15.996 57.6316 15.588C58.1105 15.1622 58.7136 14.9493 59.4409 14.9493C60.3634 14.9493 61.0729 15.313 61.5696 16.0403C62.084 16.7499 62.3413 17.761 62.3413 19.0737V28.3336H59.4409V19.3132C59.4409 18.1601 59.0773 17.5836 58.35 17.5836C57.9952 17.5836 57.6848 17.7167 57.4187 17.9828C57.1526 18.2489 56.8954 18.6568 56.6471 19.2068V28.3336H54.2522V19.3132C54.2522 18.1601 53.8796 17.5836 53.1346 17.5836C52.7798 17.5836 52.4783 17.7167 52.23 17.9828C51.9816 18.2489 51.7332 18.6568 51.4849 19.2068V28.3336H48.5845L48.5842 15.2686ZM64.9222 21.8145C64.9222 20.7501 65.1085 19.7922 65.4811 18.9407C65.8713 18.0892 66.3768 17.3707 66.9977 16.7853C67.6185 16.1822 68.3282 15.7299 69.1265 15.4283C69.9425 15.109 70.7762 14.9493 71.6277 14.9493C72.6034 14.9493 73.4637 15.109 74.2087 15.4283C74.9715 15.7299 75.6102 16.1556 76.1246 16.7055C76.639 17.2377 77.0293 17.8852 77.2954 18.648C77.5615 19.4108 77.6946 20.2445 77.6946 21.1492C77.6946 21.4508 77.6769 21.7257 77.6416 21.9741C77.6236 22.2224 77.5969 22.4265 77.5615 22.5861H68.0621C68.2041 23.7747 68.6741 24.6882 69.4724 25.3268C70.2707 25.9654 71.2641 26.2848 72.4526 26.2848C73.1268 26.2848 73.7565 26.1961 74.3419 26.0187C74.9273 25.8235 75.5216 25.5574 76.1248 25.2204L77.1625 27.1363C76.4529 27.5797 75.6634 27.9434 74.7942 28.2272C73.925 28.511 73.0115 28.653 72.0536 28.653C71.0602 28.653 70.1288 28.5022 69.2595 28.2006C68.3903 27.8813 67.6364 27.4289 66.9978 26.8435C66.3591 26.2581 65.8537 25.5486 65.4812 24.7148C65.1087 23.8633 64.9222 22.8966 64.9222 21.8145ZM74.8739 20.6436C74.8739 19.597 74.6078 18.781 74.0757 18.1956C73.5435 17.6102 72.7541 17.3175 71.7075 17.3175C71.264 17.3175 70.8383 17.3885 70.4303 17.5304C70.0223 17.6723 69.6497 17.8852 69.3127 18.169C68.9934 18.4528 68.7184 18.7988 68.4878 19.2068C68.2572 19.6148 68.1064 20.0937 68.0354 20.6436H74.8739Z" fill="white"/>
</svg>
