<svg width="87" height="36" viewBox="0 0 87 36" fill="none" xmlns="http://www.w3.org/2000/svg">
<path d="M66.5234 0.564697H17.5099C7.83948 0.564697 0 8.40412 0 18.0745C0 27.7449 7.83948 35.5844 17.5099 35.5844H66.5234C76.1938 35.5844 84.0332 27.7449 84.0332 18.0745C84.0332 8.40412 76.1938 0.564697 66.5234 0.564697Z" fill="url(#paint0_linear_12_7)"/>
<path d="M15.2979 10.2356H18.0286V16.4267H23.3016V10.2356H26.0323V25.6311H23.3016V18.8044H18.0286V25.6311H15.2979V10.2356ZM28.9749 19.8637C28.9749 18.9064 29.1319 18.051 29.4457 17.2977C29.7753 16.5444 30.2068 15.9088 30.7404 15.3909C31.274 14.8731 31.8939 14.4807 32.6002 14.2139C33.3064 13.9314 34.0361 13.7902 34.7894 13.7902C35.5427 13.7902 36.2725 13.9314 36.9787 14.2139C37.6849 14.4807 38.3047 14.8731 38.8383 15.3909C39.3719 15.9088 39.7957 16.5444 40.1096 17.2977C40.4392 18.051 40.6039 18.9064 40.6039 19.8637C40.6039 20.821 40.4392 21.6763 40.1096 22.4296C39.7957 23.1829 39.3719 23.8185 38.8383 24.3364C38.3047 24.8543 37.6849 25.2466 36.9787 25.5134C36.2725 25.7802 35.5427 25.9136 34.7894 25.9136C34.0361 25.9136 33.3064 25.7802 32.6002 25.5134C31.8939 25.2466 31.274 24.8543 30.7404 24.3364C30.2068 23.8185 29.7753 23.1829 29.4457 22.4296C29.1319 21.6763 28.9749 20.821 28.9749 19.8637ZM31.7762 19.8637C31.7762 21.025 32.0429 21.9588 32.5765 22.665C33.1102 23.3555 33.8478 23.7008 34.7894 23.7008C35.731 23.7008 36.4686 23.3555 37.0022 22.665C37.5358 21.9588 37.8026 21.025 37.8026 19.8637C37.8026 18.6866 37.5358 17.7529 37.0022 17.0624C36.4686 16.3561 35.731 16.003 34.7894 16.003C33.8478 16.003 33.1102 16.3561 32.5765 17.0624C32.0429 17.7529 31.7762 18.6866 31.7762 19.8637ZM42.9815 14.0727H45.0296L45.2415 15.5557H45.3122C45.5791 15.0535 45.9007 14.6377 46.2774 14.3081C46.6697 13.9628 47.1955 13.7902 47.8546 13.7902C48.9845 13.7902 49.6907 14.4337 49.9732 15.7205C50.2401 15.1713 50.5776 14.7161 50.9856 14.3552C51.4093 13.9785 51.9428 13.7902 52.5863 13.7902C53.4023 13.7902 54.0302 14.1119 54.4696 14.7553C54.9247 15.3831 55.1522 16.2777 55.1522 17.439V25.6311H52.5863V17.6508C52.5863 16.6307 52.2646 16.1207 51.6211 16.1207C51.3073 16.1207 51.0327 16.2384 50.7972 16.4738C50.5618 16.7092 50.3343 17.0702 50.1146 17.5567V25.6311H47.9959V17.6508C47.9959 16.6307 47.6663 16.1207 47.0072 16.1207C46.6933 16.1207 46.4265 16.2384 46.2068 16.4738C45.9871 16.7092 45.7674 17.0702 45.5477 17.5567V25.6311H42.9817L42.9815 14.0727ZM57.4355 19.8637C57.4355 18.922 57.6003 18.0746 57.9299 17.3213C58.2752 16.568 58.7224 15.9324 59.2717 15.4145C59.821 14.8809 60.4487 14.4807 61.1549 14.2139C61.8768 13.9314 62.6144 13.7902 63.3677 13.7902C64.2309 13.7902 64.992 13.9314 65.6511 14.2139C66.326 14.4807 66.8909 14.8574 67.3461 15.3439C67.8012 15.8147 68.1464 16.3875 68.3819 17.0624C68.6172 17.7372 68.735 18.4748 68.735 19.2752C68.735 19.542 68.7194 19.7852 68.6881 20.0049C68.6722 20.2246 68.6485 20.4051 68.6173 20.5464H60.2133C60.3389 21.5978 60.7547 22.4061 61.461 22.971C62.1672 23.536 63.046 23.8185 64.0975 23.8185C64.6939 23.8185 65.251 23.74 65.7689 23.5831C66.2868 23.4105 66.8126 23.175 67.3462 22.8769L68.2642 24.5718C67.6365 24.9641 66.9381 25.2859 66.1692 25.537C65.4002 25.7881 64.592 25.9136 63.7445 25.9136C62.8656 25.9136 62.0416 25.7802 61.2726 25.5134C60.5037 25.2309 59.8367 24.8307 59.2717 24.3128C58.7067 23.795 58.2595 23.1672 57.93 22.4296C57.6004 21.6763 57.4355 20.821 57.4355 19.8637ZM66.2396 18.8279C66.2396 17.902 66.0043 17.18 65.5335 16.6621C65.0627 16.1443 64.3642 15.8853 63.4383 15.8853C63.0459 15.8853 62.6693 15.9481 62.3084 16.0736C61.9474 16.1992 61.6178 16.3875 61.3197 16.6386C61.0372 16.8897 60.7939 17.1958 60.5899 17.5567C60.3859 17.9177 60.2525 18.3414 60.1897 18.8279H66.2396Z" fill="#161616"/>
<defs>
<linearGradient id="paint0_linear_12_7" x1="-2.65406e-05" y1="18.0745" x2="84.0332" y2="18.0745" gradientUnits="userSpaceOnUse">
<stop stop-color="#F4B011"/>
<stop offset="1" stop-color="#F6E54B" stop-opacity="0.920705"/>
</linearGradient>
</defs>
</svg>
