<svg width="61" height="18" viewBox="0 0 61 18" fill="none" xmlns="http://www.w3.org/2000/svg">
<path d="M0 0H3.0669V6.95335H8.9892V0H12.056V17.2908H8.9892V9.62365H3.0669V17.2908H0V0ZM15.3609 10.8134C15.3609 9.73822 15.5371 8.77761 15.8896 7.93158C16.2598 7.08554 16.7445 6.3717 17.3438 5.79005C17.9431 5.20841 18.6393 4.76776 19.4324 4.46812C20.2256 4.15086 21.0452 3.99223 21.8912 3.99223C22.7373 3.99223 23.5569 4.15086 24.35 4.46812C25.1431 4.76776 25.8393 5.20841 26.4386 5.79005C27.0379 6.3717 27.5138 7.08554 27.8663 7.93158C28.2364 8.77761 28.4215 9.73822 28.4215 10.8134C28.4215 11.8886 28.2364 12.8492 27.8663 13.6952C27.5138 14.5412 27.0379 15.2551 26.4386 15.8367C25.8393 16.4184 25.1431 16.859 24.35 17.1587C23.5569 17.4583 22.7373 17.6081 21.8912 17.6081C21.0452 17.6081 20.2256 17.4583 19.4324 17.1587C18.6393 16.859 17.9431 16.4184 17.3438 15.8367C16.7445 15.2551 16.2598 14.5412 15.8896 13.6952C15.5371 12.8492 15.3609 11.8886 15.3609 10.8134ZM18.5071 10.8134C18.5071 12.1177 18.8067 13.1664 19.406 13.9596C20.0053 14.7351 20.8337 15.1229 21.8912 15.1229C22.9487 15.1229 23.7771 14.7351 24.3764 13.9596C24.9757 13.1664 25.2753 12.1177 25.2753 10.8134C25.2753 9.49146 24.9757 8.44273 24.3764 7.66719C23.7771 6.87404 22.9487 6.47746 21.8912 6.47746C20.8337 6.47746 20.0053 6.87404 19.406 7.66719C18.8067 8.44273 18.5071 9.49146 18.5071 10.8134ZM31.0919 4.30949H33.392L33.63 5.97512H33.709C34.0086 5.4111 34.3699 4.94402 34.793 4.57388C35.2336 4.18611 35.824 3.99223 36.5643 3.99223C37.8334 3.99223 38.6265 4.71488 38.9438 6.16019C39.2435 5.54329 39.6224 5.03215 40.0807 4.62675C40.5566 4.20374 41.1558 3.99223 41.8785 3.99223C42.795 3.99223 43.5001 4.35356 43.9936 5.07621C44.5047 5.78124 44.7603 6.78591 44.7603 8.09021V17.2908H41.8785V8.32816C41.8785 7.18249 41.5172 6.60965 40.7945 6.60965C40.442 6.60965 40.1335 6.74184 39.8692 7.00623C39.6048 7.27062 39.3492 7.67601 39.1024 8.2224V17.2908H36.723V8.32816C36.723 7.18249 36.3529 6.60965 35.6126 6.60965C35.2601 6.60965 34.9604 6.74184 34.7136 7.00623C34.4669 7.27062 34.2201 7.67601 33.9734 8.2224V17.2908H31.0916L31.0919 4.30949ZM47.3252 10.8134C47.3252 9.75585 47.5103 8.80405 47.8804 7.95802C48.2681 7.11198 48.7705 6.39814 49.3874 5.81649C50.0043 5.21722 50.7093 4.76776 51.5025 4.46812C52.3132 4.15086 53.1416 3.99223 53.9877 3.99223C54.9571 3.99223 55.8119 4.15086 56.5522 4.46812C57.3101 4.76776 57.9447 5.19078 58.4558 5.73718C58.9669 6.26595 59.3547 6.90929 59.6191 7.66719C59.8835 8.4251 60.0157 9.25351 60.0157 10.1524C60.0157 10.4521 59.998 10.7253 59.9627 10.972C59.9454 11.2188 59.919 11.4215 59.8837 11.5801H50.4451C50.5861 12.761 51.0532 13.6688 51.8464 14.3033C52.6395 14.9378 53.6266 15.2551 54.8075 15.2551C55.4773 15.2551 56.103 15.1669 56.6846 14.9907C57.2663 14.7968 57.8567 14.5324 58.456 14.1975L59.4871 16.1011C58.7821 16.5418 57.9978 16.9031 57.1341 17.1851C56.2704 17.4671 55.3627 17.6081 54.4109 17.6081C53.4238 17.6081 52.4985 17.4583 51.6349 17.1587C50.7712 16.8414 50.0221 16.3919 49.3876 15.8103C48.7531 15.2286 48.2507 14.5236 47.8806 13.6952C47.5105 12.8492 47.3252 11.8886 47.3252 10.8134ZM57.2132 9.65009C57.2132 8.61017 56.9488 7.79939 56.42 7.21774C55.8913 6.63609 55.1069 6.34526 54.067 6.34526C53.6263 6.34526 53.2033 6.41577 52.798 6.55677C52.3926 6.69778 52.0224 6.90929 51.6875 7.1913C51.3702 7.47331 51.097 7.81701 50.8679 8.2224C50.6388 8.6278 50.489 9.10369 50.4185 9.65009H57.2132Z" fill="#161616"/>
</svg>
