<svg width="95" height="40" viewBox="0 0 95 40" fill="none" xmlns="http://www.w3.org/2000/svg">
<path d="M75.1943 0H19.7922C8.86132 0 0 8.86126 0 19.7922C0 30.7231 8.86132 39.5844 19.7922 39.5844H75.1943C86.1253 39.5844 94.9866 30.7231 94.9866 19.7922C94.9866 8.86126 86.1253 0 75.1943 0Z" fill="url(#paint0_linear_602_41)"/>
<path d="M17.2919 10.9314H20.3787V17.9295H26.339V10.9314H29.4257V28.3336H26.339V20.617H20.3787V28.3336H17.2919V10.9314ZM32.7518 21.8145C32.7518 20.7324 32.9292 19.7655 33.2839 18.9141C33.6565 18.0626 34.1443 17.3441 34.7474 16.7587C35.3506 16.1733 36.0513 15.7299 36.8496 15.4283C37.6479 15.109 38.4728 14.9493 39.3242 14.9493C40.1757 14.9493 41.0006 15.109 41.7988 15.4283C42.5971 15.7299 43.2977 16.1733 43.9009 16.7587C44.504 17.3441 44.983 18.0626 45.3378 18.9141C45.7103 19.7655 45.8966 20.7324 45.8966 21.8145C45.8966 22.8966 45.7103 23.8633 45.3378 24.7148C44.983 25.5663 44.504 26.2847 43.9009 26.8701C43.2977 27.4555 42.5971 27.899 41.7988 28.2006C41.0006 28.5022 40.1757 28.653 39.3242 28.653C38.4728 28.653 37.6479 28.5022 36.8496 28.2006C36.0513 27.899 35.3506 27.4555 34.7474 26.8701C34.1443 26.2847 33.6565 25.5663 33.2839 24.7148C32.9292 23.8633 32.7518 22.8966 32.7518 21.8145ZM35.9182 21.8145C35.9182 23.1272 36.2197 24.1827 36.8229 24.9809C37.4261 25.7615 38.2599 26.1517 39.3242 26.1517C40.3886 26.1517 41.2223 25.7615 41.8254 24.9809C42.4286 24.1827 42.7301 23.1272 42.7301 21.8145C42.7301 20.484 42.4286 19.4285 41.8254 18.648C41.2223 17.8497 40.3886 17.4506 39.3242 17.4506C38.2599 17.4506 37.4261 17.8497 36.8229 18.648C36.2197 19.4285 35.9182 20.484 35.9182 21.8145ZM48.5841 15.2686H50.8992L51.1387 16.945H51.2186C51.5202 16.3773 51.8838 15.9073 52.3096 15.5347C52.753 15.1445 53.3473 14.9493 54.0924 14.9493C55.3696 14.9493 56.1678 15.6766 56.4872 17.1313C56.7888 16.5104 57.1703 15.9959 57.6315 15.5879C58.1104 15.1622 58.7135 14.9493 59.4408 14.9493C60.3633 14.9493 61.0728 15.313 61.5695 16.0403C62.0839 16.7499 62.3412 17.761 62.3412 19.0737V28.3336H59.4408V19.3132C59.4408 18.1601 59.0772 17.5836 58.3499 17.5836C57.9951 17.5836 57.6846 17.7167 57.4185 17.9828C57.1524 18.2489 56.8953 18.6568 56.647 19.2068V28.3336H54.2521V19.3132C54.2521 18.1601 53.8795 17.5836 53.1345 17.5836C52.7797 17.5836 52.4782 17.7167 52.2299 17.9828C51.9815 18.2489 51.7331 18.6568 51.4847 19.2068V28.3336H48.5844L48.5841 15.2686ZM64.9221 21.8145C64.9221 20.7501 65.1084 19.7922 65.481 18.9407C65.8712 18.0892 66.3767 17.3707 66.9976 16.7853C67.6184 16.1822 68.3281 15.7299 69.1263 15.4283C69.9423 15.109 70.7761 14.9493 71.6276 14.9493C72.6032 14.9493 73.4636 15.109 74.2086 15.4283C74.9714 15.7299 75.61 16.1556 76.1245 16.7055C76.6389 17.2377 77.0292 17.8852 77.2953 18.648C77.5614 19.4108 77.6945 20.2445 77.6945 21.1492C77.6945 21.4508 77.6767 21.7257 77.6414 21.9741C77.6234 22.2224 77.5967 22.4265 77.5614 22.5861H68.062C68.2039 23.7747 68.674 24.6882 69.4723 25.3268C70.2706 25.9655 71.264 26.2848 72.4525 26.2848C73.1266 26.2848 73.7564 26.1961 74.3418 26.0187C74.9272 25.8235 75.5215 25.5574 76.1246 25.2204L77.1624 27.1363C76.4528 27.5797 75.6633 27.9434 74.7941 28.2272C73.9249 28.511 73.0114 28.653 72.0535 28.653C71.0601 28.653 70.1287 28.5022 69.2594 28.2006C68.3902 27.8813 67.6363 27.4289 66.9977 26.8435C66.359 26.2581 65.8534 25.5486 65.481 24.7148C65.1084 23.8633 64.9221 22.8966 64.9221 21.8145ZM74.8738 20.6436C74.8738 19.597 74.6077 18.781 74.0756 18.1956C73.5434 17.6102 72.754 17.3175 71.7074 17.3175C71.2639 17.3175 70.8382 17.3885 70.4302 17.5304C70.0222 17.6723 69.6496 17.8852 69.3126 18.169C68.9933 18.4528 68.7183 18.7987 68.4877 19.2068C68.2571 19.6148 68.1063 20.0937 68.0353 20.6436H74.8738Z" fill="white"/>
<defs>
<linearGradient id="paint0_linear_602_41" x1="1.4e-05" y1="19.7922" x2="94.9866" y2="19.7922" gradientUnits="userSpaceOnUse">
<stop stop-color="#F4B011"/>
<stop offset="1" stop-color="#F6E54B" stop-opacity="0.920705"/>
</linearGradient>
</defs>
</svg>
