<svg width="102" height="36" viewBox="0 0 102 36" fill="none" xmlns="http://www.w3.org/2000/svg">
<path d="M14.1467 18.0511H16.2655C17.3326 18.0511 18.1408 17.8314 18.69 17.392C19.2551 16.9525 19.5376 16.2934 19.5376 15.4145C19.5376 14.52 19.2551 13.9001 18.69 13.5548C18.1408 13.2096 17.3326 13.0369 16.2655 13.0369H14.1467V18.0511ZM19.7494 26.2432L16.4538 20.2168H14.1467V26.2432H11.416V10.8476H16.5479C17.3483 10.8476 18.0938 10.9261 18.7843 11.0831C19.4748 11.24 20.0712 11.499 20.5733 11.8599C21.0912 12.2052 21.4914 12.6681 21.7739 13.2488C22.0721 13.8294 22.2212 14.5514 22.2212 15.4145C22.2212 16.5916 21.9388 17.541 21.3738 18.2629C20.8245 18.9848 20.0868 19.5028 19.1609 19.8166L22.8332 26.2432H19.7494ZM25.0226 20.4758C25.0226 19.5341 25.1874 18.6867 25.5169 17.9334C25.8621 17.1801 26.3094 16.5445 26.8587 16.0266C27.408 15.493 28.0358 15.0928 28.742 14.826C29.4639 14.5435 30.2015 14.4023 30.9548 14.4023C31.8179 14.4023 32.5791 14.5435 33.2382 14.826C33.913 15.0928 34.478 15.4695 34.9331 15.956C35.3882 16.4268 35.7334 16.9996 35.9688 17.6744C36.2043 18.3492 36.3221 19.0869 36.3221 19.8873C36.3221 20.1541 36.3064 20.3973 36.2751 20.617C36.2592 20.8367 36.2356 21.0172 36.2044 21.1584H27.8004C27.926 22.2099 28.3418 23.0182 29.048 23.5831C29.7543 24.1481 30.6331 24.4306 31.6846 24.4306C32.2809 24.4306 32.838 24.3521 33.3559 24.1952C33.8738 24.0226 34.3996 23.7871 34.9332 23.489L35.8513 25.1839C35.2236 25.5762 34.5251 25.8979 33.7561 26.149C32.9872 26.4001 32.179 26.5257 31.3316 26.5257C30.4527 26.5257 29.6287 26.3923 28.8597 26.1255C28.0907 25.843 27.4238 25.4428 26.8588 24.9249C26.2938 24.407 25.8465 23.7793 25.517 23.0416C25.1875 22.2884 25.0226 21.4331 25.0226 20.4758ZM33.8267 19.4399C33.8267 18.514 33.5913 17.7921 33.1205 17.2742C32.6497 16.7563 31.9513 16.4974 31.0254 16.4974C30.633 16.4974 30.2563 16.5602 29.8954 16.6857C29.5344 16.8113 29.2049 16.9996 28.9067 17.2507C28.6242 17.5018 28.381 17.8078 28.177 18.1688C27.9729 18.5297 27.8395 18.9534 27.7767 19.4399H33.8267ZM39.3588 23.1358C39.3588 22.4924 39.5079 21.9274 39.8061 21.4409C40.1043 20.9387 40.5751 20.515 41.2185 20.1697C41.8619 19.8245 42.6858 19.542 43.6902 19.3222C44.6946 19.1025 45.9109 18.9456 47.3391 18.8514C47.2919 18.1923 47.0564 17.6509 46.6328 17.2272C46.2091 16.8034 45.5263 16.5916 44.5847 16.5916C43.9256 16.5916 43.2743 16.7171 42.6309 16.9682C42.0031 17.2036 41.3911 17.4861 40.7947 17.8157L39.8061 16.003C40.5123 15.595 41.3204 15.2262 42.2306 14.8967C43.1409 14.5671 44.0904 14.4023 45.0791 14.4023C46.6956 14.4023 47.9275 14.8338 48.7749 15.697C49.6224 16.5445 50.0461 17.7764 50.0461 19.3929V26.2432H47.8333L47.6215 24.8072H47.5507C46.9386 25.2781 46.2559 25.6861 45.5026 26.0313C44.765 26.3609 44.0039 26.5257 43.2192 26.5257C42.6542 26.5257 42.1363 26.4394 41.6655 26.2667C41.1947 26.1098 40.7868 25.8822 40.4415 25.584C40.0962 25.2859 39.8295 24.9328 39.6412 24.5247C39.4528 24.101 39.3588 23.638 39.3588 23.1358ZM41.9718 22.924C41.9718 23.4419 42.1679 23.8185 42.5603 24.0539C42.9683 24.2893 43.4627 24.407 44.0433 24.407C44.624 24.407 45.1811 24.2815 45.7147 24.0304C46.264 23.7636 46.8055 23.4183 47.3391 22.9946V20.5463C46.3033 20.6248 45.4401 20.7347 44.7496 20.8759C44.0591 21.0015 43.5097 21.1663 43.1017 21.3703C42.6936 21.5743 42.4033 21.8097 42.2306 22.0765C42.058 22.3276 41.9718 22.6101 41.9718 22.924ZM53.0594 20.4758C53.0594 19.5341 53.2006 18.6867 53.4831 17.9334C53.7656 17.1801 54.1423 16.5445 54.6131 16.0266C55.0996 15.5087 55.6488 15.1085 56.2609 14.826C56.8729 14.5435 57.5085 14.4023 58.1677 14.4023C58.8582 14.4023 59.4467 14.5278 59.9332 14.7789C60.4354 15.0143 60.9219 15.3439 61.3927 15.7676L61.275 13.8137V9.62354H64.0057V26.2432H61.7694L61.5575 24.9014H61.4867C61.0316 25.3565 60.4981 25.741 59.886 26.0549C59.2896 26.3688 58.6618 26.5257 58.0027 26.5257C57.2651 26.5257 56.5903 26.3923 55.9782 26.1255C55.3662 25.843 54.8404 25.4428 54.401 24.9249C53.9773 24.407 53.6477 23.7793 53.4123 23.0416C53.1769 22.2884 53.0594 21.4331 53.0594 20.4758ZM55.8607 20.4522C55.8607 21.7077 56.104 22.665 56.5905 23.3242C57.077 23.9676 57.7675 24.2894 58.662 24.2894C59.6193 24.2894 60.4903 23.8264 61.275 22.9004V17.698C60.867 17.3056 60.459 17.031 60.051 16.8741C59.6429 16.7171 59.2269 16.6386 58.8032 16.6386C58.3952 16.6386 58.0108 16.725 57.6499 16.8976C57.3046 17.0702 56.9985 17.3213 56.7317 17.6509C56.4649 17.9647 56.253 18.3571 56.0962 18.8279C55.9392 19.2987 55.8607 19.8402 55.8607 20.4522ZM67.0661 14.6848H69.1141L69.3259 16.1678H69.3967C69.6634 15.6656 69.9852 15.2498 70.3618 14.9202C70.7541 14.5749 71.2798 14.4023 71.939 14.4023C73.0689 14.4023 73.7752 15.0457 74.0577 16.3326C74.3245 15.7833 74.6619 15.3282 75.0699 14.9673C75.4937 14.5906 76.0273 14.4023 76.6707 14.4023C77.4868 14.4023 78.1145 14.724 78.554 15.3675C79.0091 15.9952 79.2366 16.8898 79.2366 18.0511V26.2432H76.6707V18.2629C76.6707 17.2428 76.349 16.7328 75.7056 16.7328C75.3917 16.7328 75.117 16.8505 74.8816 17.0859C74.6462 17.3213 74.4186 17.6823 74.1989 18.1688V26.2432H72.0803V18.2629C72.0803 17.2428 71.7507 16.7328 71.0915 16.7328C70.7776 16.7328 70.5109 16.8505 70.2912 17.0859C70.0715 17.3213 69.8517 17.6823 69.632 18.1688V26.2432H67.0662L67.0661 14.6848ZM81.5199 20.4758C81.5199 19.5341 81.6848 18.6867 82.0143 17.9334C82.3596 17.1801 82.8069 16.5445 83.3562 16.0266C83.9054 15.493 84.5331 15.0928 85.2394 14.826C85.9613 14.5435 86.6989 14.4023 87.4523 14.4023C88.3154 14.4023 89.0765 14.5435 89.7356 14.826C90.4104 15.0928 90.9754 15.4695 91.4305 15.956C91.8856 16.4268 92.2309 16.9996 92.4663 17.6744C92.7017 18.3492 92.8194 19.0869 92.8194 19.8873C92.8194 20.1541 92.8038 20.3973 92.7726 20.617C92.7566 20.8367 92.733 21.0172 92.7017 21.1585H84.2978C84.4233 22.2099 84.8392 23.0182 85.5454 23.5831C86.2516 24.1481 87.1304 24.4306 88.1819 24.4306C88.7783 24.4306 89.3355 24.3521 89.8534 24.1952C90.3713 24.0226 90.8969 23.7871 91.4305 23.489L92.3486 25.1839C91.7209 25.5762 91.0225 25.898 90.2535 26.1491C89.4845 26.4002 88.6763 26.5257 87.8288 26.5257C86.95 26.5257 86.126 26.3923 85.3571 26.1255C84.588 25.843 83.9211 25.4428 83.3562 24.9249C82.7912 24.407 82.3439 23.7793 82.0143 23.0417C81.6848 22.2884 81.5199 21.4331 81.5199 20.4758ZM90.3241 19.4399C90.3241 18.514 90.0888 17.7921 89.618 17.2742C89.1471 16.7563 88.4487 16.4974 87.5228 16.4974C87.1304 16.4974 86.7538 16.5602 86.3928 16.6857C86.0319 16.8113 85.7024 16.9996 85.4042 17.2507C85.1216 17.5018 84.8784 17.8078 84.6744 18.1688C84.4704 18.5297 84.337 18.9534 84.2742 19.4399H90.3241Z" fill="#F9F9F9"/>
</svg>
