<svg width="92" height="19" viewBox="0 0 92 19" fill="none" xmlns="http://www.w3.org/2000/svg">
<path d="M3.06688 9.46502H5.44635C6.6449 9.46502 7.55262 9.21826 8.16953 8.72474C8.80405 8.23122 9.12132 7.49094 9.12132 6.50389C9.12132 5.49923 8.80405 4.80301 8.16953 4.41525C7.55262 4.02748 6.6449 3.8336 5.44635 3.8336H3.06688V9.46502ZM9.35925 18.6656L5.65785 11.8974H3.06688V18.6656H0V1.37481H5.76361C6.66252 1.37481 7.49974 1.46294 8.27527 1.63919C9.0508 1.81545 9.72059 2.10627 10.2846 2.51167C10.8663 2.89943 11.3157 3.41939 11.633 4.07154C11.9679 4.7237 12.1353 5.53448 12.1353 6.50389C12.1353 7.82582 11.8181 8.89218 11.1835 9.70297C10.5666 10.5138 9.73822 11.0954 8.6983 11.4479L12.8227 18.6656H9.35925ZM15.2815 12.1882C15.2815 11.1307 15.4666 10.1789 15.8367 9.33282C16.2245 8.48679 16.7268 7.77295 17.3437 7.1913C17.9606 6.59202 18.6657 6.14257 19.4588 5.84293C20.2696 5.52567 21.098 5.36703 21.944 5.36703C22.9135 5.36703 23.7683 5.52567 24.5086 5.84293C25.2665 6.14257 25.901 6.56559 26.4122 7.11198C26.9233 7.64076 27.3111 8.2841 27.5755 9.042C27.8399 9.79991 27.972 10.6283 27.972 11.5272C27.972 11.8269 27.9544 12.1001 27.9191 12.3468C27.9015 12.5936 27.8751 12.7963 27.8398 12.9549H18.4013C18.5423 14.1358 19.0094 15.0436 19.8025 15.6781C20.5957 16.3126 21.5827 16.6299 22.7636 16.6299C23.4334 16.6299 24.0591 16.5417 24.6408 16.3655C25.2224 16.1716 25.8129 15.9072 26.4122 15.5723L27.4433 17.4759C26.7382 17.9166 25.9539 18.2779 25.0902 18.5599C24.2266 18.8419 23.3188 18.9829 22.3671 18.9829C21.38 18.9829 20.4547 18.8331 19.591 18.5335C18.7273 18.2162 17.9782 17.7667 17.3437 17.1851C16.7092 16.6034 16.2069 15.8984 15.8367 15.07C15.4666 14.224 15.2815 13.2634 15.2815 12.1882ZM25.1696 11.0249C25.1696 9.98498 24.9052 9.17419 24.3764 8.59254C23.8476 8.0109 23.0633 7.72007 22.0234 7.72007C21.5827 7.72007 21.1597 7.79057 20.7543 7.93158C20.3489 8.07259 19.9788 8.2841 19.6439 8.56611C19.3266 8.84812 19.0534 9.19182 18.8243 9.59721C18.5951 10.0026 18.4453 10.4785 18.3748 11.0249H25.1696ZM31.3826 15.1758C31.3826 14.4531 31.5501 13.8186 31.885 13.2722C32.2199 12.7082 32.7486 12.2323 33.4713 11.8445C34.1939 11.4567 35.1193 11.1395 36.2473 10.8927C37.3754 10.6459 38.7414 10.4697 40.3453 10.3639C40.2925 9.62365 40.0281 9.01556 39.5522 8.53967C39.0763 8.06377 38.3095 7.82583 37.252 7.82583C36.5117 7.82583 35.7803 7.96683 35.0576 8.24884C34.3526 8.51323 33.6652 8.83049 32.9954 9.20063L31.885 7.16486C32.6781 6.70659 33.5859 6.29239 34.6081 5.92225C35.6304 5.55211 36.6968 5.36704 37.8072 5.36704C39.6227 5.36704 41.0063 5.85174 41.9581 6.82116C42.9098 7.77295 43.3858 9.15657 43.3858 10.972V18.6657H40.9005L40.6626 17.0529H40.5833C39.8959 17.5817 39.1292 18.0399 38.2831 18.4277C37.4547 18.7978 36.5999 18.9829 35.7186 18.9829C35.0841 18.9829 34.5024 18.886 33.9736 18.6921C33.4449 18.5158 32.9866 18.2603 32.5988 17.9254C32.211 17.5905 31.9114 17.1939 31.6999 16.7356C31.4884 16.2597 31.3826 15.7398 31.3826 15.1758ZM34.3173 14.9378C34.3173 15.5195 34.5376 15.9425 34.9783 16.2069C35.4366 16.4712 35.9918 16.6034 36.6439 16.6034C37.2961 16.6034 37.9218 16.4624 38.5211 16.1804C39.138 15.8808 39.746 15.493 40.3453 15.0171V12.2675C39.182 12.3556 38.2126 12.479 37.4371 12.6377C36.6615 12.7787 36.0446 12.9637 35.5864 13.1929C35.1281 13.422 34.802 13.6864 34.6081 13.986C34.4143 14.268 34.3173 14.5853 34.3173 14.9378ZM46.7699 12.1882C46.7699 11.1307 46.9285 10.1789 47.2458 9.33283C47.5631 8.48679 47.9861 7.77295 48.5148 7.1913C49.0613 6.60965 49.6782 6.1602 50.3656 5.84293C51.053 5.52567 51.7668 5.36704 52.5071 5.36704C53.2826 5.36704 53.9436 5.50804 54.49 5.79005C55.054 6.05444 55.6004 6.42458 56.1292 6.90047L55.997 4.70607V0H59.0639V18.6657H56.5522L56.3143 17.1586H56.2349C55.7238 17.6698 55.1245 18.1016 54.4371 18.4541C53.7673 18.8067 53.0623 18.9829 52.322 18.9829C51.4936 18.9829 50.7357 18.8331 50.0483 18.5335C49.3609 18.2162 48.7704 17.7667 48.2769 17.1851C47.801 16.6034 47.4309 15.8984 47.1665 15.07C46.9021 14.224 46.7699 13.2634 46.7699 12.1882ZM49.9161 12.1618C49.9161 13.5718 50.1893 14.647 50.7357 15.3873C51.2821 16.1099 52.0576 16.4712 53.0623 16.4712C54.1375 16.4712 55.1157 15.9513 55.997 14.9114V9.06844C55.5387 8.6278 55.0804 8.31935 54.6222 8.14309C54.1639 7.96683 53.6968 7.8787 53.2209 7.8787C52.7627 7.8787 52.3308 7.97565 51.9254 8.16953C51.5377 8.36341 51.194 8.64542 50.8943 9.01556C50.5947 9.36808 50.3568 9.80872 50.1805 10.3375C50.0042 10.8663 49.9161 11.4744 49.9161 12.1618ZM62.5009 5.6843H64.801L65.039 7.34993H65.1183C65.4179 6.78591 65.7793 6.31883 66.2023 5.94868C66.6429 5.56092 67.2334 5.36703 67.9737 5.36703C69.2427 5.36703 70.0359 6.08969 70.3531 7.535C70.6528 6.9181 71.0317 6.40696 71.49 6.00156C71.9659 5.57855 72.5652 5.36703 73.2879 5.36703C74.2044 5.36703 74.9094 5.72836 75.403 6.45102C75.9141 7.15605 76.1697 8.16072 76.1697 9.46502V18.6657H73.2879V9.70297C73.2879 8.5573 72.9265 7.98446 72.2038 7.98446C71.8513 7.98446 71.5429 8.11665 71.2785 8.38104C71.0141 8.64542 70.7585 9.05082 70.5118 9.59721V18.6657H68.1323V9.70297C68.1323 8.5573 67.7621 7.98446 67.0219 7.98446C66.6693 7.98446 66.3697 8.11665 66.123 8.38104C65.8762 8.64542 65.6294 9.05082 65.3827 9.59721V18.6657H62.5009L62.5009 5.6843ZM78.7341 12.1882C78.7341 11.1307 78.9192 10.1789 79.2894 9.33282C79.6772 8.48679 80.1795 7.77295 80.7963 7.1913C81.4133 6.59202 82.1183 6.14257 82.9115 5.84293C83.7223 5.52567 84.5507 5.36703 85.3967 5.36703C86.3661 5.36703 87.221 5.52567 87.9613 5.84293C88.7192 6.14257 89.3537 6.56559 89.8649 7.11198C90.376 7.64076 90.7638 8.2841 91.0282 9.042C91.2925 9.79991 91.4248 10.6283 91.4248 11.5272C91.4248 11.8269 91.4071 12.1001 91.3717 12.3468C91.3544 12.5936 91.3281 12.7963 91.2927 12.9549H81.8541C81.9951 14.1358 82.4622 15.0436 83.2554 15.6781C84.0486 16.3126 85.0356 16.6299 86.2164 16.6299C86.8863 16.6299 87.512 16.5417 88.0936 16.3655C88.6753 16.1716 89.2658 15.9072 89.8651 15.5723L90.8962 17.4759C90.1911 17.9166 89.4067 18.2779 88.543 18.5599C87.6794 18.8419 86.7718 18.9829 85.82 18.9829C84.8329 18.9829 83.9075 18.8331 83.0439 18.5335C82.1802 18.2162 81.4311 17.7667 80.7966 17.1851C80.162 16.6034 79.6597 15.8984 79.2896 15.07C78.9194 14.224 78.7341 13.2634 78.7341 12.1882ZM88.6223 11.0249C88.6223 9.98498 88.3579 9.17419 87.8291 8.59254C87.3003 8.0109 86.5159 7.72007 85.4761 7.72007C85.0354 7.72007 84.6124 7.79057 84.207 7.93158C83.8016 8.07259 83.4314 8.2841 83.0965 8.56611C82.7793 8.84812 82.5061 9.19182 82.277 9.59721C82.0478 10.0026 81.898 10.4785 81.8275 11.0249H88.6223Z" fill="#161616"/>
</svg>
