<svg width="524" height="98" viewBox="0 0 524 98" fill="none" xmlns="http://www.w3.org/2000/svg">
<path d="M40.984 50.688H34.2V93.568H42.52V96H0.92V93.568H9.24V8.83199H0.92V6.39999H39.576C50.6693 6.39999 58.52 6.99733 63.128 8.19199C67.8213 9.30133 71.1067 10.6667 72.984 12.288C77.08 15.616 79.128 20.9067 79.128 28.16C79.128 35.4133 77.336 40.6187 73.752 43.776C70.168 46.848 64.7067 48.6827 57.368 49.28V49.664C64.28 50.6027 69.1013 52.6507 71.832 55.808C74.5627 58.9653 75.928 64.256 75.928 71.68V78.464C75.928 82.9013 76.1413 85.888 76.568 87.424C77.08 88.96 78.104 89.728 79.64 89.728C81.176 89.728 82.3707 89.0453 83.224 87.68C84.1627 86.2293 85.016 83.2427 85.784 78.72L87.96 78.976C87.0213 86.2293 85.3573 91.0933 82.968 93.568C80.664 96.0427 76.0133 97.28 69.016 97.28C62.0187 97.28 57.0267 95.6587 54.04 92.416C51.1387 89.088 49.688 82.9013 49.688 73.856V64.512C49.688 59.7333 49.048 56.2347 47.768 54.016C46.5733 51.7973 44.312 50.688 40.984 50.688ZM34.2 8.83199V48.256H38.296C43.16 48.256 46.744 46.7627 49.048 43.776C51.4373 40.7893 52.632 35.9253 52.632 29.184V25.472C52.632 18.7307 51.48 14.2933 49.176 12.16C46.9573 9.94133 43.3733 8.83199 38.424 8.83199H34.2ZM124.319 97.28C113.311 97.28 105.034 94.464 99.487 88.832C94.0257 83.1147 91.295 75.2213 91.295 65.152C91.295 54.9973 94.367 47.232 100.511 41.856C106.74 36.48 114.634 33.792 124.191 33.792C143.562 33.792 152.863 43.52 152.095 62.976H115.999V67.968C115.999 76.3307 117.066 82.6453 119.199 86.912C121.332 91.1787 125.044 93.312 130.335 93.312C140.234 93.312 146.719 88.0213 149.791 77.44L152.095 77.824C150.474 83.968 147.53 88.7467 143.263 92.16C139.082 95.5733 132.767 97.28 124.319 97.28ZM116.127 60.416H129.311V54.144C129.311 47.232 128.884 42.5387 128.031 40.064C127.263 37.504 125.642 36.224 123.167 36.224C120.778 36.224 118.986 37.5893 117.791 40.32C116.682 42.9653 116.127 47.5733 116.127 54.144V60.416ZM187.375 65.92H191.087V56.064C191.087 47.9573 190.618 42.5387 189.679 39.808C188.826 36.992 187.119 35.584 184.559 35.584C183.023 35.584 181.615 36.0107 180.335 36.864C179.14 37.632 178.543 38.7413 178.543 40.192C178.543 41.5573 178.799 42.9653 179.311 44.416H182.511C183.194 46.208 183.535 48.384 183.535 50.944C183.535 53.4187 182.468 55.5947 180.335 57.472C178.202 59.264 175.514 60.16 172.271 60.16C164.932 60.16 161.263 56.6187 161.263 49.536C161.263 39.04 170.18 33.792 188.015 33.792C198.17 33.792 205.167 35.5413 209.007 39.04C212.932 42.4533 214.895 48.768 214.895 57.984V83.968C214.895 88.4053 216.132 90.624 218.607 90.624C221.508 90.624 223.215 86.2293 223.727 77.44L225.647 77.568C225.306 85.0773 223.898 90.24 221.423 93.056C218.948 95.872 214.895 97.28 209.263 97.28C199.023 97.28 193.135 94.1227 191.599 87.808C190.49 91.0507 188.826 93.44 186.607 94.976C184.388 96.512 181.146 97.28 176.879 97.28C164.25 97.28 157.935 92.1173 157.935 81.792C157.935 75.7333 160.324 71.5947 165.103 69.376C169.967 67.072 177.391 65.92 187.375 65.92ZM182.255 81.664C182.255 86.1013 182.468 88.96 182.895 90.24C183.407 91.52 184.303 92.16 185.583 92.16C186.948 92.16 188.186 91.0933 189.295 88.96C190.49 86.7413 191.087 83.712 191.087 79.872V67.968H190.191C184.9 67.968 182.255 71.8507 182.255 79.616V81.664ZM252.889 69.504C252.889 78.464 253.358 84.4373 254.297 87.424C255.236 90.3253 256.942 91.776 259.417 91.776C261.977 91.776 264.153 90.6667 265.945 88.448C267.822 86.2293 268.761 82.944 268.761 78.592V50.688C268.761 47.0187 268.036 43.904 266.585 41.344C265.134 38.784 263.001 37.504 260.185 37.504C257.369 37.504 255.449 39.3813 254.425 43.136C253.401 46.8907 252.889 53.4613 252.889 62.848V69.504ZM270.425 96L269.017 87.04C266.116 93.8667 260.228 97.28 251.353 97.28C244.014 97.28 238.297 94.6347 234.201 89.344C230.19 84.0533 228.185 76.16 228.185 65.664C228.185 44.416 236.633 33.792 253.529 33.792C261.038 33.792 265.988 35.8827 268.377 40.064V2.30399H260.569V-7.62939e-06H292.569V93.696H298.841V96H270.425ZM307.275 60.416V56.576H339.531V60.416H307.275ZM347.155 35.072H378.003V46.848C380.819 38.144 387.006 33.792 396.563 33.792C406.206 33.792 412.051 38.4 414.099 47.616C417.086 38.4 423.358 33.792 432.915 33.792C445.459 33.792 451.731 40.9173 451.731 55.168V93.696H458.899V96H423.443V93.696H427.923V52.096C427.923 45.6107 427.368 41.8133 426.259 40.704C425.747 40.192 425.064 39.936 424.211 39.936C421.736 39.936 419.56 41.6 417.683 44.928C415.806 48.256 414.867 52.48 414.867 57.6V93.696H419.475V96H386.579V93.696H391.059V52.096C391.059 45.6107 390.504 41.8133 389.395 40.704C388.883 40.192 388.2 39.936 387.347 39.936C384.958 39.936 382.782 41.7707 380.819 45.44C378.942 49.024 378.003 53.3333 378.003 58.368V93.696H382.611V96H347.155V93.696H354.195V37.376H347.155V35.072ZM494.444 97.28C483.436 97.28 475.159 94.464 469.612 88.832C464.151 83.1147 461.42 75.2213 461.42 65.152C461.42 54.9973 464.492 47.232 470.636 41.856C476.865 36.48 484.759 33.792 494.316 33.792C513.687 33.792 522.988 43.52 522.22 62.976H486.124V67.968C486.124 76.3307 487.191 82.6453 489.324 86.912C491.457 91.1787 495.169 93.312 500.46 93.312C510.359 93.312 516.844 88.0213 519.916 77.44L522.22 77.824C520.599 83.968 517.655 88.7467 513.388 92.16C509.207 95.5733 502.892 97.28 494.444 97.28ZM486.252 60.416H499.436V54.144C499.436 47.232 499.009 42.5387 498.156 40.064C497.388 37.504 495.767 36.224 493.292 36.224C490.903 36.224 489.111 37.5893 487.916 40.32C486.807 42.9653 486.252 47.5733 486.252 54.144V60.416Z" fill="url(#paint0_linear_51_39)"/>
<defs>
<linearGradient id="paint0_linear_51_39" x1="25.9323" y1="46" x2="692.118" y2="150.621" gradientUnits="userSpaceOnUse">
<stop/>
<stop offset="1" stop-color="#4A4949"/>
</linearGradient>
</defs>
</svg>
