<svg width="113" height="40" viewBox="0 0 113 40" fill="none" xmlns="http://www.w3.org/2000/svg">
<path d="M92.9764 0H19.7921C8.8612 0 0 8.86126 0 19.7922C0 30.7231 8.8612 39.5844 19.7921 39.5844H92.9764C103.907 39.5844 112.769 30.7231 112.769 19.7922C112.769 8.86126 103.907 0 92.9764 0Z" fill="#161616"/>
<path d="M13.464 19.7656H15.8588C17.0651 19.7656 17.9787 19.5172 18.5996 19.0205C19.2382 18.5238 19.5575 17.7787 19.5575 16.7853C19.5575 15.7742 19.2382 15.0735 18.5996 14.6832C17.9787 14.293 17.0651 14.0978 15.8588 14.0978H13.464V19.7656ZM19.797 29.0255L16.0717 22.2136H13.464V29.0255H10.3774V11.6232H16.1781C17.0828 11.6232 17.9254 11.7119 18.7059 11.8893C19.4865 12.0667 20.1606 12.3594 20.7283 12.7674C21.3137 13.1577 21.7661 13.681 22.0853 14.3373C22.4224 14.9937 22.5908 15.8097 22.5908 16.7853C22.5908 18.1158 22.2715 19.189 21.6329 20.005C21.0121 20.821 20.1784 21.4064 19.1317 21.7612L23.2828 29.0255H19.797ZM25.7573 22.5063C25.7573 21.4419 25.9436 20.484 26.3162 19.6325C26.7064 18.781 27.212 18.0626 27.8329 17.4772C28.4538 16.874 29.1633 16.4217 29.9615 16.1201C30.7775 15.8008 31.6114 15.6411 32.4629 15.6411C33.4386 15.6411 34.2988 15.8008 35.0438 16.1201C35.8066 16.4217 36.4454 16.8474 36.9598 17.3973C37.4742 17.9295 37.8645 18.577 38.1306 19.3398C38.3967 20.1026 38.5297 20.9364 38.5297 21.8411C38.5297 22.1426 38.512 22.4176 38.4767 22.6659C38.4587 22.9143 38.4321 23.1183 38.3967 23.2779H28.8973C29.0392 24.4665 29.5092 25.3801 30.3075 26.0187C31.1058 26.6573 32.0992 26.9766 33.2877 26.9766C33.9619 26.9766 34.5916 26.8879 35.177 26.7105C35.7624 26.5154 36.3567 26.2493 36.9598 25.9122L37.9974 27.8281C37.2879 28.2716 36.4985 28.6352 35.6293 28.919C34.7601 29.2029 33.8465 29.3448 32.8885 29.3448C31.8951 29.3448 30.9639 29.194 30.0947 28.8924C29.2255 28.5731 28.4715 28.1208 27.8329 27.5354C27.1943 26.95 26.6887 26.2404 26.3162 25.4066C25.9436 24.5552 25.7573 23.5884 25.7573 22.5063ZM35.7092 21.3355C35.7092 20.2889 35.4431 19.4729 34.9109 18.8875C34.3787 18.3021 33.5893 18.0094 32.5427 18.0094C32.0993 18.0094 31.6735 18.0803 31.2655 18.2222C30.8575 18.3641 30.4849 18.577 30.1478 18.8608C29.8285 19.1447 29.5536 19.4906 29.323 19.8986C29.0924 20.3066 28.9417 20.7856 28.8707 21.3355H35.7092ZM41.9623 25.5131C41.9623 24.7858 42.1308 24.1472 42.4679 23.5973C42.8049 23.0296 43.337 22.5506 44.0643 22.1604C44.7917 21.7701 45.723 21.4508 46.8583 21.2024C47.9936 20.9541 49.3684 20.7767 50.9827 20.6703C50.9293 19.9252 50.6632 19.3132 50.1844 18.8342C49.7054 18.3553 48.9338 18.1158 47.8695 18.1158C47.1244 18.1158 46.3882 18.2577 45.6609 18.5415C44.9514 18.8076 44.2595 19.1269 43.5853 19.4995L42.4679 17.4506C43.2662 16.9893 44.1798 16.5725 45.2086 16.2C46.2375 15.8274 47.3106 15.6411 48.4282 15.6411C50.2554 15.6411 51.6479 16.129 52.6058 17.1046C53.5638 18.0626 54.0427 19.4551 54.0427 21.2823V29.0255H51.5415L51.302 27.4023H51.2219C50.5301 27.9345 49.7585 28.3957 48.907 28.786C48.0732 29.1585 47.2129 29.3448 46.3259 29.3448C45.6873 29.3448 45.102 29.2472 44.5698 29.0521C44.0376 28.8747 43.5763 28.6175 43.186 28.2804C42.7958 27.9434 42.4942 27.5443 42.2814 27.083C42.0685 26.6041 41.9623 26.0808 41.9623 25.5131ZM44.9159 25.2736C44.9159 25.859 45.1376 26.2848 45.5811 26.5508C46.0423 26.8169 46.601 26.95 47.2574 26.95C47.9138 26.95 48.5436 26.8081 49.1467 26.5242C49.7676 26.2227 50.3795 25.8324 50.9827 25.3535V22.5861C49.8119 22.6748 48.8362 22.799 48.0557 22.9586C47.2752 23.1006 46.6544 23.2868 46.1931 23.5174C45.7319 23.748 45.4038 24.0141 45.2086 24.3157C45.0135 24.5995 44.9159 24.9188 44.9159 25.2736ZM57.4487 22.5063C57.4487 21.4419 57.6084 20.484 57.9277 19.6325C58.2471 18.781 58.6727 18.0626 59.2048 17.4772C59.7548 16.8918 60.3758 16.4394 61.0676 16.1201C61.7594 15.8008 62.4778 15.6411 63.2229 15.6411C64.0034 15.6411 64.6687 15.7831 65.2186 16.0669C65.7863 16.333 66.3362 16.7055 66.8683 17.1845L66.7352 14.9759V10.2395H69.8219V29.0255H67.2941L67.0546 27.5088H66.9746C66.4601 28.0232 65.8569 28.4578 65.165 28.8126C64.491 29.1674 63.7814 29.3448 63.0364 29.3448C62.2026 29.3448 61.4398 29.194 60.748 28.8924C60.0562 28.5731 59.462 28.1208 58.9653 27.5354C58.4863 26.95 58.1137 26.2404 57.8477 25.4066C57.5815 24.5552 57.4487 23.5884 57.4487 22.5063ZM60.6152 22.4797C60.6152 23.8988 60.8901 24.9809 61.4401 25.726C61.99 26.4533 62.7706 26.817 63.7817 26.817C64.8638 26.817 65.8482 26.2936 66.7352 25.247V19.3664C66.274 18.9229 65.8128 18.6125 65.3516 18.4351C64.8904 18.2577 64.4203 18.169 63.9413 18.169C63.4801 18.169 63.0455 18.2666 62.6375 18.4617C62.2472 18.6568 61.9013 18.9407 61.5997 19.3132C61.2982 19.668 61.0586 20.1115 60.8812 20.6436C60.7038 21.1758 60.6152 21.7878 60.6152 22.4797ZM73.2811 15.9605H75.5961L75.8356 17.6368H75.9155C76.2171 17.0692 76.5808 16.5991 77.0066 16.2266C77.4501 15.8363 78.0444 15.6412 78.7894 15.6412C80.0666 15.6412 80.8649 16.3685 81.1842 17.8231C81.4857 17.2022 81.8671 16.6878 82.3284 16.2798C82.8073 15.854 83.4105 15.6412 84.1378 15.6412C85.0602 15.6412 85.7697 16.0048 86.2665 16.7321C86.7809 17.4417 87.0382 18.4529 87.0382 19.7656V29.0255H84.1378V20.005C84.1378 18.852 83.7741 18.2755 83.0468 18.2755C82.692 18.2755 82.3815 18.4085 82.1155 18.6746C81.8494 18.9407 81.5922 19.3487 81.3438 19.8986V29.0255H78.949V20.005C78.949 18.852 78.5765 18.2755 77.8314 18.2755C77.4767 18.2755 77.175 18.4085 76.9266 18.6746C76.6783 18.9407 76.43 19.3487 76.1816 19.8986V29.0255H73.2812L73.2811 15.9605ZM89.619 22.5063C89.619 21.4419 89.8052 20.484 90.1777 19.6325C90.568 18.781 91.0736 18.0626 91.6945 17.4772C92.3154 16.874 93.025 16.4217 93.8232 16.1201C94.6392 15.8008 95.473 15.6412 96.3245 15.6412C97.3001 15.6412 98.1606 15.8008 98.9056 16.1201C99.6684 16.4217 100.307 16.8475 100.821 17.3974C101.336 17.9295 101.726 18.577 101.992 19.3398C102.258 20.1026 102.391 20.9364 102.391 21.8411C102.391 22.1426 102.374 22.4176 102.338 22.666C102.32 22.9143 102.294 23.1183 102.258 23.278H92.759C92.901 24.4665 93.371 25.3801 94.1693 26.0187C94.9676 26.6573 95.961 26.9766 97.1495 26.9766C97.8236 26.9766 98.4533 26.8879 99.0387 26.7105C99.6241 26.5154 100.218 26.2493 100.822 25.9122L101.859 27.8281C101.15 28.2716 100.36 28.6352 99.4911 28.9191C98.6218 29.2029 97.7082 29.3448 96.7504 29.3448C95.7569 29.3448 94.8256 29.194 93.9564 28.8925C93.0872 28.5731 92.3332 28.1208 91.6946 27.5354C91.056 26.95 90.5504 26.2404 90.1779 25.4067C89.8053 24.5552 89.619 23.5884 89.619 22.5063ZM99.5708 21.3355C99.5708 20.2889 99.3047 19.4729 98.7725 18.8875C98.2403 18.3021 97.451 18.0094 96.4043 18.0094C95.9608 18.0094 95.5351 18.0803 95.1271 18.2222C94.7191 18.3641 94.3466 18.577 94.0095 18.8608C93.6903 19.1447 93.4152 19.4906 93.1846 19.8986C92.954 20.3066 92.8032 20.7856 92.7323 21.3355H99.5708Z" fill="#F9F9F9"/>
</svg>
