<svg width="3271" height="1112" viewBox="0 0 3271 1112" fill="none" xmlns="http://www.w3.org/2000/svg">
<path opacity="0.60119" d="M3270.37 0H0V1111.85H3270.37V0Z" fill="url(#paint0_radial_2_323)"/>
<g filter="url(#filter0_f_2_323)">
<g filter="url(#filter1_f_2_323)">
<path d="M1183.7 537.605C1187.94 537.605 1190.63 536.825 1191.76 535.264C1192.97 533.704 1193.58 531.061 1193.58 527.333V502.11H1185.26V499.249H1222.7V502.11H1217.63V538.775H1215.68C1214.12 536.608 1211.91 535.525 1209.05 535.525C1207.84 535.525 1204.2 536.305 1198.13 537.865C1192.15 539.425 1187.03 540.205 1182.79 540.205C1168.66 540.205 1157.69 536.391 1149.89 528.764C1142.18 521.136 1138.32 509.694 1138.32 494.439C1138.32 479.096 1142.35 467.265 1150.41 458.944C1158.56 450.622 1169.48 446.462 1183.18 446.462C1188.46 446.462 1193.75 447.155 1199.04 448.542C1204.41 449.842 1207.53 450.492 1208.4 450.492C1209.27 450.492 1209.92 450.319 1210.35 449.972C1210.78 449.539 1211.26 448.845 1211.78 447.892H1213.21L1214.25 476.106H1211.91C1207.66 467.698 1203.37 461.11 1199.04 456.343C1194.79 451.489 1190.02 449.062 1184.74 449.062C1171.47 449.062 1164.84 462.021 1164.84 487.938V498.209C1164.84 511.211 1166.45 521.049 1169.65 527.723C1172.95 534.311 1177.63 537.605 1183.7 537.605ZM1271.72 480.657C1268.51 480.657 1265.69 482.737 1263.27 486.898C1260.84 491.058 1259.63 495.999 1259.63 501.72V536.565H1268.86V538.905H1228.29V536.565H1235.44V479.356H1228.29V477.016H1259.63V489.498C1260.75 485.077 1262.92 481.697 1266.13 479.356C1269.33 476.929 1272.98 475.716 1277.05 475.716C1281.12 475.716 1284.42 476.886 1286.93 479.227C1289.53 481.48 1290.83 484.731 1290.83 488.978C1290.83 493.138 1289.88 496.346 1287.97 498.599C1286.06 500.853 1283.12 501.98 1279.13 501.98C1275.23 501.98 1272.33 500.68 1270.42 498.079C1268.6 495.479 1268.38 491.882 1269.77 487.288H1274.45C1276.62 482.867 1275.71 480.657 1271.72 480.657ZM1334 513.291V502.24C1334 493.832 1333.52 487.721 1332.57 483.907C1331.7 480.007 1329.62 478.056 1326.33 478.056C1324.42 478.056 1322.86 478.62 1321.65 479.747C1320.52 480.787 1319.7 482.564 1319.18 485.077C1318.4 488.978 1318.01 494.915 1318.01 502.89V513.031C1318.01 522.479 1318.27 528.157 1318.79 530.064C1319.39 531.971 1320 533.531 1320.61 534.744C1321.56 536.825 1323.42 537.865 1326.2 537.865C1329.58 537.865 1331.79 535.915 1332.83 532.014C1333.61 529.24 1334 522.999 1334 513.291ZM1325.94 540.205C1315.1 540.205 1306.91 537.431 1301.36 531.884C1295.82 526.337 1293.04 518.405 1293.04 508.091C1293.04 497.689 1295.99 489.715 1301.88 484.167C1307.86 478.533 1316.23 475.716 1326.98 475.716C1337.72 475.716 1345.74 478.316 1351.03 483.517C1356.32 488.631 1358.96 496.476 1358.96 507.05C1358.96 529.154 1347.95 540.205 1325.94 540.205ZM1438.66 538.905H1409.02L1407.59 529.414C1406.2 532.881 1404.12 535.568 1401.35 537.475C1398.66 539.295 1394.63 540.205 1389.26 540.205C1375.82 540.205 1369.1 532.968 1369.1 518.492V479.356H1361.82V477.016H1393.29V521.613C1393.29 526.813 1393.63 530.237 1394.33 531.884C1395.11 533.531 1396.58 534.354 1398.75 534.354C1401 534.354 1402.99 533.011 1404.73 530.324C1406.46 527.637 1407.33 523.91 1407.33 519.142V479.356H1401.35V477.016H1431.51V536.565H1438.66V538.905ZM1488.72 503.93C1488.72 495.002 1488.29 489.021 1487.42 485.987C1486.55 482.867 1484.86 481.307 1482.35 481.307C1479.83 481.307 1477.58 482.954 1475.59 486.247C1473.59 489.455 1472.6 493.789 1472.6 499.249V523.043C1472.6 526.77 1473.33 529.934 1474.81 532.534C1476.28 535.134 1478.45 536.435 1481.31 536.435C1484.17 536.435 1486.12 534.528 1487.16 530.714C1488.2 526.9 1488.72 520.226 1488.72 510.691V503.93ZM1472.34 477.016V487.288C1475.72 479.573 1481.7 475.716 1490.28 475.716C1497.73 475.716 1503.5 478.403 1507.57 483.777C1511.73 489.151 1513.81 497.299 1513.81 508.221C1513.81 519.142 1511.56 527.203 1507.05 532.404C1502.63 537.605 1495.96 540.205 1487.03 540.205C1482.87 540.205 1479.75 539.685 1477.67 538.645C1475.59 537.605 1473.9 536.001 1472.6 533.834V567.509H1489.37V569.849H1441.26V567.509H1448.41V479.356H1441.52V477.016H1472.34ZM1536.83 468.045C1532.23 468.045 1528.94 466.875 1526.94 464.534C1525.04 462.194 1524.08 459.29 1524.08 455.823C1524.08 452.356 1525.12 449.496 1527.2 447.242C1529.37 444.988 1532.62 443.861 1536.96 443.861C1541.29 443.861 1544.58 444.902 1546.84 446.982C1549.09 448.976 1550.22 451.879 1550.22 455.693C1550.22 459.42 1549.13 462.411 1546.97 464.664C1544.8 466.918 1541.42 468.045 1536.83 468.045ZM1517.19 477.016H1549.05V536.565H1556.33V538.905H1517.71V536.565H1524.86V479.356H1517.19V477.016ZM1593.12 540.205C1581.94 540.205 1573.53 537.345 1567.9 531.624C1562.35 525.816 1559.58 517.799 1559.58 507.571C1559.58 497.256 1562.7 489.368 1568.94 483.907C1575.27 478.446 1583.29 475.716 1592.99 475.716C1612.67 475.716 1622.12 485.597 1621.34 505.36H1584.67V510.431C1584.67 518.926 1585.76 525.34 1587.92 529.674C1590.09 534.008 1593.86 536.175 1599.24 536.175C1609.29 536.175 1615.88 530.801 1619 520.052L1621.34 520.442C1619.69 526.683 1616.7 531.537 1612.37 535.004C1608.12 538.472 1601.71 540.205 1593.12 540.205ZM1584.8 502.76H1598.2V496.389C1598.2 489.368 1597.76 484.601 1596.89 482.087C1596.11 479.486 1594.47 478.186 1591.95 478.186C1589.53 478.186 1587.71 479.573 1586.49 482.347C1585.37 485.034 1584.8 489.715 1584.8 496.389V502.76ZM1730.81 447.892L1732.11 480.527H1729.64C1725.83 468.998 1722.45 461.154 1719.5 456.993C1716.56 452.746 1712.31 450.622 1706.76 450.622H1705.2V536.175H1716.25V538.905H1668.8V536.175H1679.85V450.622H1678.16C1672.61 450.622 1668.32 452.833 1665.28 457.253C1662.25 461.587 1658.91 469.345 1655.27 480.527H1652.8L1654.1 447.892H1730.81ZM1779.05 480.657C1775.84 480.657 1773.03 482.737 1770.6 486.898C1768.17 491.058 1766.96 495.999 1766.96 501.72V536.565H1776.19V538.905H1735.62V536.565H1742.78V479.356H1735.62V477.016H1766.96V489.498C1768.09 485.077 1770.25 481.697 1773.46 479.356C1776.67 476.929 1780.31 475.716 1784.38 475.716C1788.46 475.716 1791.75 476.886 1794.26 479.227C1796.86 481.48 1798.16 484.731 1798.16 488.978C1798.16 493.138 1797.21 496.346 1795.3 498.599C1793.4 500.853 1790.45 501.98 1786.46 501.98C1782.56 501.98 1779.66 500.68 1777.75 498.079C1775.93 495.479 1775.71 491.882 1777.1 487.288H1781.78C1783.95 482.867 1783.04 480.657 1779.05 480.657ZM1829.24 508.351H1833.01V498.339C1833.01 490.105 1832.53 484.601 1831.58 481.827C1830.71 478.966 1828.98 477.536 1826.38 477.536C1824.82 477.536 1823.39 477.97 1822.09 478.836C1820.87 479.617 1820.27 480.743 1820.27 482.217C1820.27 483.604 1820.53 485.034 1821.05 486.508H1824.3C1824.99 488.328 1825.34 490.538 1825.34 493.139C1825.34 495.652 1824.25 497.862 1822.09 499.769C1819.92 501.59 1817.19 502.5 1813.9 502.5C1806.44 502.5 1802.71 498.903 1802.71 491.708C1802.71 481.047 1811.77 475.716 1829.89 475.716C1840.2 475.716 1847.31 477.493 1851.21 481.047C1855.2 484.514 1857.19 490.928 1857.19 500.289V526.683C1857.19 531.191 1858.45 533.444 1860.96 533.444C1863.91 533.444 1865.64 528.98 1866.16 520.052L1868.11 520.182C1867.77 527.81 1866.34 533.054 1863.82 535.915C1861.31 538.775 1857.19 540.205 1851.47 540.205C1841.07 540.205 1835.09 536.998 1833.53 530.584C1832.4 533.878 1830.71 536.305 1828.46 537.865C1826.2 539.425 1822.91 540.205 1818.58 540.205C1805.75 540.205 1799.33 534.961 1799.33 524.473C1799.33 518.319 1801.76 514.115 1806.62 511.861C1811.56 509.521 1819.1 508.351 1829.24 508.351ZM1824.04 524.343C1824.04 528.85 1824.25 531.754 1824.69 533.054C1825.21 534.354 1826.12 535.004 1827.42 535.004C1828.81 535.004 1830.06 533.921 1831.19 531.754C1832.4 529.5 1833.01 526.423 1833.01 522.523V510.431H1832.1C1826.72 510.431 1824.04 514.375 1824.04 522.263V524.343ZM1905.82 478.056C1902.01 478.056 1899.28 480.137 1897.63 484.297C1895.98 488.458 1895.16 495.349 1895.16 504.97V511.731C1895.16 520.312 1896.11 526.467 1898.02 530.194C1899.93 533.921 1903.44 535.785 1908.55 535.785C1913.66 535.785 1917.74 534.051 1920.77 530.584C1923.81 527.117 1925.76 523.173 1926.62 518.752L1928.96 519.012C1927.32 526.467 1924.28 531.841 1919.86 535.134C1915.35 538.515 1909.16 540.205 1901.27 540.205C1891.21 540.205 1883.5 537.518 1878.13 532.144C1872.75 526.683 1870.06 518.752 1870.06 508.351C1870.06 497.862 1873.1 489.801 1879.17 484.167C1885.32 478.533 1893.86 475.716 1904.78 475.716C1912.49 475.716 1918.39 477.233 1922.46 480.267C1926.54 483.214 1928.57 486.941 1928.57 491.448C1928.57 495.956 1927.58 499.249 1925.58 501.33C1923.68 503.41 1920.99 504.45 1917.52 504.45C1914.14 504.45 1911.41 503.54 1909.33 501.72C1907.25 499.899 1906.21 497.212 1906.21 493.659C1906.21 492.098 1906.43 490.538 1906.86 488.978H1911.15C1911.76 487.244 1912.06 485.684 1912.06 484.297C1912.06 480.137 1909.98 478.056 1905.82 478.056ZM2036.62 540.205C2025.44 540.205 2017.03 537.345 2011.39 531.624C2005.85 525.816 2003.07 517.799 2003.07 507.571C2003.07 497.256 2006.19 489.368 2012.43 483.907C2018.76 478.446 2026.78 475.716 2036.49 475.716C2056.16 475.716 2065.61 485.597 2064.83 505.36H2028.17V510.431C2028.17 518.926 2029.25 525.34 2031.42 529.674C2033.58 534.008 2037.35 536.175 2042.73 536.175C2052.78 536.175 2059.37 530.801 2062.49 520.052L2064.83 520.442C2063.19 526.683 2060.19 531.537 2055.86 535.004C2051.61 538.472 2045.2 540.205 2036.62 540.205ZM2028.3 502.76H2041.69V496.389C2041.69 489.368 2041.26 484.601 2040.39 482.087C2039.61 479.486 2037.96 478.186 2035.45 478.186C2033.02 478.186 2031.2 479.573 2029.99 482.347C2028.86 485.034 2028.3 489.715 2028.3 496.389V502.76ZM2112.94 480.657C2109.73 480.657 2106.92 482.737 2104.49 486.898C2102.06 491.058 2100.85 495.999 2100.85 501.72V536.565H2110.08V538.905H2069.51V536.565H2076.66V479.356H2069.51V477.016H2100.85V489.498C2101.97 485.077 2104.14 481.697 2107.35 479.356C2110.56 476.929 2114.2 475.716 2118.27 475.716C2122.34 475.716 2125.64 476.886 2128.15 479.227C2130.75 481.48 2132.05 484.731 2132.05 488.978C2132.05 493.138 2131.1 496.346 2129.19 498.599C2127.28 500.853 2124.34 501.98 2120.35 501.98C2116.45 501.98 2113.55 500.68 2111.64 498.079C2109.82 495.479 2109.6 491.882 2110.99 487.288H2115.67C2117.84 482.867 2116.93 480.657 2112.94 480.657Z" fill="url(#paint1_linear_2_323)"/>
<mask id="mask0_2_323" style="mask-type:luminance" maskUnits="userSpaceOnUse" x="910" y="0" width="1543" height="684">
<path d="M2439.91 0.00390625H922.428C915.631 0.00390625 910.121 5.51373 910.121 12.3104V671.585C910.121 678.381 915.631 683.891 922.428 683.891H2439.91C2446.71 683.891 2452.22 678.381 2452.22 671.585V12.3104C2452.22 5.51373 2446.71 0.00390625 2439.91 0.00390625Z" fill="white"/>
</mask>
<g mask="url(#mask0_2_323)">
<path d="M1974.52 497.577C1973.48 491.896 1972.98 485.718 1971.99 479.947C1980.74 471.154 1990.93 459.476 1992.01 440.853C1992.37 434.45 1991.07 429.084 1989.49 423.222C1988.4 419.164 1985.52 408.297 1981.19 410.056C1966.04 416.233 1962.48 446.129 1966.76 465.112C1956.3 475.889 1938.62 486.71 1935.96 507.633C1934.57 518.635 1938.08 528.329 1943.09 535.408C1949.54 544.562 1961.98 552.768 1977.76 549.161C1979.7 562.373 1984.62 581.807 1971.81 587.353C1967.12 589.382 1956.57 589.563 1955.53 583.52C1969.65 585.73 1969.6 565.935 1959.59 563.59C1951.29 561.606 1946.33 569.723 1945.97 575.088C1945.3 585.144 1954.81 592.403 1965.27 592.178C1976.5 591.952 1984.44 585.099 1984.12 570.94C1983.94 563.094 1981.64 557.007 1981.28 548.034C1990.34 543.705 1998.46 537.483 1999.54 525.128C2000.8 510.428 1991.61 496.63 1974.52 497.577ZM1977 428.453C1981.05 424.53 1987.91 424.936 1988.22 432.196C1988.54 439.23 1984.89 445.497 1981.51 450.367C1977.99 455.417 1974.29 459.791 1969.69 462.452C1967.12 451.449 1970.55 434.766 1977 428.453ZM1942.82 518.905C1943.36 509.571 1947.69 502.763 1952.29 497.262C1957.25 491.31 1963.24 486.755 1968.88 482.291C1969.87 487.342 1970.37 492.888 1971.04 498.254C1963.42 501.635 1954.81 507.633 1955.17 519.942C1955.31 524.181 1957.07 528.284 1959.46 531.486C1961.67 534.371 1965 537.934 1968.93 537.392C1968.75 535.003 1965.86 534.416 1964.42 532.974C1957.16 525.984 1962.61 511.555 1972.8 510.338C1974.2 522.287 1975.87 533.92 1977.36 545.779C1955.67 549.071 1941.78 535.544 1942.82 518.905ZM1980.6 544.607C1979.39 532.838 1977.36 521.746 1976.23 509.887C1980.6 510.428 1984.35 512.051 1986.96 514.486C1995.98 522.963 1992.24 541.541 1980.6 544.607Z" fill="url(#paint2_linear_2_323)"/>
</g>
</g>
</g>
<path d="M1183.7 537.601C1187.94 537.601 1190.63 536.821 1191.76 535.261C1192.97 533.7 1193.58 531.057 1193.58 527.329V502.106H1185.26V499.245H1222.7V502.106H1217.63V538.771H1215.68C1214.12 536.604 1211.91 535.521 1209.05 535.521C1207.84 535.521 1204.2 536.301 1198.13 537.861C1192.15 539.421 1187.03 540.201 1182.79 540.201C1168.66 540.201 1157.69 536.387 1149.89 528.76C1142.18 521.132 1138.32 509.69 1138.32 494.435C1138.32 479.093 1142.35 467.261 1150.41 458.94C1158.56 450.618 1169.48 446.458 1183.18 446.458C1188.46 446.458 1193.75 447.151 1199.04 448.538C1204.41 449.838 1207.53 450.488 1208.4 450.488C1209.27 450.488 1209.92 450.315 1210.35 449.968C1210.78 449.535 1211.26 448.842 1211.78 447.888H1213.21L1214.25 476.102H1211.91C1207.66 467.694 1203.37 461.107 1199.04 456.339C1194.79 451.485 1190.02 449.058 1184.74 449.058C1171.47 449.058 1164.84 462.017 1164.84 487.934V498.205C1164.84 511.207 1166.45 521.045 1169.65 527.719C1172.95 534.307 1177.63 537.601 1183.7 537.601ZM1271.72 480.653C1268.51 480.653 1265.69 482.733 1263.27 486.894C1260.84 491.054 1259.63 495.995 1259.63 501.716V536.561H1268.86V538.901H1228.29V536.561H1235.44V479.353H1228.29V477.012H1259.63V489.494C1260.75 485.073 1262.92 481.693 1266.13 479.353C1269.33 476.926 1272.98 475.712 1277.05 475.712C1281.12 475.712 1284.42 476.882 1286.93 479.223C1289.53 481.476 1290.83 484.727 1290.83 488.974C1290.83 493.135 1289.88 496.342 1287.97 498.595C1286.06 500.849 1283.12 501.976 1279.13 501.976C1275.23 501.976 1272.33 500.676 1270.42 498.075C1268.6 495.475 1268.38 491.878 1269.77 487.284H1274.45C1276.62 482.863 1275.71 480.653 1271.72 480.653ZM1334 513.287V502.236C1334 493.828 1333.52 487.717 1332.57 483.903C1331.7 480.003 1329.62 478.052 1326.33 478.052C1324.42 478.052 1322.86 478.616 1321.65 479.743C1320.52 480.783 1319.7 482.56 1319.18 485.073C1318.4 488.974 1318.01 494.911 1318.01 502.886V513.027C1318.01 522.475 1318.27 528.153 1318.79 530.06C1319.39 531.967 1320 533.527 1320.61 534.741C1321.56 536.821 1323.42 537.861 1326.2 537.861C1329.58 537.861 1331.79 535.911 1332.83 532.01C1333.61 529.236 1334 522.995 1334 513.287ZM1325.94 540.201C1315.1 540.201 1306.91 537.428 1301.36 531.88C1295.82 526.333 1293.04 518.401 1293.04 508.087C1293.04 497.685 1295.99 489.711 1301.88 484.163C1307.86 478.529 1316.23 475.712 1326.98 475.712C1337.72 475.712 1345.74 478.312 1351.03 483.513C1356.32 488.627 1358.96 496.472 1358.96 507.047C1358.96 529.15 1347.95 540.201 1325.94 540.201ZM1438.66 538.901H1409.02L1407.59 529.41C1406.2 532.877 1404.12 535.564 1401.35 537.471C1398.66 539.291 1394.63 540.201 1389.26 540.201C1375.82 540.201 1369.1 532.964 1369.1 518.488V479.353H1361.82V477.012H1393.29V521.609C1393.29 526.809 1393.63 530.233 1394.33 531.88C1395.11 533.527 1396.58 534.35 1398.75 534.35C1401 534.35 1402.99 533.007 1404.73 530.32C1406.46 527.633 1407.33 523.906 1407.33 519.138V479.353H1401.35V477.012H1431.51V536.561H1438.66V538.901ZM1488.72 503.926C1488.72 494.998 1488.29 489.017 1487.42 485.984C1486.55 482.863 1484.86 481.303 1482.35 481.303C1479.83 481.303 1477.58 482.95 1475.59 486.244C1473.59 489.451 1472.6 493.785 1472.6 499.245V523.039C1472.6 526.766 1473.33 529.93 1474.81 532.53C1476.28 535.131 1478.45 536.431 1481.31 536.431C1484.17 536.431 1486.12 534.524 1487.16 530.71C1488.2 526.896 1488.72 520.222 1488.72 510.687V503.926ZM1472.34 477.012V487.284C1475.72 479.569 1481.7 475.712 1490.28 475.712C1497.73 475.712 1503.5 478.399 1507.57 483.773C1511.73 489.147 1513.81 497.295 1513.81 508.217C1513.81 519.138 1511.56 527.199 1507.05 532.4C1502.63 537.601 1495.96 540.201 1487.03 540.201C1482.87 540.201 1479.75 539.681 1477.67 538.641C1475.59 537.601 1473.9 535.997 1472.6 533.83V567.505H1489.37V569.846H1441.26V567.505H1448.41V479.353H1441.52V477.012H1472.34ZM1536.83 468.041C1532.23 468.041 1528.94 466.871 1526.94 464.53C1525.04 462.19 1524.08 459.286 1524.08 455.819C1524.08 452.352 1525.12 449.492 1527.2 447.238C1529.37 444.984 1532.62 443.858 1536.96 443.858C1541.29 443.858 1544.58 444.898 1546.84 446.978C1549.09 448.972 1550.22 451.875 1550.22 455.689C1550.22 459.416 1549.13 462.407 1546.97 464.66C1544.8 466.914 1541.42 468.041 1536.83 468.041ZM1517.19 477.012H1549.05V536.561H1556.33V538.901H1517.71V536.561H1524.86V479.353H1517.19V477.012ZM1593.12 540.201C1581.94 540.201 1573.53 537.341 1567.9 531.62C1562.35 525.813 1559.58 517.795 1559.58 507.567C1559.58 497.252 1562.7 489.364 1568.94 483.903C1575.27 478.442 1583.29 475.712 1592.99 475.712C1612.67 475.712 1622.12 485.593 1621.34 505.356H1584.67V510.427C1584.67 518.922 1585.76 525.336 1587.92 529.67C1590.09 534.004 1593.86 536.171 1599.24 536.171C1609.29 536.171 1615.88 530.797 1619 520.048L1621.34 520.438C1619.69 526.679 1616.7 531.533 1612.37 535.001C1608.12 538.468 1601.71 540.201 1593.12 540.201ZM1584.8 502.756H1598.2V496.385C1598.2 489.364 1597.76 484.597 1596.89 482.083C1596.11 479.483 1594.47 478.182 1591.95 478.182C1589.53 478.182 1587.71 479.569 1586.49 482.343C1585.37 485.03 1584.8 489.711 1584.8 496.385V502.756ZM1730.81 447.888L1732.11 480.523H1729.64C1725.83 468.994 1722.45 461.15 1719.5 456.989C1716.56 452.742 1712.31 450.618 1706.76 450.618H1705.2V536.171H1716.25V538.901H1668.8V536.171H1679.85V450.618H1678.16C1672.61 450.618 1668.32 452.829 1665.28 457.249C1662.25 461.583 1658.91 469.341 1655.27 480.523H1652.8L1654.1 447.888H1730.81ZM1779.05 480.653C1775.84 480.653 1773.03 482.733 1770.6 486.894C1768.17 491.054 1766.96 495.995 1766.96 501.716V536.561H1776.19V538.901H1735.62V536.561H1742.78V479.353H1735.62V477.012H1766.96V489.494C1768.09 485.073 1770.25 481.693 1773.46 479.353C1776.67 476.926 1780.31 475.712 1784.38 475.712C1788.46 475.712 1791.75 476.882 1794.26 479.223C1796.86 481.476 1798.16 484.727 1798.16 488.974C1798.16 493.135 1797.21 496.342 1795.3 498.595C1793.4 500.849 1790.45 501.976 1786.46 501.976C1782.56 501.976 1779.66 500.676 1777.75 498.075C1775.93 495.475 1775.71 491.878 1777.1 487.284H1781.78C1783.95 482.863 1783.04 480.653 1779.05 480.653ZM1829.24 508.347H1833.01V498.335C1833.01 490.101 1832.53 484.597 1831.58 481.823C1830.71 478.963 1828.98 477.532 1826.38 477.532C1824.82 477.532 1823.39 477.966 1822.09 478.832C1820.87 479.613 1820.27 480.739 1820.27 482.213C1820.27 483.6 1820.53 485.03 1821.05 486.504H1824.3C1824.99 488.324 1825.34 490.534 1825.34 493.135C1825.34 495.648 1824.25 497.859 1822.09 499.765C1819.92 501.586 1817.19 502.496 1813.9 502.496C1806.44 502.496 1802.71 498.899 1802.71 491.704C1802.71 481.043 1811.77 475.712 1829.89 475.712C1840.2 475.712 1847.31 477.489 1851.21 481.043C1855.2 484.51 1857.19 490.924 1857.19 500.286V526.679C1857.19 531.187 1858.45 533.44 1860.96 533.44C1863.91 533.44 1865.64 528.976 1866.16 520.048L1868.11 520.178C1867.77 527.806 1866.34 533.05 1863.82 535.911C1861.31 538.771 1857.19 540.201 1851.47 540.201C1841.07 540.201 1835.09 536.994 1833.53 530.58C1832.4 533.874 1830.71 536.301 1828.46 537.861C1826.2 539.421 1822.91 540.201 1818.58 540.201C1805.75 540.201 1799.33 534.957 1799.33 524.469C1799.33 518.315 1801.76 514.111 1806.62 511.857C1811.56 509.517 1819.1 508.347 1829.24 508.347ZM1824.04 524.339C1824.04 528.846 1824.25 531.75 1824.69 533.05C1825.21 534.35 1826.12 535.001 1827.42 535.001C1828.81 535.001 1830.06 533.917 1831.19 531.75C1832.4 529.496 1833.01 526.419 1833.01 522.519V510.427H1832.1C1826.72 510.427 1824.04 514.371 1824.04 522.259V524.339ZM1905.82 478.052C1902.01 478.052 1899.28 480.133 1897.63 484.293C1895.98 488.454 1895.16 495.345 1895.16 504.966V511.727C1895.16 520.308 1896.11 526.463 1898.02 530.19C1899.93 533.917 1903.44 535.781 1908.55 535.781C1913.66 535.781 1917.74 534.047 1920.77 530.58C1923.81 527.113 1925.76 523.169 1926.62 518.748L1928.96 519.008C1927.32 526.463 1924.28 531.837 1919.86 535.131C1915.35 538.511 1909.16 540.201 1901.27 540.201C1891.21 540.201 1883.5 537.514 1878.13 532.14C1872.75 526.679 1870.06 518.748 1870.06 508.347C1870.06 497.859 1873.1 489.797 1879.17 484.163C1885.32 478.529 1893.86 475.712 1904.78 475.712C1912.49 475.712 1918.39 477.229 1922.46 480.263C1926.54 483.21 1928.57 486.937 1928.57 491.444C1928.57 495.952 1927.58 499.245 1925.58 501.326C1923.68 503.406 1920.99 504.446 1917.52 504.446C1914.14 504.446 1911.41 503.536 1909.33 501.716C1907.25 499.896 1906.21 497.208 1906.21 493.655C1906.21 492.094 1906.43 490.534 1906.86 488.974H1911.15C1911.76 487.24 1912.06 485.68 1912.06 484.293C1912.06 480.133 1909.98 478.052 1905.82 478.052ZM2036.62 540.201C2025.44 540.201 2017.03 537.341 2011.39 531.62C2005.85 525.813 2003.07 517.795 2003.07 507.567C2003.07 497.252 2006.19 489.364 2012.43 483.903C2018.76 478.442 2026.78 475.712 2036.49 475.712C2056.16 475.712 2065.61 485.593 2064.83 505.356H2028.17V510.427C2028.17 518.922 2029.25 525.336 2031.42 529.67C2033.58 534.004 2037.35 536.171 2042.73 536.171C2052.78 536.171 2059.37 530.797 2062.49 520.048L2064.83 520.438C2063.19 526.679 2060.19 531.533 2055.86 535.001C2051.61 538.468 2045.2 540.201 2036.62 540.201ZM2028.3 502.756H2041.69V496.385C2041.69 489.364 2041.26 484.597 2040.39 482.083C2039.61 479.483 2037.96 478.182 2035.45 478.182C2033.02 478.182 2031.2 479.569 2029.99 482.343C2028.86 485.03 2028.3 489.711 2028.3 496.385V502.756ZM2112.94 480.653C2109.73 480.653 2106.92 482.733 2104.49 486.894C2102.06 491.054 2100.85 495.995 2100.85 501.716V536.561H2110.08V538.901H2069.51V536.561H2076.66V479.353H2069.51V477.012H2100.85V489.494C2101.97 485.073 2104.14 481.693 2107.35 479.353C2110.56 476.926 2114.2 475.712 2118.27 475.712C2122.34 475.712 2125.64 476.882 2128.15 479.223C2130.75 481.476 2132.05 484.727 2132.05 488.974C2132.05 493.135 2131.1 496.342 2129.19 498.595C2127.28 500.849 2124.34 501.976 2120.35 501.976C2116.45 501.976 2113.55 500.676 2111.64 498.075C2109.82 495.475 2109.6 491.878 2110.99 487.284H2115.67C2117.84 482.863 2116.93 480.653 2112.94 480.653Z" fill="url(#paint3_linear_2_323)" stroke="url(#paint4_linear_2_323)" stroke-width="0.699999" stroke-miterlimit="3.1" stroke-linecap="square"/>
<mask id="mask1_2_323" style="mask-type:luminance" maskUnits="userSpaceOnUse" x="910" y="0" width="1543" height="684">
<path d="M2439.91 0H922.428C915.631 0 910.121 5.50982 910.121 12.3065V671.581C910.121 678.377 915.631 683.887 922.428 683.887H2439.91C2446.71 683.887 2452.22 678.377 2452.22 671.581V12.3065C2452.22 5.50982 2446.71 0 2439.91 0Z" fill="white"/>
</mask>
<g mask="url(#mask1_2_323)">
<path d="M1974.52 497.573C1973.48 491.892 1972.98 485.714 1971.99 479.943C1980.74 471.15 1990.93 459.472 1992.01 440.849C1992.37 434.446 1991.07 429.08 1989.49 423.219C1988.4 419.16 1985.52 408.294 1981.19 410.052C1966.04 416.23 1962.48 446.125 1966.76 465.108C1956.3 475.885 1938.62 486.706 1935.96 507.629C1934.57 518.631 1938.08 528.325 1943.09 535.405C1949.54 544.558 1961.98 552.765 1977.76 549.157C1979.7 562.369 1984.62 581.803 1971.81 587.349C1967.12 589.378 1956.57 589.559 1955.53 583.516C1969.65 585.726 1969.6 565.931 1959.59 563.586C1951.29 561.602 1946.33 569.719 1945.97 575.084C1945.3 585.14 1954.81 592.399 1965.27 592.174C1976.5 591.948 1984.44 585.095 1984.12 570.936C1983.94 563.09 1981.64 557.003 1981.28 548.03C1990.34 543.701 1998.46 537.479 1999.54 525.124C2000.8 510.424 1991.61 496.626 1974.52 497.573ZM1977 428.449C1981.05 424.526 1987.91 424.932 1988.22 432.192C1988.54 439.226 1984.89 445.493 1981.51 450.363C1977.99 455.413 1974.29 459.787 1969.69 462.448C1967.12 451.445 1970.55 434.762 1977 428.449ZM1942.82 518.901C1943.36 509.568 1947.69 502.759 1952.29 497.258C1957.25 491.306 1963.24 486.752 1968.88 482.288C1969.87 487.338 1970.37 492.884 1971.04 498.25C1963.42 501.632 1954.81 507.629 1955.17 519.938C1955.31 524.177 1957.07 528.28 1959.46 531.482C1961.67 534.367 1965 537.93 1968.93 537.389C1968.75 534.999 1965.86 534.413 1964.42 532.97C1957.16 525.981 1962.61 511.552 1972.8 510.334C1974.2 522.283 1975.87 533.917 1977.36 545.775C1955.67 549.067 1941.78 535.54 1942.82 518.901ZM1980.6 544.603C1979.39 532.834 1977.36 521.742 1976.23 509.883C1980.6 510.424 1984.35 512.048 1986.96 514.482C1995.98 522.96 1992.24 541.537 1980.6 544.603Z" fill="url(#paint5_linear_2_323)" stroke="url(#paint6_linear_2_323)" stroke-width="0.699999"/>
</g>
<path d="M1222.71 614.281C1223.36 614.867 1224.1 615.347 1224.92 615.721C1225.75 616.076 1226.6 616.254 1227.45 616.254C1228.52 616.254 1229.33 616.049 1229.88 615.641C1230.43 615.232 1230.71 614.69 1230.71 614.014C1230.71 613.659 1230.63 613.356 1230.49 613.107C1230.35 612.859 1230.15 612.645 1229.88 612.468C1229.63 612.272 1229.32 612.094 1228.95 611.934C1228.59 611.774 1228.2 611.614 1227.77 611.454L1225.4 610.414C1224.94 610.237 1224.48 610.014 1224.04 609.748C1223.59 609.481 1223.2 609.161 1222.84 608.788C1222.48 608.415 1222.2 607.979 1221.99 607.481C1221.77 606.984 1221.67 606.415 1221.67 605.775C1221.67 605.082 1221.82 604.442 1222.12 603.855C1222.42 603.251 1222.84 602.726 1223.37 602.282C1223.91 601.837 1224.54 601.491 1225.27 601.242C1226.01 600.993 1226.83 600.869 1227.72 600.869C1228.79 600.869 1229.8 601.073 1230.76 601.482C1231.74 601.873 1232.59 602.406 1233.32 603.082L1231.72 605.055C1231.13 604.593 1230.52 604.228 1229.88 603.962C1229.24 603.695 1228.52 603.562 1227.72 603.562C1226.81 603.562 1226.09 603.748 1225.56 604.122C1225.04 604.477 1224.79 604.975 1224.79 605.615C1224.79 605.953 1224.87 606.246 1225.03 606.495C1225.19 606.726 1225.4 606.939 1225.67 607.135C1225.95 607.312 1226.27 607.472 1226.63 607.615C1227 607.757 1227.38 607.908 1227.77 608.068L1230.07 609.055C1230.62 609.268 1231.12 609.517 1231.59 609.801C1232.05 610.086 1232.45 610.414 1232.79 610.788C1233.12 611.161 1233.38 611.597 1233.56 612.094C1233.75 612.574 1233.85 613.134 1233.85 613.774C1233.85 614.485 1233.7 615.152 1233.4 615.774C1233.11 616.396 1232.7 616.947 1232.15 617.427C1231.59 617.889 1230.92 618.263 1230.12 618.547C1229.32 618.814 1228.41 618.947 1227.4 618.947C1226.17 618.947 1225 618.725 1223.88 618.28C1222.76 617.836 1221.76 617.205 1220.89 616.387L1222.71 614.281ZM1240.41 607.961H1236.92V605.668L1240.54 605.535L1240.94 601.962H1243.48V605.535H1249.42V607.961H1243.48V613.347C1243.48 614.432 1243.7 615.232 1244.14 615.747C1244.59 616.245 1245.37 616.494 1246.49 616.494C1247.06 616.494 1247.57 616.449 1248.04 616.36C1248.52 616.254 1248.97 616.121 1249.4 615.961L1249.96 618.2C1249.39 618.396 1248.74 618.565 1248.01 618.707C1247.3 618.867 1246.54 618.947 1245.74 618.947C1244.75 618.947 1243.91 618.814 1243.24 618.547C1242.56 618.28 1242.01 617.907 1241.58 617.427C1241.18 616.929 1240.87 616.334 1240.68 615.641C1240.5 614.947 1240.41 614.183 1240.41 613.347V607.961ZM1253.24 615.107C1253.24 614.378 1253.41 613.739 1253.74 613.187C1254.08 612.619 1254.61 612.139 1255.34 611.748C1256.07 611.357 1257 611.037 1258.14 610.788C1259.28 610.539 1260.66 610.361 1262.28 610.254C1262.22 609.508 1261.96 608.895 1261.48 608.415C1261 607.935 1260.22 607.695 1259.16 607.695C1258.41 607.695 1257.67 607.837 1256.94 608.121C1256.23 608.388 1255.54 608.708 1254.86 609.081L1253.74 607.028C1254.54 606.566 1255.46 606.148 1256.49 605.775C1257.52 605.402 1258.6 605.215 1259.72 605.215C1261.55 605.215 1262.94 605.704 1263.9 606.681C1264.86 607.641 1265.34 609.037 1265.34 610.868V618.627H1262.84L1262.6 617H1262.52C1261.82 617.534 1261.05 617.996 1260.2 618.387C1259.36 618.76 1258.5 618.947 1257.61 618.947C1256.97 618.947 1256.38 618.849 1255.85 618.654C1255.32 618.476 1254.85 618.218 1254.46 617.88C1254.07 617.543 1253.77 617.143 1253.56 616.68C1253.34 616.201 1253.24 615.676 1253.24 615.107ZM1256.2 614.867C1256.2 615.454 1256.42 615.881 1256.86 616.147C1257.32 616.414 1257.88 616.547 1258.54 616.547C1259.2 616.547 1259.83 616.405 1260.44 616.121C1261.06 615.818 1261.67 615.427 1262.28 614.947V612.174C1261.1 612.263 1260.12 612.388 1259.34 612.548C1258.56 612.69 1257.94 612.876 1257.48 613.107C1257.01 613.339 1256.69 613.605 1256.49 613.907C1256.29 614.192 1256.2 614.512 1256.2 614.867ZM1269.71 621.347C1269.89 621.4 1270.07 621.444 1270.25 621.48C1270.43 621.516 1270.61 621.533 1270.81 621.533C1271.64 621.533 1272.31 621.32 1272.81 620.893C1273.31 620.485 1273.69 619.951 1273.95 619.293L1274.27 618.467L1268.41 605.535H1271.47L1274.17 611.961C1274.42 612.548 1274.66 613.17 1274.89 613.827C1275.12 614.485 1275.36 615.143 1275.61 615.801H1275.71C1275.91 615.178 1276.12 614.538 1276.35 613.881C1276.59 613.223 1276.81 612.583 1277.02 611.961L1279.39 605.535H1282.3L1276.83 619.214C1276.55 619.96 1276.23 620.627 1275.87 621.213C1275.54 621.8 1275.14 622.298 1274.67 622.706C1274.21 623.133 1273.68 623.453 1273.07 623.666C1272.47 623.897 1271.78 624.013 1270.99 624.013C1270.64 624.013 1270.3 623.986 1269.98 623.933C1269.66 623.897 1269.38 623.835 1269.13 623.746L1269.71 621.347ZM1300.94 609.961C1300.94 608.539 1301.14 607.268 1301.55 606.148C1301.96 605.011 1302.52 604.051 1303.23 603.268C1303.96 602.486 1304.81 601.891 1305.79 601.482C1306.79 601.073 1307.86 600.869 1309.02 600.869C1310.08 600.869 1311.04 601.091 1311.87 601.535C1312.71 601.98 1313.41 602.486 1313.98 603.055L1312.24 604.975C1311.82 604.548 1311.34 604.211 1310.8 603.962C1310.29 603.695 1309.69 603.562 1309.02 603.562C1308.29 603.562 1307.62 603.713 1307.02 604.015C1306.41 604.299 1305.9 604.717 1305.47 605.268C1305.04 605.802 1304.71 606.459 1304.46 607.241C1304.23 608.024 1304.11 608.903 1304.11 609.881C1304.11 610.877 1304.23 611.774 1304.46 612.574C1304.71 613.356 1305.04 614.023 1305.47 614.574C1305.92 615.107 1306.44 615.525 1307.04 615.827C1307.67 616.112 1308.35 616.254 1309.1 616.254C1309.81 616.254 1310.44 616.103 1310.99 615.801C1311.56 615.498 1312.09 615.072 1312.59 614.521L1314.3 616.414C1313.59 617.232 1312.79 617.863 1311.9 618.307C1311.01 618.734 1310.01 618.947 1308.91 618.947C1307.79 618.947 1306.74 618.751 1305.76 618.36C1304.8 617.969 1303.96 617.391 1303.23 616.627C1302.52 615.863 1301.96 614.921 1301.55 613.801C1301.14 612.681 1300.94 611.401 1300.94 609.961ZM1316.75 612.094C1316.75 611.01 1316.93 610.041 1317.28 609.188C1317.66 608.335 1318.15 607.615 1318.75 607.028C1319.35 606.441 1320.06 605.997 1320.86 605.695C1321.66 605.375 1322.48 605.215 1323.34 605.215C1324.19 605.215 1325.02 605.375 1325.82 605.695C1326.62 605.997 1327.32 606.441 1327.92 607.028C1328.53 607.615 1329.01 608.335 1329.36 609.188C1329.74 610.041 1329.92 611.01 1329.92 612.094C1329.92 613.179 1329.74 614.147 1329.36 615.001C1329.01 615.854 1328.53 616.574 1327.92 617.16C1327.32 617.747 1326.62 618.191 1325.82 618.494C1325.02 618.796 1324.19 618.947 1323.34 618.947C1322.48 618.947 1321.66 618.796 1320.86 618.494C1320.06 618.191 1319.35 617.747 1318.75 617.16C1318.15 616.574 1317.66 615.854 1317.28 615.001C1316.93 614.147 1316.75 613.179 1316.75 612.094ZM1319.92 612.094C1319.92 613.41 1320.23 614.467 1320.83 615.267C1321.43 616.049 1322.27 616.44 1323.34 616.44C1324.4 616.44 1325.24 616.049 1325.84 615.267C1326.45 614.467 1326.75 613.41 1326.75 612.094C1326.75 610.761 1326.45 609.703 1325.84 608.921C1325.24 608.121 1324.4 607.721 1323.34 607.721C1322.27 607.721 1321.43 608.121 1320.83 608.921C1320.23 609.703 1319.92 610.761 1319.92 612.094ZM1333.52 605.535H1336.05L1336.29 607.508H1336.4C1337.02 606.886 1337.71 606.353 1338.45 605.908C1339.22 605.446 1340.11 605.215 1341.12 605.215C1342.63 605.215 1343.74 605.677 1344.45 606.601C1345.17 607.508 1345.52 608.815 1345.52 610.521V618.627H1342.43V610.921C1342.43 609.854 1342.24 609.081 1341.87 608.601C1341.51 608.104 1340.88 607.855 1339.97 607.855C1339.33 607.855 1338.77 608.006 1338.27 608.308C1337.77 608.61 1337.22 609.072 1336.61 609.695V618.627H1333.52L1333.52 605.535ZM1349.52 605.535H1352.05L1352.29 607.508H1352.4C1353.02 606.886 1353.71 606.353 1354.45 605.908C1355.22 605.446 1356.11 605.215 1357.12 605.215C1358.63 605.215 1359.74 605.677 1360.45 606.601C1361.16 607.508 1361.52 608.815 1361.52 610.521V618.627H1358.43V610.921C1358.43 609.854 1358.24 609.081 1357.87 608.601C1357.51 608.104 1356.88 607.855 1355.97 607.855C1355.33 607.855 1354.76 608.006 1354.27 608.308C1353.77 608.61 1353.22 609.072 1352.61 609.695V618.627H1349.52V605.535ZM1364.99 612.094C1364.99 611.028 1365.17 610.068 1365.55 609.215C1365.94 608.361 1366.44 607.641 1367.07 607.055C1367.69 606.45 1368.4 605.997 1369.2 605.695C1370.02 605.375 1370.85 605.215 1371.7 605.215C1372.68 605.215 1373.54 605.375 1374.29 605.695C1375.06 605.997 1375.7 606.424 1376.21 606.975C1376.73 607.508 1377.12 608.157 1377.38 608.921C1377.65 609.686 1377.78 610.521 1377.78 611.428C1377.78 611.73 1377.77 612.005 1377.73 612.254C1377.71 612.503 1377.69 612.708 1377.65 612.868H1368.13C1368.27 614.059 1368.75 614.974 1369.55 615.614C1370.35 616.254 1371.34 616.574 1372.53 616.574C1373.21 616.574 1373.84 616.485 1374.42 616.307C1375.01 616.112 1375.61 615.845 1376.21 615.507L1377.25 617.427C1376.54 617.871 1375.75 618.236 1374.88 618.52C1374.01 618.805 1373.09 618.947 1372.13 618.947C1371.14 618.947 1370.2 618.796 1369.33 618.494C1368.46 618.174 1367.71 617.72 1367.07 617.134C1366.43 616.547 1365.92 615.836 1365.55 615.001C1365.17 614.147 1364.99 613.179 1364.99 612.094ZM1374.96 610.921C1374.96 609.872 1374.69 609.055 1374.16 608.468C1373.62 607.881 1372.83 607.588 1371.78 607.588C1371.34 607.588 1370.91 607.659 1370.5 607.801C1370.1 607.944 1369.72 608.157 1369.38 608.441C1369.06 608.726 1368.79 609.072 1368.56 609.481C1368.33 609.89 1368.18 610.37 1368.11 610.921H1374.96ZM1381.28 612.094C1381.28 611.01 1381.47 610.041 1381.86 609.188C1382.27 608.335 1382.81 607.615 1383.49 607.028C1384.17 606.441 1384.96 605.997 1385.86 605.695C1386.77 605.375 1387.72 605.215 1388.72 605.215C1389.78 605.215 1390.72 605.393 1391.52 605.748C1392.33 606.104 1393.02 606.539 1393.57 607.055L1392.1 608.975C1391.59 608.566 1391.06 608.255 1390.53 608.041C1390.01 607.828 1389.46 607.721 1388.88 607.721C1387.56 607.721 1386.49 608.121 1385.68 608.921C1384.86 609.703 1384.45 610.761 1384.45 612.094C1384.45 612.752 1384.56 613.347 1384.77 613.881C1384.98 614.414 1385.28 614.876 1385.65 615.267C1386.04 615.641 1386.5 615.934 1387.04 616.147C1387.57 616.343 1388.16 616.44 1388.8 616.44C1389.54 616.44 1390.22 616.298 1390.82 616.014C1391.45 615.729 1392.01 615.392 1392.53 615.001L1393.81 616.974C1393.06 617.631 1392.23 618.129 1391.3 618.467C1390.38 618.787 1389.45 618.947 1388.5 618.947C1387.47 618.947 1386.51 618.796 1385.62 618.494C1384.75 618.191 1383.99 617.747 1383.33 617.16C1382.69 616.574 1382.18 615.854 1381.81 615.001C1381.45 614.147 1381.28 613.179 1381.28 612.094ZM1400.4 607.961H1396.9V605.668L1400.53 605.535L1400.93 601.962H1403.46V605.535H1409.41V607.961H1403.46V613.347C1403.46 614.432 1403.68 615.232 1404.13 615.747C1404.57 616.245 1405.35 616.494 1406.47 616.494C1407.04 616.494 1407.56 616.449 1408.02 616.36C1408.5 616.254 1408.95 616.121 1409.38 615.961L1409.94 618.2C1409.37 618.396 1408.72 618.565 1407.99 618.707C1407.28 618.867 1406.53 618.947 1405.73 618.947C1404.73 618.947 1403.9 618.814 1403.22 618.547C1402.55 618.28 1402 617.907 1401.57 617.427C1401.16 616.929 1400.86 616.334 1400.66 615.641C1400.48 614.947 1400.4 614.183 1400.4 613.347V607.961ZM1412.98 612.094C1412.98 611.028 1413.17 610.068 1413.54 609.215C1413.93 608.361 1414.44 607.641 1415.06 607.055C1415.68 606.45 1416.39 605.997 1417.19 605.695C1418.01 605.375 1418.85 605.215 1419.7 605.215C1420.68 605.215 1421.54 605.375 1422.29 605.695C1423.05 605.997 1423.69 606.424 1424.21 606.975C1424.72 607.508 1425.11 608.157 1425.38 608.921C1425.65 609.686 1425.78 610.521 1425.78 611.428C1425.78 611.73 1425.76 612.005 1425.73 612.254C1425.71 612.503 1425.68 612.708 1425.65 612.868H1416.13C1416.27 614.059 1416.74 614.974 1417.54 615.614C1418.34 616.254 1419.33 616.574 1420.53 616.574C1421.2 616.574 1421.83 616.485 1422.42 616.307C1423.01 616.112 1423.6 615.845 1424.21 615.507L1425.25 617.427C1424.53 617.871 1423.74 618.236 1422.87 618.52C1422 618.805 1421.09 618.947 1420.13 618.947C1419.13 618.947 1418.2 618.796 1417.33 618.494C1416.46 618.174 1415.7 617.72 1415.06 617.134C1414.42 616.547 1413.91 615.836 1413.54 615.001C1413.17 614.147 1412.98 613.179 1412.98 612.094ZM1422.95 610.921C1422.95 609.872 1422.69 609.055 1422.15 608.468C1421.62 607.881 1420.83 607.588 1419.78 607.588C1419.34 607.588 1418.91 607.659 1418.5 607.801C1418.09 607.944 1417.72 608.157 1417.38 608.441C1417.06 608.726 1416.78 609.072 1416.55 609.481C1416.32 609.89 1416.17 610.37 1416.1 610.921H1422.95ZM1430.79 605.535H1433.33L1433.59 608.495H1433.67C1434.35 607.428 1435.16 606.619 1436.1 606.068C1437.06 605.499 1438.11 605.215 1439.24 605.215C1439.78 605.215 1440.23 605.259 1440.6 605.348C1441 605.419 1441.39 605.553 1441.78 605.748L1441.14 608.335C1440.71 608.192 1440.33 608.095 1439.99 608.041C1439.67 607.97 1439.26 607.935 1438.76 607.935C1437.86 607.935 1436.99 608.192 1436.15 608.708C1435.32 609.223 1434.56 610.121 1433.89 611.401V618.627H1430.79L1430.79 605.535ZM1459.51 601.189H1462.63L1463.59 611.294C1463.62 612.041 1463.67 612.77 1463.72 613.481C1463.78 614.192 1463.82 614.921 1463.86 615.667H1463.94C1464.08 614.921 1464.24 614.192 1464.42 613.481C1464.61 612.752 1464.79 612.023 1464.95 611.294L1466.47 605.642H1468.44L1469.94 611.294C1470.08 612.005 1470.24 612.725 1470.42 613.454C1470.61 614.183 1470.78 614.921 1470.92 615.667H1471.03C1471.06 614.921 1471.11 614.183 1471.16 613.454C1471.22 612.725 1471.26 612.005 1471.3 611.294L1472.2 601.189H1475.13L1472.76 618.627H1469.48L1467.94 612.254C1467.81 611.703 1467.7 611.152 1467.62 610.601C1467.53 610.05 1467.45 609.517 1467.38 609.001H1467.3C1467.21 609.517 1467.12 610.05 1467.03 610.601C1466.94 611.152 1466.83 611.703 1466.71 612.254L1465.24 618.627H1462.02L1459.51 601.189ZM1477.56 605.535H1486.31V618.627H1483.24V607.961H1477.56V605.535ZM1484.55 603.242C1483.92 603.242 1483.4 603.055 1482.97 602.682C1482.56 602.309 1482.36 601.811 1482.36 601.189C1482.36 600.567 1482.56 600.069 1482.97 599.695C1483.4 599.304 1483.92 599.109 1484.55 599.109C1485.19 599.109 1485.71 599.304 1486.12 599.695C1486.53 600.069 1486.73 600.567 1486.73 601.189C1486.73 601.811 1486.53 602.309 1486.12 602.682C1485.71 603.055 1485.19 603.242 1484.55 603.242ZM1496.39 607.961H1492.89V605.668L1496.52 605.535L1496.92 601.962H1499.45V605.535H1505.4V607.961H1499.45V613.347C1499.45 614.432 1499.67 615.232 1500.12 615.747C1500.56 616.245 1501.35 616.494 1502.47 616.494C1503.03 616.494 1503.55 616.449 1504.01 616.36C1504.49 616.254 1504.94 616.121 1505.37 615.961L1505.93 618.2C1505.36 618.396 1504.71 618.565 1503.98 618.707C1503.27 618.867 1502.52 618.947 1501.72 618.947C1500.72 618.947 1499.89 618.814 1499.21 618.547C1498.54 618.28 1497.99 617.907 1497.56 617.427C1497.15 616.929 1496.85 616.334 1496.65 615.641C1496.47 614.947 1496.39 614.183 1496.39 613.347V607.961ZM1509.5 599.802H1512.6V604.655L1512.41 607.455C1513.02 606.85 1513.69 606.326 1514.44 605.882C1515.2 605.437 1516.09 605.215 1517.1 605.215C1518.61 605.215 1519.73 605.677 1520.44 606.601C1521.15 607.508 1521.5 608.815 1521.5 610.521V618.627H1518.41V610.921C1518.41 609.854 1518.22 609.081 1517.85 608.601C1517.49 608.104 1516.86 607.855 1515.96 607.855C1515.32 607.855 1514.75 608.006 1514.25 608.308C1513.75 608.61 1513.2 609.072 1512.6 609.695V618.627H1509.5V599.802ZM1545.77 612.574L1540.03 601.189H1543.31L1545.5 605.882C1545.8 606.557 1546.1 607.224 1546.38 607.881C1546.68 608.521 1546.99 609.197 1547.29 609.908H1547.39C1547.71 609.197 1548.02 608.512 1548.33 607.855C1548.63 607.197 1548.93 606.53 1549.23 605.855L1551.39 601.189H1554.59L1548.86 612.574V618.627H1545.77L1545.77 612.574ZM1556.73 612.094C1556.73 611.01 1556.9 610.041 1557.26 609.188C1557.63 608.335 1558.12 607.615 1558.73 607.028C1559.33 606.441 1560.03 605.997 1560.83 605.695C1561.63 605.375 1562.46 605.215 1563.31 605.215C1564.17 605.215 1564.99 605.375 1565.79 605.695C1566.59 605.997 1567.29 606.441 1567.9 607.028C1568.5 607.615 1568.98 608.335 1569.34 609.188C1569.71 610.041 1569.9 611.01 1569.9 612.094C1569.9 613.179 1569.71 614.147 1569.34 615.001C1568.98 615.854 1568.5 616.574 1567.9 617.16C1567.29 617.747 1566.59 618.191 1565.79 618.494C1564.99 618.796 1564.17 618.947 1563.31 618.947C1562.46 618.947 1561.63 618.796 1560.83 618.494C1560.03 618.191 1559.33 617.747 1558.73 617.16C1558.12 616.574 1557.63 615.854 1557.26 615.001C1556.9 614.147 1556.73 613.179 1556.73 612.094ZM1559.9 612.094C1559.9 613.41 1560.2 614.467 1560.81 615.267C1561.41 616.049 1562.25 616.44 1563.31 616.44C1564.38 616.44 1565.21 616.049 1565.82 615.267C1566.42 614.467 1566.73 613.41 1566.73 612.094C1566.73 610.761 1566.42 609.703 1565.82 608.921C1565.21 608.121 1564.38 607.721 1563.31 607.721C1562.25 607.721 1561.41 608.121 1560.81 608.921C1560.2 609.703 1559.9 610.761 1559.9 612.094ZM1585.04 618.627H1582.54L1582.3 616.547H1582.19C1581.57 617.276 1580.88 617.863 1580.14 618.307C1579.39 618.734 1578.53 618.947 1577.55 618.947C1576.02 618.947 1574.91 618.494 1574.22 617.587C1573.52 616.663 1573.18 615.347 1573.18 613.641V605.535H1576.24V613.241C1576.24 614.307 1576.42 615.09 1576.78 615.587C1577.15 616.067 1577.79 616.307 1578.7 616.307C1579.32 616.307 1579.87 616.165 1580.35 615.881C1580.85 615.596 1581.39 615.09 1581.98 614.361V605.535H1585.04V618.627ZM1590.78 605.535H1593.31L1593.58 608.495H1593.66C1594.33 607.428 1595.14 606.619 1596.08 606.068C1597.04 605.499 1598.09 605.215 1599.23 605.215C1599.76 605.215 1600.22 605.259 1600.59 605.348C1600.98 605.419 1601.37 605.553 1601.76 605.748L1601.12 608.335C1600.7 608.192 1600.31 608.095 1599.98 608.041C1599.66 607.97 1599.25 607.935 1598.75 607.935C1597.84 607.935 1596.97 608.192 1596.14 608.708C1595.3 609.223 1594.55 610.121 1593.87 611.401V618.627H1590.78L1590.78 605.535ZM1622.53 601.189H1633.63V603.802H1625.63V608.735H1632.43V611.348H1625.63V618.627H1622.53V601.189ZM1637.2 615.107C1637.2 614.378 1637.37 613.739 1637.7 613.187C1638.04 612.619 1638.58 612.139 1639.3 611.748C1640.03 611.357 1640.97 611.037 1642.1 610.788C1643.24 610.539 1644.62 610.361 1646.24 610.254C1646.18 609.508 1645.92 608.895 1645.44 608.415C1644.96 607.935 1644.18 607.695 1643.12 607.695C1642.37 607.695 1641.63 607.837 1640.9 608.121C1640.19 608.388 1639.5 608.708 1638.82 609.081L1637.7 607.028C1638.5 606.566 1639.42 606.148 1640.45 605.775C1641.48 605.402 1642.56 605.215 1643.68 605.215C1645.51 605.215 1646.9 605.704 1647.86 606.681C1648.82 607.641 1649.3 609.037 1649.3 610.868V618.627H1646.8L1646.56 617H1646.48C1645.78 617.534 1645.01 617.996 1644.16 618.387C1643.32 618.76 1642.46 618.947 1641.57 618.947C1640.93 618.947 1640.34 618.849 1639.81 618.654C1639.28 618.476 1638.82 618.218 1638.42 617.88C1638.03 617.543 1637.73 617.143 1637.52 616.68C1637.3 616.201 1637.2 615.676 1637.2 615.107ZM1640.16 614.867C1640.16 615.454 1640.38 615.881 1640.82 616.147C1641.29 616.414 1641.85 616.547 1642.5 616.547C1643.16 616.547 1643.79 616.405 1644.4 616.121C1645.02 615.818 1645.63 615.427 1646.24 614.947V612.174C1645.06 612.263 1644.09 612.388 1643.3 612.548C1642.52 612.69 1641.9 612.876 1641.44 613.107C1640.98 613.339 1640.65 613.605 1640.45 613.907C1640.26 614.192 1640.16 614.512 1640.16 614.867ZM1652.4 605.535H1655.49L1658.02 612.334C1658.27 612.992 1658.49 613.65 1658.69 614.307C1658.9 614.947 1659.12 615.605 1659.33 616.281H1659.44C1659.65 615.605 1659.85 614.947 1660.05 614.307C1660.26 613.65 1660.49 612.992 1660.74 612.334L1663.28 605.535H1666.21L1661.12 618.627H1657.62L1652.4 605.535ZM1668.72 612.094C1668.72 611.01 1668.89 610.041 1669.25 609.188C1669.62 608.335 1670.11 607.615 1670.72 607.028C1671.32 606.441 1672.02 605.997 1672.82 605.695C1673.62 605.375 1674.45 605.215 1675.3 605.215C1676.15 605.215 1676.98 605.375 1677.78 605.695C1678.58 605.997 1679.28 606.441 1679.89 607.028C1680.49 607.615 1680.97 608.335 1681.33 609.188C1681.7 610.041 1681.89 611.01 1681.89 612.094C1681.89 613.179 1681.7 614.147 1681.33 615.001C1680.97 615.854 1680.49 616.574 1679.89 617.16C1679.28 617.747 1678.58 618.191 1677.78 618.494C1676.98 618.796 1676.15 618.947 1675.3 618.947C1674.45 618.947 1673.62 618.796 1672.82 618.494C1672.02 618.191 1671.32 617.747 1670.72 617.16C1670.11 616.574 1669.62 615.854 1669.25 615.001C1668.89 614.147 1668.72 613.179 1668.72 612.094ZM1671.89 612.094C1671.89 613.41 1672.19 614.467 1672.79 615.267C1673.4 616.049 1674.23 616.44 1675.3 616.44C1676.37 616.44 1677.2 616.049 1677.81 615.267C1678.41 614.467 1678.71 613.41 1678.71 612.094C1678.71 610.761 1678.41 609.703 1677.81 608.921C1677.2 608.121 1676.37 607.721 1675.3 607.721C1674.23 607.721 1673.4 608.121 1672.79 608.921C1672.19 609.703 1671.89 610.761 1671.89 612.094ZM1686.77 605.535H1689.3L1689.57 608.495H1689.65C1690.32 607.428 1691.13 606.619 1692.07 606.068C1693.03 605.499 1694.08 605.215 1695.22 605.215C1695.75 605.215 1696.21 605.259 1696.58 605.348C1696.97 605.419 1697.36 605.553 1697.75 605.748L1697.11 608.335C1696.69 608.192 1696.3 608.095 1695.97 608.041C1695.65 607.97 1695.24 607.935 1694.74 607.935C1693.83 607.935 1692.96 608.192 1692.13 608.708C1691.29 609.223 1690.54 610.121 1689.86 611.401V618.627H1686.77L1686.77 605.535ZM1701.54 605.535H1710.28V618.627H1707.22V607.961H1701.54V605.535ZM1708.52 603.242C1707.9 603.242 1707.38 603.055 1706.95 602.682C1706.54 602.309 1706.34 601.811 1706.34 601.189C1706.34 600.567 1706.54 600.069 1706.95 599.695C1707.38 599.304 1707.9 599.109 1708.52 599.109C1709.16 599.109 1709.69 599.304 1710.1 599.695C1710.51 600.069 1710.71 600.567 1710.71 601.189C1710.71 601.811 1710.51 602.309 1710.1 602.682C1709.69 603.055 1709.16 603.242 1708.52 603.242ZM1720.36 607.961H1716.87V605.668L1720.5 605.535L1720.9 601.962H1723.43V605.535H1729.38V607.961H1723.43V613.347C1723.43 614.432 1723.65 615.232 1724.1 615.747C1724.54 616.245 1725.32 616.494 1726.44 616.494C1727.01 616.494 1727.53 616.449 1727.99 616.36C1728.47 616.254 1728.92 616.121 1729.35 615.961L1729.91 618.2C1729.34 618.396 1728.69 618.565 1727.96 618.707C1727.25 618.867 1726.5 618.947 1725.7 618.947C1724.7 618.947 1723.87 618.814 1723.19 618.547C1722.51 618.28 1721.96 617.907 1721.54 617.427C1721.13 616.929 1720.83 616.334 1720.63 615.641C1720.45 614.947 1720.36 614.183 1720.36 613.347V607.961ZM1732.95 612.094C1732.95 611.028 1733.14 610.068 1733.51 609.215C1733.9 608.361 1734.41 607.641 1735.03 607.055C1735.65 606.45 1736.36 605.997 1737.16 605.695C1737.98 605.375 1738.82 605.215 1739.67 605.215C1740.65 605.215 1741.51 605.375 1742.25 605.695C1743.02 605.997 1743.66 606.424 1744.17 606.975C1744.69 607.508 1745.08 608.157 1745.35 608.921C1745.61 609.686 1745.75 610.521 1745.75 611.428C1745.75 611.73 1745.73 612.005 1745.69 612.254C1745.68 612.503 1745.65 612.708 1745.61 612.868H1736.09C1736.24 614.059 1736.71 614.974 1737.51 615.614C1738.31 616.254 1739.3 616.574 1740.49 616.574C1741.17 616.574 1741.8 616.485 1742.39 616.307C1742.97 616.112 1743.57 615.845 1744.17 615.507L1745.21 617.427C1744.5 617.871 1743.71 618.236 1742.84 618.52C1741.97 618.805 1741.05 618.947 1740.09 618.947C1739.1 618.947 1738.17 618.796 1737.29 618.494C1736.42 618.174 1735.67 617.72 1735.03 617.134C1734.39 616.547 1733.88 615.836 1733.51 615.001C1733.13 614.147 1732.95 613.179 1732.95 612.094ZM1742.92 610.921C1742.92 609.872 1742.65 609.055 1742.12 608.468C1741.59 607.881 1740.8 607.588 1739.75 607.588C1739.3 607.588 1738.88 607.659 1738.47 607.801C1738.06 607.944 1737.69 608.157 1737.35 608.441C1737.03 608.726 1736.75 609.072 1736.52 609.481C1736.29 609.89 1736.14 610.37 1736.07 610.921H1742.92ZM1773.45 611.481L1772.84 609.348C1772.59 608.424 1772.33 607.472 1772.06 606.495C1771.8 605.517 1771.54 604.548 1771.29 603.588H1771.19C1770.94 604.566 1770.68 605.544 1770.41 606.521C1770.16 607.481 1769.91 608.424 1769.64 609.348L1769.03 611.481H1773.45ZM1774.14 613.907H1768.33L1766.97 618.627H1763.83L1769.48 601.189H1773.1L1778.76 618.627H1775.48L1774.14 613.907ZM1782.76 605.535H1785.29L1785.56 608.495H1785.64C1786.31 607.428 1787.12 606.619 1788.06 606.068C1789.02 605.499 1790.07 605.215 1791.21 605.215C1791.74 605.215 1792.2 605.259 1792.57 605.348C1792.96 605.419 1793.35 605.553 1793.74 605.748L1793.1 608.335C1792.68 608.192 1792.29 608.095 1791.96 608.041C1791.64 607.97 1791.23 607.935 1790.73 607.935C1789.82 607.935 1788.95 608.192 1788.12 608.708C1787.28 609.223 1786.53 610.121 1785.85 611.401V618.627H1782.76L1782.76 605.535ZM1800.36 607.961H1796.86V605.668L1800.49 605.535L1800.89 601.962H1803.42V605.535H1809.37V607.961H1803.42V613.347C1803.42 614.432 1803.64 615.232 1804.09 615.747C1804.53 616.245 1805.31 616.494 1806.43 616.494C1807 616.494 1807.52 616.449 1807.98 616.36C1808.46 616.254 1808.91 616.121 1809.34 615.961L1809.9 618.2C1809.33 618.396 1808.68 618.565 1807.95 618.707C1807.24 618.867 1806.49 618.947 1805.69 618.947C1804.69 618.947 1803.86 618.814 1803.18 618.547C1802.51 618.28 1801.96 617.907 1801.53 617.427C1801.12 616.929 1800.82 616.334 1800.62 615.641C1800.44 614.947 1800.36 614.183 1800.36 613.347V607.961ZM1813.53 605.535H1822.27V618.627H1819.21V607.961H1813.53V605.535ZM1820.51 603.242C1819.89 603.242 1819.37 603.055 1818.94 602.682C1818.53 602.309 1818.33 601.811 1818.33 601.189C1818.33 600.567 1818.53 600.069 1818.94 599.695C1819.37 599.304 1819.89 599.109 1820.51 599.109C1821.15 599.109 1821.68 599.304 1822.09 599.695C1822.5 600.069 1822.7 600.567 1822.7 601.189C1822.7 601.811 1822.5 602.309 1822.09 602.682C1821.68 603.055 1821.15 603.242 1820.51 603.242ZM1830.38 614.974C1831.13 615.489 1831.9 615.898 1832.7 616.2C1833.52 616.485 1834.43 616.627 1835.45 616.627C1836.48 616.627 1837.23 616.485 1837.71 616.2C1838.19 615.898 1838.43 615.516 1838.43 615.054C1838.43 614.592 1838.12 614.21 1837.5 613.907C1836.88 613.587 1835.9 613.25 1834.57 612.894C1833.94 612.734 1833.34 612.539 1832.75 612.308C1832.17 612.076 1831.65 611.81 1831.21 611.508C1830.76 611.205 1830.41 610.859 1830.14 610.468C1829.87 610.077 1829.74 609.632 1829.74 609.135C1829.74 607.979 1830.24 607.037 1831.23 606.308C1832.23 605.579 1833.66 605.215 1835.53 605.215C1836.59 605.215 1837.6 605.393 1838.54 605.748C1839.48 606.104 1840.29 606.504 1840.96 606.948L1839.55 608.841C1838.96 608.45 1838.33 608.139 1837.66 607.908C1837 607.659 1836.3 607.535 1835.55 607.535C1834.54 607.535 1833.83 607.677 1833.42 607.961C1833.01 608.228 1832.81 608.566 1832.81 608.975C1832.81 609.206 1832.89 609.419 1833.07 609.614C1833.27 609.792 1833.53 609.961 1833.85 610.121C1834.18 610.263 1834.57 610.406 1835.02 610.548C1835.46 610.69 1835.95 610.823 1836.49 610.948C1837.25 611.143 1837.93 611.365 1838.54 611.614C1839.16 611.845 1839.68 612.112 1840.11 612.414C1840.56 612.716 1840.89 613.072 1841.12 613.481C1841.37 613.89 1841.5 614.361 1841.5 614.894C1841.5 615.463 1841.36 615.996 1841.1 616.494C1840.83 616.974 1840.44 617.4 1839.92 617.774C1839.41 618.129 1838.77 618.414 1838.01 618.627C1837.24 618.84 1836.36 618.947 1835.37 618.947C1834.14 618.947 1832.97 618.751 1831.85 618.36C1830.73 617.969 1829.76 617.489 1828.94 616.92L1830.38 614.974ZM1848.35 607.961H1844.86V605.668L1848.48 605.535L1848.88 601.962H1851.42V605.535H1857.36V607.961H1851.42V613.347C1851.42 614.432 1851.64 615.232 1852.08 615.747C1852.53 616.245 1853.31 616.494 1854.43 616.494C1855 616.494 1855.51 616.449 1855.98 616.36C1856.46 616.254 1856.91 616.121 1857.34 615.961L1857.9 618.2C1857.33 618.396 1856.68 618.565 1855.95 618.707C1855.24 618.867 1854.48 618.947 1853.68 618.947C1852.69 618.947 1851.85 618.814 1851.18 618.547C1850.5 618.28 1849.95 617.907 1849.52 617.427C1849.11 616.929 1848.81 616.334 1848.62 615.641C1848.44 614.947 1848.35 614.183 1848.35 613.347V607.961ZM1862.38 614.974C1863.12 615.489 1863.9 615.898 1864.7 616.2C1865.51 616.485 1866.43 616.627 1867.44 616.627C1868.47 616.627 1869.23 616.485 1869.71 616.2C1870.19 615.898 1870.43 615.516 1870.43 615.054C1870.43 614.592 1870.12 614.21 1869.5 613.907C1868.87 613.587 1867.9 613.25 1866.56 612.894C1865.94 612.734 1865.34 612.539 1864.75 612.308C1864.16 612.076 1863.65 611.81 1863.2 611.508C1862.76 611.205 1862.4 610.859 1862.14 610.468C1861.87 610.077 1861.74 609.632 1861.74 609.135C1861.74 607.979 1862.23 607.037 1863.23 606.308C1864.22 605.579 1865.66 605.215 1867.52 605.215C1868.59 605.215 1869.59 605.393 1870.54 605.748C1871.48 606.104 1872.29 606.504 1872.96 606.948L1871.55 608.841C1870.96 608.45 1870.33 608.139 1869.66 607.908C1869 607.659 1868.3 607.535 1867.55 607.535C1866.54 607.535 1865.82 607.677 1865.42 607.961C1865.01 608.228 1864.8 608.566 1864.8 608.975C1864.8 609.206 1864.89 609.419 1865.07 609.614C1865.26 609.792 1865.52 609.961 1865.84 610.121C1866.18 610.263 1866.57 610.406 1867.02 610.548C1867.46 610.69 1867.95 610.823 1868.48 610.948C1869.25 611.143 1869.93 611.365 1870.54 611.614C1871.16 611.845 1871.68 612.112 1872.11 612.414C1872.55 612.716 1872.89 613.072 1873.12 613.481C1873.37 613.89 1873.49 614.361 1873.49 614.894C1873.49 615.463 1873.36 615.996 1873.09 616.494C1872.83 616.974 1872.44 617.4 1871.92 617.774C1871.41 618.129 1870.77 618.414 1870 618.627C1869.24 618.84 1868.36 618.947 1867.36 618.947C1866.14 618.947 1864.96 618.751 1863.84 618.36C1862.72 617.969 1861.75 617.489 1860.94 616.92L1862.38 614.974ZM1901.44 611.481L1900.83 609.348C1900.58 608.424 1900.32 607.472 1900.05 606.495C1899.79 605.517 1899.53 604.548 1899.28 603.588H1899.17C1898.92 604.566 1898.67 605.544 1898.4 606.521C1898.15 607.481 1897.89 608.424 1897.63 609.348L1897.01 611.481H1901.44ZM1902.13 613.907H1896.32L1894.96 618.627H1891.81L1897.47 601.189H1901.09L1906.74 618.627H1903.47L1902.13 613.907ZM1909.46 605.535H1912L1912.24 607.508H1912.34C1912.97 606.886 1913.65 606.353 1914.4 605.908C1915.16 605.446 1916.05 605.215 1917.06 605.215C1918.57 605.215 1919.69 605.677 1920.4 606.601C1921.11 607.508 1921.46 608.815 1921.46 610.521V618.627H1918.37V610.921C1918.37 609.854 1918.18 609.081 1917.81 608.601C1917.45 608.104 1916.82 607.855 1915.92 607.855C1915.28 607.855 1914.71 608.006 1914.21 608.308C1913.71 608.61 1913.16 609.072 1912.56 609.695V618.627H1909.46L1909.46 605.535ZM1924.69 612.094C1924.69 611.028 1924.85 610.068 1925.17 609.215C1925.49 608.361 1925.92 607.641 1926.45 607.055C1927 606.468 1927.62 606.015 1928.32 605.695C1929.01 605.375 1929.73 605.215 1930.48 605.215C1931.26 605.215 1931.92 605.357 1932.48 605.642C1933.04 605.908 1933.6 606.281 1934.13 606.761L1934 604.548V599.802H1937.09V618.627H1934.56L1934.32 617.107H1934.24C1933.72 617.623 1933.12 618.058 1932.42 618.414C1931.75 618.769 1931.04 618.947 1930.29 618.947C1929.45 618.947 1928.69 618.796 1928 618.494C1927.3 618.174 1926.71 617.72 1926.21 617.134C1925.73 616.547 1925.36 615.836 1925.09 615.001C1924.82 614.147 1924.69 613.179 1924.69 612.094ZM1927.86 612.068C1927.86 613.49 1928.14 614.574 1928.69 615.321C1929.24 616.049 1930.02 616.414 1931.04 616.414C1932.12 616.414 1933.11 615.889 1934 614.841V608.948C1933.53 608.503 1933.07 608.192 1932.61 608.015C1932.15 607.837 1931.68 607.748 1931.2 607.748C1930.73 607.748 1930.3 607.846 1929.89 608.041C1929.5 608.237 1929.15 608.521 1928.85 608.895C1928.55 609.25 1928.31 609.694 1928.13 610.228C1927.95 610.761 1927.86 611.374 1927.86 612.068ZM1958.05 601.189H1969.19V603.802H1961.14V608.255H1967.97V610.868H1961.14V616.014H1969.46V618.627H1958.05V601.189ZM1972.37 605.535H1975.46L1977.99 612.334C1978.24 612.992 1978.46 613.65 1978.66 614.307C1978.87 614.947 1979.08 615.605 1979.3 616.28H1979.4C1979.62 615.605 1979.82 614.947 1980.02 614.307C1980.23 613.65 1980.46 612.992 1980.71 612.334L1983.24 605.535H1986.18L1981.08 618.627H1977.59L1972.37 605.535ZM1988.92 612.094C1988.92 611.028 1989.11 610.068 1989.48 609.214C1989.87 608.361 1990.38 607.641 1991 607.055C1991.63 606.45 1992.34 605.997 1993.14 605.695C1993.95 605.375 1994.79 605.215 1995.64 605.215C1996.62 605.215 1997.48 605.375 1998.23 605.695C1998.99 605.997 1999.63 606.424 2000.15 606.975C2000.66 607.508 2001.06 608.157 2001.32 608.921C2001.59 609.686 2001.72 610.521 2001.72 611.428C2001.72 611.73 2001.7 612.005 2001.67 612.254C2001.65 612.503 2001.63 612.707 2001.59 612.867H1992.07C1992.21 614.058 1992.68 614.974 1993.48 615.614C1994.28 616.254 1995.28 616.574 1996.47 616.574C1997.15 616.574 1997.78 616.485 1998.36 616.307C1998.95 616.112 1999.54 615.845 2000.15 615.507L2001.19 617.427C2000.48 617.871 1999.69 618.236 1998.82 618.52C1997.94 618.805 1997.03 618.947 1996.07 618.947C1995.07 618.947 1994.14 618.796 1993.27 618.494C1992.4 618.174 1991.64 617.72 1991 617.134C1990.36 616.547 1989.86 615.836 1989.48 615.001C1989.11 614.147 1988.92 613.179 1988.92 612.094ZM1998.9 610.921C1998.9 609.872 1998.63 609.055 1998.1 608.468C1997.56 607.881 1996.77 607.588 1995.72 607.588C1995.28 607.588 1994.85 607.659 1994.44 607.801C1994.03 607.944 1993.66 608.157 1993.32 608.441C1993 608.726 1992.73 609.072 1992.5 609.481C1992.27 609.89 1992.11 610.37 1992.04 610.921H1998.9ZM2005.46 605.535H2007.99L2008.23 607.508H2008.33C2008.96 606.886 2009.64 606.353 2010.39 605.908C2011.15 605.446 2012.04 605.215 2013.05 605.215C2014.57 605.215 2015.68 605.677 2016.39 606.601C2017.1 607.508 2017.45 608.815 2017.45 610.521V618.627H2014.36V610.921C2014.36 609.854 2014.17 609.081 2013.8 608.601C2013.45 608.103 2012.81 607.855 2011.91 607.855C2011.27 607.855 2010.7 608.006 2010.2 608.308C2009.7 608.61 2009.15 609.072 2008.55 609.694V618.627H2005.46L2005.46 605.535ZM2024.33 607.961H2020.84V605.668L2024.47 605.535L2024.87 601.962H2027.4V605.535H2033.35V607.961H2027.4V613.347C2027.4 614.432 2027.62 615.232 2028.07 615.747C2028.51 616.245 2029.29 616.494 2030.41 616.494C2030.98 616.494 2031.5 616.449 2031.96 616.36C2032.44 616.254 2032.89 616.12 2033.32 615.96L2033.88 618.2C2033.31 618.396 2032.66 618.565 2031.93 618.707C2031.22 618.867 2030.47 618.947 2029.67 618.947C2028.67 618.947 2027.84 618.814 2027.16 618.547C2026.48 618.28 2025.93 617.907 2025.51 617.427C2025.1 616.929 2024.8 616.334 2024.6 615.641C2024.42 614.947 2024.33 614.183 2024.33 613.347V607.961ZM2038.36 614.974C2039.11 615.489 2039.88 615.898 2040.68 616.2C2041.5 616.485 2042.41 616.627 2043.42 616.627C2044.46 616.627 2045.21 616.485 2045.69 616.2C2046.17 615.898 2046.41 615.516 2046.41 615.054C2046.41 614.592 2046.1 614.21 2045.48 613.907C2044.86 613.587 2043.88 613.25 2042.54 612.894C2041.92 612.734 2041.32 612.539 2040.73 612.308C2040.15 612.076 2039.63 611.81 2039.19 611.508C2038.74 611.205 2038.39 610.859 2038.12 610.468C2037.85 610.077 2037.72 609.632 2037.72 609.135C2037.72 607.979 2038.22 607.037 2039.21 606.308C2040.21 605.579 2041.64 605.215 2043.5 605.215C2044.57 605.215 2045.58 605.393 2046.52 605.748C2047.46 606.104 2048.27 606.504 2048.94 606.948L2047.53 608.841C2046.94 608.45 2046.31 608.139 2045.64 607.908C2044.98 607.659 2044.28 607.535 2043.53 607.535C2042.52 607.535 2041.81 607.677 2041.4 607.961C2040.99 608.228 2040.78 608.566 2040.78 608.975C2040.78 609.206 2040.87 609.419 2041.05 609.614C2041.25 609.792 2041.5 609.961 2041.82 610.121C2042.16 610.263 2042.55 610.405 2043 610.548C2043.44 610.69 2043.93 610.823 2044.46 610.948C2045.23 611.143 2045.91 611.365 2046.52 611.614C2047.14 611.845 2047.66 612.112 2048.09 612.414C2048.54 612.716 2048.87 613.072 2049.1 613.481C2049.35 613.89 2049.48 614.361 2049.48 614.894C2049.48 615.463 2049.34 615.996 2049.08 616.494C2048.81 616.974 2048.42 617.4 2047.9 617.774C2047.39 618.129 2046.75 618.414 2045.98 618.627C2045.22 618.84 2044.34 618.947 2043.34 618.947C2042.12 618.947 2040.94 618.751 2039.82 618.36C2038.71 617.969 2037.74 617.489 2036.92 616.92L2038.36 614.974Z" fill="url(#paint7_linear_2_323)"/>
<defs>
<filter id="filter0_f_2_323" x="1136.12" y="407.666" width="998.13" height="186.716" filterUnits="userSpaceOnUse" color-interpolation-filters="sRGB">
<feFlood flood-opacity="0" result="BackgroundImageFix"/>
<feBlend mode="normal" in="SourceGraphic" in2="BackgroundImageFix" result="shape"/>
<feGaussianBlur stdDeviation="1.09949" result="effect1_foregroundBlur_2_323"/>
</filter>
<filter id="filter1_f_2_323" x="1135.7" y="407.248" width="998.966" height="187.552" filterUnits="userSpaceOnUse" color-interpolation-filters="sRGB">
<feFlood flood-opacity="0" result="BackgroundImageFix"/>
<feBlend mode="normal" in="SourceGraphic" in2="BackgroundImageFix" result="shape"/>
<feGaussianBlur stdDeviation="1.30848" result="effect1_foregroundBlur_2_323"/>
</filter>
<radialGradient id="paint0_radial_2_323" cx="0" cy="0" r="1" gradientUnits="userSpaceOnUse" gradientTransform="translate(1635.19 555.924) scale(1635.19 555.924)">
<stop stop-color="#FEF8EA"/>
<stop offset="0.522911" stop-color="#FEF8EA" stop-opacity="0.348018"/>
<stop offset="1" stop-color="#FEF8EA" stop-opacity="0"/>
</radialGradient>
<linearGradient id="paint1_linear_2_323" x1="2109.83" y1="520.286" x2="2099.54" y2="625.02" gradientUnits="userSpaceOnUse">
<stop stop-color="#F4B011"/>
<stop offset="1" stop-color="#F6E54B" stop-opacity="0.920705"/>
</linearGradient>
<linearGradient id="paint2_linear_2_323" x1="1842.97" y1="-413.291" x2="2028.46" y2="-417.516" gradientUnits="userSpaceOnUse">
<stop stop-color="#F4B011"/>
<stop offset="1" stop-color="#F6E54B" stop-opacity="0.920705"/>
</linearGradient>
<linearGradient id="paint3_linear_2_323" x1="1138.32" y1="501.02" x2="2132.05" y2="501.02" gradientUnits="userSpaceOnUse">
<stop stop-color="#141414"/>
<stop offset="1" stop-color="#2C2C2C"/>
</linearGradient>
<linearGradient id="paint4_linear_2_323" x1="1138.32" y1="501.02" x2="2132.05" y2="501.02" gradientUnits="userSpaceOnUse">
<stop stop-color="#F4B011"/>
<stop offset="1" stop-color="#F6E54B" stop-opacity="0.920705"/>
</linearGradient>
<linearGradient id="paint5_linear_2_323" x1="871.458" y1="-432.557" x2="1865.19" y2="-432.557" gradientUnits="userSpaceOnUse">
<stop stop-color="#141414"/>
<stop offset="1" stop-color="#2C2C2C"/>
</linearGradient>
<linearGradient id="paint6_linear_2_323" x1="871.458" y1="-432.557" x2="1865.19" y2="-432.557" gradientUnits="userSpaceOnUse">
<stop stop-color="#F4B011"/>
<stop offset="1" stop-color="#F6E54B" stop-opacity="0.920705"/>
</linearGradient>
<linearGradient id="paint7_linear_2_323" x1="1220.89" y1="611.561" x2="2049.48" y2="611.561" gradientUnits="userSpaceOnUse">
<stop stop-opacity="0.85022"/>
<stop offset="0.420485" stop-opacity="0.449339"/>
<stop offset="1" stop-opacity="0.894273"/>
</linearGradient>
</defs>
</svg>
