<svg width="3271" height="1112" viewBox="0 0 3271 1112" fill="none" xmlns="http://www.w3.org/2000/svg">
<path opacity="0.60119" d="M3270.37 0H0V1111.85H3270.37V0Z" fill="url(#paint0_radial_36_67)"/>
<path d="M1186.57 573.601C1190.82 573.601 1193.51 572.821 1194.64 571.26C1195.85 569.7 1196.46 567.057 1196.46 563.329V538.106H1188.13V535.245H1225.58V538.106H1220.51V574.771H1218.56C1217 572.604 1214.79 571.52 1211.93 571.52C1210.71 571.52 1207.07 572.301 1201.01 573.861C1195.03 575.421 1189.91 576.201 1185.66 576.201C1171.54 576.201 1160.57 572.387 1152.77 564.76C1145.06 557.132 1141.2 545.69 1141.2 530.435C1141.2 515.092 1145.23 503.261 1153.29 494.939C1161.44 486.618 1172.36 482.458 1186.05 482.458C1191.34 482.458 1196.63 483.151 1201.92 484.538C1207.29 485.838 1210.41 486.488 1211.28 486.488C1212.15 486.488 1212.8 486.315 1213.23 485.968C1213.66 485.535 1214.14 484.841 1214.66 483.888H1216.09L1217.13 512.102H1214.79C1210.54 503.694 1206.25 497.106 1201.92 492.339C1197.67 487.485 1192.9 485.058 1187.61 485.058C1174.35 485.058 1167.72 498.017 1167.72 523.934V534.205C1167.72 547.207 1169.33 557.045 1172.53 563.719C1175.83 570.307 1180.51 573.601 1186.57 573.601ZM1274.6 516.653C1271.39 516.653 1268.57 518.733 1266.15 522.894C1263.72 527.054 1262.51 531.995 1262.51 537.716V572.561H1271.74V574.901H1231.17V572.561H1238.32V515.352H1231.17V513.012H1262.51V525.494C1263.63 521.073 1265.8 517.693 1269.01 515.352C1272.21 512.925 1275.85 511.712 1279.93 511.712C1284 511.712 1287.3 512.882 1289.81 515.223C1292.41 517.476 1293.71 520.727 1293.71 524.974C1293.71 529.134 1292.76 532.342 1290.85 534.595C1288.94 536.849 1286 537.976 1282.01 537.976C1278.11 537.976 1275.2 536.675 1273.3 534.075C1271.48 531.475 1271.26 527.878 1272.65 523.284H1277.33C1279.49 518.863 1278.58 516.653 1274.6 516.653ZM1336.88 549.287V538.236C1336.88 529.828 1336.4 523.717 1335.45 519.903C1334.58 516.003 1332.5 514.052 1329.21 514.052C1327.3 514.052 1325.74 514.616 1324.52 515.742C1323.4 516.783 1322.57 518.56 1322.05 521.073C1321.27 524.974 1320.88 530.911 1320.88 538.886V549.027C1320.88 558.475 1321.14 564.153 1321.66 566.06C1322.27 567.967 1322.88 569.527 1323.48 570.74C1324.44 572.821 1326.3 573.861 1329.08 573.861C1332.46 573.861 1334.67 571.911 1335.71 568.01C1336.49 565.236 1336.88 558.995 1336.88 549.287ZM1328.82 576.201C1317.98 576.201 1309.79 573.427 1304.24 567.88C1298.69 562.333 1295.92 554.401 1295.92 544.087C1295.92 533.685 1298.87 525.711 1304.76 520.163C1310.74 514.529 1319.11 511.712 1329.86 511.712C1340.6 511.712 1348.62 514.312 1353.91 519.513C1359.2 524.627 1361.84 532.472 1361.84 543.046C1361.84 565.15 1350.83 576.201 1328.82 576.201ZM1441.54 574.901H1411.9L1410.47 565.41C1409.08 568.877 1407 571.564 1404.23 573.471C1401.54 575.291 1397.51 576.201 1392.13 576.201C1378.7 576.201 1371.98 568.963 1371.98 554.488V515.352H1364.7V513.012H1396.16V557.609C1396.16 562.809 1396.51 566.233 1397.2 567.88C1397.99 569.527 1399.46 570.35 1401.63 570.35C1403.88 570.35 1405.87 569.007 1407.61 566.32C1409.34 563.633 1410.21 559.906 1410.21 555.138V515.352H1404.23V513.012H1434.39V572.561H1441.54V574.901ZM1491.6 539.926C1491.6 530.998 1491.17 525.017 1490.3 521.983C1489.43 518.863 1487.74 517.303 1485.23 517.303C1482.71 517.303 1480.46 518.95 1478.47 522.243C1476.47 525.451 1475.48 529.785 1475.48 535.245V559.039C1475.48 562.766 1476.21 565.93 1477.69 568.53C1479.16 571.13 1481.33 572.431 1484.19 572.431C1487.05 572.431 1489 570.524 1490.04 566.71C1491.08 562.896 1491.6 556.222 1491.6 546.687V539.926ZM1475.22 513.012V523.284C1478.6 515.569 1484.58 511.712 1493.16 511.712C1500.61 511.712 1506.38 514.399 1510.45 519.773C1514.61 525.147 1516.69 533.295 1516.69 544.217C1516.69 555.138 1514.44 563.199 1509.93 568.4C1505.51 573.601 1498.84 576.201 1489.91 576.201C1485.75 576.201 1482.63 575.681 1480.55 574.641C1478.47 573.601 1476.78 571.997 1475.48 569.83V603.505H1492.25V605.845H1444.14V603.505H1451.29V515.352H1444.4V513.012H1475.22ZM1539.71 504.041C1535.11 504.041 1531.82 502.871 1529.82 500.53C1527.92 498.19 1526.96 495.286 1526.96 491.819C1526.96 488.352 1528 485.492 1530.08 483.238C1532.25 480.984 1535.5 479.857 1539.84 479.857C1544.17 479.857 1547.46 480.898 1549.72 482.978C1551.97 484.971 1553.1 487.875 1553.1 491.689C1553.1 495.416 1552.01 498.407 1549.85 500.66C1547.68 502.914 1544.3 504.041 1539.71 504.041ZM1520.07 513.012H1551.93V572.561H1559.21V574.901H1520.59V572.561H1527.74V515.352H1520.07V513.012ZM1596 576.201C1584.82 576.201 1576.41 573.341 1570.78 567.62C1565.23 561.812 1562.46 553.795 1562.46 543.566C1562.46 533.252 1565.58 525.364 1571.82 519.903C1578.15 514.442 1586.17 511.712 1595.87 511.712C1615.55 511.712 1625 521.593 1624.22 541.356H1587.55V546.427C1587.55 554.921 1588.64 561.336 1590.8 565.67C1592.97 570.004 1596.74 572.171 1602.11 572.171C1612.17 572.171 1618.76 566.796 1621.88 556.048L1624.22 556.438C1622.57 562.679 1619.58 567.533 1615.25 571C1611 574.468 1604.58 576.201 1596 576.201ZM1587.68 538.756H1601.07V532.385C1601.07 525.364 1600.64 520.597 1599.77 518.083C1598.99 515.482 1597.35 514.182 1594.83 514.182C1592.41 514.182 1590.59 515.569 1589.37 518.343C1588.25 521.03 1587.68 525.711 1587.68 532.385V538.756ZM1733.69 483.888L1734.99 516.523H1732.52C1728.71 504.994 1725.33 497.15 1722.38 492.989C1719.43 488.742 1715.19 486.618 1709.64 486.618H1708.08V572.171H1719.13V574.901H1671.67V572.171H1682.73V486.618H1681.04C1675.49 486.618 1671.2 488.829 1668.16 493.249C1665.13 497.583 1661.79 505.341 1658.15 516.523H1655.68L1656.98 483.888H1733.69ZM1781.93 516.653C1778.72 516.653 1775.91 518.733 1773.48 522.894C1771.05 527.054 1769.84 531.995 1769.84 537.716V572.561H1779.07V574.901H1738.5V572.561H1745.65V515.352H1738.5V513.012H1769.84V525.494C1770.97 521.073 1773.13 517.693 1776.34 515.352C1779.55 512.925 1783.19 511.712 1787.26 511.712C1791.33 511.712 1794.63 512.882 1797.14 515.223C1799.74 517.476 1801.04 520.727 1801.04 524.974C1801.04 529.134 1800.09 532.342 1798.18 534.595C1796.28 536.849 1793.33 537.976 1789.34 537.976C1785.44 537.976 1782.54 536.675 1780.63 534.075C1778.81 531.475 1778.59 527.878 1779.98 523.284H1784.66C1786.83 518.863 1785.92 516.653 1781.93 516.653ZM1832.12 544.347H1835.89V534.335C1835.89 526.101 1835.41 520.597 1834.46 517.823C1833.59 514.962 1831.86 513.532 1829.26 513.532C1827.7 513.532 1826.27 513.966 1824.97 514.832C1823.75 515.612 1823.15 516.739 1823.15 518.213C1823.15 519.6 1823.41 521.03 1823.93 522.503H1827.18C1827.87 524.324 1828.22 526.534 1828.22 529.134C1828.22 531.648 1827.13 533.858 1824.97 535.765C1822.8 537.586 1820.07 538.496 1816.78 538.496C1809.32 538.496 1805.59 534.899 1805.59 527.704C1805.59 517.043 1814.65 511.712 1832.77 511.712C1843.08 511.712 1850.19 513.489 1854.09 517.043C1858.08 520.51 1860.07 526.924 1860.07 536.285V562.679C1860.07 567.187 1861.33 569.44 1863.84 569.44C1866.79 569.44 1868.52 564.976 1869.04 556.048L1870.99 556.178C1870.65 563.806 1869.22 569.05 1866.7 571.911C1864.19 574.771 1860.07 576.201 1854.35 576.201C1843.95 576.201 1837.97 572.994 1836.41 566.58C1835.28 569.874 1833.59 572.301 1831.34 573.861C1829.08 575.421 1825.79 576.201 1821.46 576.201C1808.63 576.201 1802.21 570.957 1802.21 560.469C1802.21 554.315 1804.64 550.111 1809.49 547.857C1814.43 545.517 1821.98 544.347 1832.12 544.347ZM1826.92 560.339C1826.92 564.846 1827.13 567.75 1827.57 569.05C1828.09 570.35 1829 571 1830.3 571C1831.68 571 1832.94 569.917 1834.07 567.75C1835.28 565.496 1835.89 562.419 1835.89 558.519V546.427H1834.98C1829.6 546.427 1826.92 550.371 1826.92 558.259V560.339ZM1908.7 514.052C1904.88 514.052 1902.15 516.133 1900.51 520.293C1898.86 524.454 1898.04 531.345 1898.04 540.966V547.727C1898.04 556.308 1898.99 562.463 1900.9 566.19C1902.8 569.917 1906.31 571.781 1911.43 571.781C1916.54 571.781 1920.62 570.047 1923.65 566.58C1926.68 563.113 1928.63 559.169 1929.5 554.748L1931.84 555.008C1930.19 562.463 1927.16 567.837 1922.74 571.13C1918.23 574.511 1912.04 576.201 1904.15 576.201C1894.09 576.201 1886.38 573.514 1881 568.14C1875.63 562.679 1872.94 554.748 1872.94 544.347C1872.94 533.858 1875.98 525.797 1882.04 520.163C1888.2 514.529 1896.74 511.712 1907.66 511.712C1915.37 511.712 1921.27 513.229 1925.34 516.263C1929.41 519.21 1931.45 522.937 1931.45 527.444C1931.45 531.951 1930.45 535.245 1928.46 537.326C1926.55 539.406 1923.87 540.446 1920.4 540.446C1917.02 540.446 1914.29 539.536 1912.21 537.716C1910.13 535.895 1909.09 533.208 1909.09 529.655C1909.09 528.094 1909.31 526.534 1909.74 524.974H1914.03C1914.64 523.24 1914.94 521.68 1914.94 520.293C1914.94 516.133 1912.86 514.052 1908.7 514.052ZM2039.5 576.201C2028.32 576.201 2019.91 573.341 2014.27 567.62C2008.73 561.812 2005.95 553.795 2005.95 543.566C2005.95 533.252 2009.07 525.364 2015.31 519.903C2021.64 514.442 2029.66 511.712 2039.37 511.712C2059.04 511.712 2068.49 521.593 2067.71 541.356H2031.05V546.427C2031.05 554.921 2032.13 561.336 2034.3 565.67C2036.46 570.004 2040.23 572.171 2045.61 572.171C2055.66 572.171 2062.25 566.796 2065.37 556.048L2067.71 556.438C2066.06 562.679 2063.07 567.533 2058.74 571C2054.49 574.468 2048.08 576.201 2039.5 576.201ZM2031.18 538.756H2044.57V532.385C2044.57 525.364 2044.13 520.597 2043.27 518.083C2042.49 515.482 2040.84 514.182 2038.33 514.182C2035.9 514.182 2034.08 515.569 2032.87 518.343C2031.74 521.03 2031.18 525.711 2031.18 532.385V538.756ZM2115.82 516.653C2112.61 516.653 2109.79 518.733 2107.37 522.894C2104.94 527.054 2103.73 531.995 2103.73 537.716V572.561H2112.96V574.901H2072.39V572.561H2079.54V515.352H2072.39V513.012H2103.73V525.494C2104.85 521.073 2107.02 517.693 2110.23 515.352C2113.43 512.925 2117.07 511.712 2121.15 511.712C2125.22 511.712 2128.52 512.882 2131.03 515.223C2133.63 517.476 2134.93 520.727 2134.93 524.974C2134.93 529.134 2133.98 532.342 2132.07 534.595C2130.16 536.849 2127.22 537.976 2123.23 537.976C2119.33 537.976 2116.42 536.675 2114.52 534.075C2112.7 531.475 2112.48 527.878 2113.87 523.284H2118.55C2120.72 518.863 2119.81 516.653 2115.82 516.653Z" fill="url(#paint1_linear_36_67)"/>
<mask id="mask0_36_67" style="mask-type:luminance" maskUnits="userSpaceOnUse" x="913" y="36" width="1543" height="684">
<path d="M2442.79 36H925.307C918.51 36 913 41.5098 913 48.3065V707.581C913 714.377 918.51 719.887 925.307 719.887H2442.79C2449.59 719.887 2455.1 714.377 2455.1 707.581V48.3065C2455.1 41.5098 2449.59 36 2442.79 36Z" fill="white"/>
</mask>
<g mask="url(#mask0_36_67)">
<path d="M1977.4 533.573C1976.36 527.892 1975.86 521.714 1974.87 515.943C1983.62 507.15 1993.81 495.472 1994.89 476.849C1995.25 470.446 1993.94 465.08 1992.37 459.219C1991.28 455.16 1988.4 444.294 1984.07 446.052C1968.92 452.23 1965.36 482.125 1969.64 501.108C1959.18 511.885 1941.5 522.706 1938.84 543.629C1937.45 554.631 1940.96 564.325 1945.97 571.405C1952.42 580.558 1964.86 588.765 1980.64 585.157C1982.58 598.369 1987.5 617.803 1974.69 623.349C1970 625.378 1959.45 625.559 1958.41 619.516C1972.53 621.726 1972.48 601.931 1962.47 599.586C1954.17 597.602 1949.21 605.719 1948.85 611.084C1948.18 621.14 1957.69 628.399 1968.15 628.174C1979.38 627.948 1987.32 621.095 1987 606.936C1986.82 599.09 1984.52 593.003 1984.16 584.03C1993.22 579.701 2001.34 573.479 2002.42 561.124C2003.68 546.424 1994.49 532.626 1977.4 533.573ZM1979.88 464.449C1983.93 460.526 1990.79 460.932 1991.1 468.192C1991.42 475.226 1987.77 481.493 1984.38 486.363C1980.87 491.413 1977.17 495.787 1972.57 498.448C1970 487.445 1973.43 470.762 1979.88 464.449ZM1945.7 554.901C1946.24 545.568 1950.57 538.759 1955.17 533.258C1960.13 527.306 1966.12 522.752 1971.76 518.288C1972.75 523.338 1973.25 528.884 1973.92 534.25C1966.3 537.632 1957.69 543.629 1958.05 555.938C1958.19 560.177 1959.95 564.28 1962.34 567.482C1964.54 570.367 1967.88 573.93 1971.8 573.389C1971.62 570.999 1968.74 570.413 1967.3 568.97C1960.04 561.981 1965.49 547.552 1975.68 546.334C1977.08 558.283 1978.75 569.917 1980.24 581.775C1958.55 585.067 1944.66 571.54 1945.7 554.901ZM1983.48 580.603C1982.27 568.834 1980.24 557.742 1979.11 545.883C1983.48 546.424 1987.23 548.048 1989.84 550.482C1998.86 558.96 1995.12 577.537 1983.48 580.603Z" fill="url(#paint2_linear_36_67)"/>
</g>
<path d="M1186.57 573.597C1190.82 573.597 1193.51 572.817 1194.64 571.257C1195.85 569.696 1196.46 567.053 1196.46 563.325V538.102H1188.13V535.241H1225.58V538.102H1220.51V574.767H1218.56C1217 572.6 1214.79 571.517 1211.93 571.517C1210.71 571.517 1207.07 572.297 1201.01 573.857C1195.03 575.417 1189.91 576.197 1185.66 576.197C1171.54 576.197 1160.57 572.383 1152.77 564.756C1145.06 557.128 1141.2 545.686 1141.2 530.431C1141.2 515.089 1145.23 503.257 1153.29 494.936C1161.44 486.614 1172.36 482.454 1186.05 482.454C1191.34 482.454 1196.63 483.147 1201.92 484.534C1207.29 485.834 1210.41 486.484 1211.28 486.484C1212.15 486.484 1212.8 486.311 1213.23 485.964C1213.66 485.531 1214.14 484.838 1214.66 483.884H1216.09L1217.13 512.098H1214.79C1210.54 503.69 1206.25 497.103 1201.92 492.335C1197.67 487.481 1192.9 485.054 1187.61 485.054C1174.35 485.054 1167.72 498.013 1167.72 523.93V534.201C1167.72 547.203 1169.33 557.041 1172.53 563.715C1175.83 570.303 1180.51 573.597 1186.57 573.597ZM1274.6 516.649C1271.39 516.649 1268.57 518.729 1266.15 522.89C1263.72 527.05 1262.51 531.991 1262.51 537.712V572.557H1271.74V574.897H1231.17V572.557H1238.32V515.349H1231.17V513.008H1262.51V525.49C1263.63 521.069 1265.8 517.689 1269.01 515.349C1272.21 512.922 1275.85 511.708 1279.93 511.708C1284 511.708 1287.3 512.878 1289.81 515.219C1292.41 517.472 1293.71 520.723 1293.71 524.97C1293.71 529.131 1292.76 532.338 1290.85 534.591C1288.94 536.845 1286 537.972 1282.01 537.972C1278.11 537.972 1275.2 536.672 1273.3 534.071C1271.48 531.471 1271.26 527.874 1272.65 523.28H1277.33C1279.49 518.859 1278.58 516.649 1274.6 516.649ZM1336.88 549.283V538.232C1336.88 529.824 1336.4 523.713 1335.45 519.899C1334.58 515.999 1332.5 514.048 1329.21 514.048C1327.3 514.048 1325.74 514.612 1324.52 515.739C1323.4 516.779 1322.57 518.556 1322.05 521.069C1321.27 524.97 1320.88 530.907 1320.88 538.882V549.023C1320.88 558.471 1321.14 564.149 1321.66 566.056C1322.27 567.963 1322.88 569.523 1323.48 570.736C1324.44 572.817 1326.3 573.857 1329.08 573.857C1332.46 573.857 1334.67 571.907 1335.71 568.006C1336.49 565.232 1336.88 558.991 1336.88 549.283ZM1328.82 576.197C1317.98 576.197 1309.79 573.424 1304.24 567.876C1298.69 562.329 1295.92 554.397 1295.92 544.083C1295.92 533.681 1298.87 525.707 1304.76 520.159C1310.74 514.525 1319.11 511.708 1329.86 511.708C1340.6 511.708 1348.62 514.308 1353.91 519.509C1359.2 524.623 1361.84 532.468 1361.84 543.043C1361.84 565.146 1350.83 576.197 1328.82 576.197ZM1441.54 574.897H1411.9L1410.47 565.406C1409.08 568.873 1407 571.56 1404.23 573.467C1401.54 575.287 1397.51 576.197 1392.13 576.197C1378.7 576.197 1371.98 568.96 1371.98 554.484V515.349H1364.7V513.008H1396.16V557.605C1396.16 562.805 1396.51 566.229 1397.2 567.876C1397.99 569.523 1399.46 570.346 1401.63 570.346C1403.88 570.346 1405.87 569.003 1407.61 566.316C1409.34 563.629 1410.21 559.902 1410.21 555.134V515.349H1404.23V513.008H1434.39V572.557H1441.54V574.897ZM1491.6 539.922C1491.6 530.994 1491.17 525.013 1490.3 521.98C1489.43 518.859 1487.74 517.299 1485.23 517.299C1482.71 517.299 1480.46 518.946 1478.47 522.24C1476.47 525.447 1475.48 529.781 1475.48 535.241V559.035C1475.48 562.762 1476.21 565.926 1477.69 568.526C1479.16 571.127 1481.33 572.427 1484.19 572.427C1487.05 572.427 1489 570.52 1490.04 566.706C1491.08 562.892 1491.6 556.218 1491.6 546.683V539.922ZM1475.22 513.008V523.28C1478.6 515.565 1484.58 511.708 1493.16 511.708C1500.61 511.708 1506.38 514.395 1510.45 519.769C1514.61 525.143 1516.69 533.291 1516.69 544.213C1516.69 555.134 1514.44 563.195 1509.93 568.396C1505.51 573.597 1498.84 576.197 1489.91 576.197C1485.75 576.197 1482.63 575.677 1480.55 574.637C1478.47 573.597 1476.78 571.993 1475.48 569.826V603.501H1492.25V605.842H1444.14V603.501H1451.29V515.349H1444.4V513.008H1475.22ZM1539.71 504.037C1535.11 504.037 1531.82 502.867 1529.82 500.526C1527.92 498.186 1526.96 495.282 1526.96 491.815C1526.96 488.348 1528 485.488 1530.08 483.234C1532.25 480.98 1535.5 479.854 1539.84 479.854C1544.17 479.854 1547.46 480.894 1549.72 482.974C1551.97 484.968 1553.1 487.871 1553.1 491.685C1553.1 495.412 1552.01 498.403 1549.85 500.656C1547.68 502.91 1544.3 504.037 1539.71 504.037ZM1520.07 513.008H1551.93V572.557H1559.21V574.897H1520.59V572.557H1527.74V515.349H1520.07V513.008ZM1596 576.197C1584.82 576.197 1576.41 573.337 1570.78 567.616C1565.23 561.809 1562.46 553.791 1562.46 543.563C1562.46 533.248 1565.58 525.36 1571.82 519.899C1578.15 514.438 1586.17 511.708 1595.87 511.708C1615.55 511.708 1625 521.589 1624.22 541.352H1587.55V546.423C1587.55 554.918 1588.64 561.332 1590.8 565.666C1592.97 570 1596.74 572.167 1602.11 572.167C1612.17 572.167 1618.76 566.793 1621.88 556.044L1624.22 556.434C1622.57 562.675 1619.58 567.529 1615.25 570.997C1611 574.464 1604.58 576.197 1596 576.197ZM1587.68 538.752H1601.07V532.381C1601.07 525.36 1600.64 520.593 1599.77 518.079C1598.99 515.479 1597.35 514.178 1594.83 514.178C1592.41 514.178 1590.59 515.565 1589.37 518.339C1588.25 521.026 1587.68 525.707 1587.68 532.381V538.752ZM1733.69 483.884L1734.99 516.519H1732.52C1728.71 504.99 1725.33 497.146 1722.38 492.985C1719.43 488.738 1715.19 486.614 1709.64 486.614H1708.08V572.167H1719.13V574.897H1671.67V572.167H1682.73V486.614H1681.04C1675.49 486.614 1671.2 488.825 1668.16 493.245C1665.13 497.579 1661.79 505.337 1658.15 516.519H1655.68L1656.98 483.884H1733.69ZM1781.93 516.649C1778.72 516.649 1775.91 518.729 1773.48 522.89C1771.05 527.05 1769.84 531.991 1769.84 537.712V572.557H1779.07V574.897H1738.5V572.557H1745.65V515.349H1738.5V513.008H1769.84V525.49C1770.97 521.069 1773.13 517.689 1776.34 515.349C1779.55 512.922 1783.19 511.708 1787.26 511.708C1791.33 511.708 1794.63 512.878 1797.14 515.219C1799.74 517.472 1801.04 520.723 1801.04 524.97C1801.04 529.131 1800.09 532.338 1798.18 534.591C1796.28 536.845 1793.33 537.972 1789.34 537.972C1785.44 537.972 1782.54 536.672 1780.63 534.071C1778.81 531.471 1778.59 527.874 1779.98 523.28H1784.66C1786.83 518.859 1785.92 516.649 1781.93 516.649ZM1832.12 544.343H1835.89V534.331C1835.89 526.097 1835.41 520.593 1834.46 517.819C1833.59 514.959 1831.86 513.528 1829.26 513.528C1827.7 513.528 1826.27 513.962 1824.97 514.828C1823.75 515.609 1823.15 516.735 1823.15 518.209C1823.15 519.596 1823.41 521.026 1823.93 522.5H1827.18C1827.87 524.32 1828.22 526.53 1828.22 529.131C1828.22 531.644 1827.13 533.855 1824.97 535.761C1822.8 537.582 1820.07 538.492 1816.78 538.492C1809.32 538.492 1805.59 534.895 1805.59 527.7C1805.59 517.039 1814.65 511.708 1832.77 511.708C1843.08 511.708 1850.19 513.485 1854.09 517.039C1858.08 520.506 1860.07 526.92 1860.07 536.282V562.675C1860.07 567.183 1861.33 569.436 1863.84 569.436C1866.79 569.436 1868.52 564.972 1869.04 556.044L1870.99 556.174C1870.65 563.802 1869.22 569.046 1866.7 571.907C1864.19 574.767 1860.07 576.197 1854.35 576.197C1843.95 576.197 1837.97 572.99 1836.41 566.576C1835.28 569.87 1833.59 572.297 1831.34 573.857C1829.08 575.417 1825.79 576.197 1821.46 576.197C1808.63 576.197 1802.21 570.953 1802.21 560.465C1802.21 554.311 1804.64 550.107 1809.49 547.853C1814.43 545.513 1821.98 544.343 1832.12 544.343ZM1826.92 560.335C1826.92 564.842 1827.13 567.746 1827.57 569.046C1828.09 570.346 1829 570.997 1830.3 570.997C1831.68 570.997 1832.94 569.913 1834.07 567.746C1835.28 565.492 1835.89 562.415 1835.89 558.515V546.423H1834.98C1829.6 546.423 1826.92 550.367 1826.92 558.255V560.335ZM1908.7 514.048C1904.88 514.048 1902.15 516.129 1900.51 520.289C1898.86 524.45 1898.04 531.341 1898.04 540.962V547.723C1898.04 556.304 1898.99 562.459 1900.9 566.186C1902.8 569.913 1906.31 571.777 1911.43 571.777C1916.54 571.777 1920.62 570.043 1923.65 566.576C1926.68 563.109 1928.63 559.165 1929.5 554.744L1931.84 555.004C1930.19 562.459 1927.16 567.833 1922.74 571.127C1918.23 574.507 1912.04 576.197 1904.15 576.197C1894.09 576.197 1886.38 573.51 1881 568.136C1875.63 562.675 1872.94 554.744 1872.94 544.343C1872.94 533.855 1875.98 525.793 1882.04 520.159C1888.2 514.525 1896.74 511.708 1907.66 511.708C1915.37 511.708 1921.27 513.225 1925.34 516.259C1929.41 519.206 1931.45 522.933 1931.45 527.44C1931.45 531.948 1930.45 535.241 1928.46 537.322C1926.55 539.402 1923.87 540.442 1920.4 540.442C1917.02 540.442 1914.29 539.532 1912.21 537.712C1910.13 535.891 1909.09 533.204 1909.09 529.651C1909.09 528.09 1909.31 526.53 1909.74 524.97H1914.03C1914.64 523.236 1914.94 521.676 1914.94 520.289C1914.94 516.129 1912.86 514.048 1908.7 514.048ZM2039.5 576.197C2028.32 576.197 2019.91 573.337 2014.27 567.616C2008.73 561.809 2005.95 553.791 2005.95 543.563C2005.95 533.248 2009.07 525.36 2015.31 519.899C2021.64 514.438 2029.66 511.708 2039.37 511.708C2059.04 511.708 2068.49 521.589 2067.71 541.352H2031.05V546.423C2031.05 554.918 2032.13 561.332 2034.3 565.666C2036.46 570 2040.23 572.167 2045.61 572.167C2055.66 572.167 2062.25 566.793 2065.37 556.044L2067.71 556.434C2066.06 562.675 2063.07 567.529 2058.74 570.997C2054.49 574.464 2048.08 576.197 2039.5 576.197ZM2031.18 538.752H2044.57V532.381C2044.57 525.36 2044.13 520.593 2043.27 518.079C2042.49 515.479 2040.84 514.178 2038.33 514.178C2035.9 514.178 2034.08 515.565 2032.87 518.339C2031.74 521.026 2031.18 525.707 2031.18 532.381V538.752ZM2115.82 516.649C2112.61 516.649 2109.79 518.729 2107.37 522.89C2104.94 527.05 2103.73 531.991 2103.73 537.712V572.557H2112.96V574.897H2072.39V572.557H2079.54V515.349H2072.39V513.008H2103.73V525.49C2104.85 521.069 2107.02 517.689 2110.23 515.349C2113.43 512.922 2117.07 511.708 2121.15 511.708C2125.22 511.708 2128.52 512.878 2131.03 515.219C2133.63 517.472 2134.93 520.723 2134.93 524.97C2134.93 529.131 2133.98 532.338 2132.07 534.591C2130.16 536.845 2127.22 537.972 2123.23 537.972C2119.33 537.972 2116.42 536.672 2114.52 534.071C2112.7 531.471 2112.48 527.874 2113.87 523.28H2118.55C2120.72 518.859 2119.81 516.649 2115.82 516.649Z" fill="url(#paint3_linear_36_67)" stroke="url(#paint4_linear_36_67)" stroke-width="0.699999" stroke-miterlimit="3.1" stroke-linecap="square"/>
<path d="M1977.4 533.57C1976.36 527.888 1975.86 521.711 1974.87 515.939C1983.62 507.146 1993.81 495.468 1994.89 476.845C1995.25 470.442 1993.94 465.077 1992.37 459.215C1991.28 455.157 1988.4 444.29 1984.07 446.048C1968.92 452.226 1965.36 482.121 1969.64 501.104C1959.18 511.881 1941.5 522.703 1938.84 543.625C1937.45 554.627 1940.96 564.322 1945.97 571.401C1952.42 580.554 1964.86 588.761 1980.64 585.153C1982.58 598.365 1987.5 617.799 1974.69 623.345C1970 625.374 1959.45 625.555 1958.41 619.513C1972.53 621.722 1972.48 601.927 1962.47 599.583C1954.17 597.599 1949.21 605.715 1948.85 611.081C1948.18 621.136 1957.69 628.396 1968.15 628.17C1979.38 627.945 1987.32 621.091 1987 606.932C1986.82 599.087 1984.52 592.999 1984.16 584.026C1993.22 579.698 2001.34 573.475 2002.42 561.12C2003.68 546.42 1994.49 532.623 1977.4 533.57ZM1979.88 464.445C1983.93 460.522 1990.79 460.928 1991.1 468.188C1991.42 475.222 1987.77 481.49 1984.38 486.359C1980.87 491.41 1977.17 495.783 1972.57 498.444C1970 487.442 1973.43 470.758 1979.88 464.445ZM1945.7 554.898C1946.24 545.564 1950.57 538.755 1955.17 533.254C1960.13 527.302 1966.12 522.748 1971.76 518.284C1972.75 523.334 1973.25 528.88 1973.92 534.246C1966.3 537.628 1957.69 543.625 1958.05 555.935C1958.19 560.173 1959.95 564.276 1962.34 567.478C1964.54 570.364 1967.88 573.926 1971.8 573.385C1971.62 570.995 1968.74 570.409 1967.3 568.966C1960.04 561.977 1965.49 547.548 1975.68 546.33C1977.08 558.279 1978.75 569.913 1980.24 581.772C1958.55 585.063 1944.66 571.536 1945.7 554.898ZM1983.48 580.599C1982.27 568.831 1980.24 557.738 1979.11 545.879C1983.48 546.42 1987.23 548.044 1989.84 550.479C1998.86 558.956 1995.12 577.533 1983.48 580.599Z" fill="url(#paint5_linear_36_67)" stroke="url(#paint6_linear_36_67)" stroke-width="0.699999"/>
<path d="M1225.58 650.277C1226.24 650.863 1226.98 651.343 1227.8 651.717C1228.63 652.072 1229.48 652.25 1230.33 652.25C1231.4 652.25 1232.21 652.046 1232.76 651.637C1233.31 651.228 1233.58 650.686 1233.58 650.01C1233.58 649.655 1233.51 649.352 1233.37 649.104C1233.23 648.855 1233.02 648.641 1232.76 648.464C1232.51 648.268 1232.2 648.09 1231.82 647.93C1231.47 647.77 1231.08 647.61 1230.65 647.45L1228.28 646.411C1227.82 646.233 1227.36 646.011 1226.92 645.744C1226.47 645.477 1226.07 645.157 1225.72 644.784C1225.36 644.411 1225.08 643.975 1224.86 643.477C1224.65 642.98 1224.54 642.411 1224.54 641.771C1224.54 641.078 1224.7 640.438 1225 639.851C1225.3 639.247 1225.72 638.722 1226.25 638.278C1226.78 637.834 1227.42 637.487 1228.14 637.238C1228.89 636.989 1229.71 636.865 1230.6 636.865C1231.66 636.865 1232.68 637.069 1233.64 637.478C1234.61 637.869 1235.47 638.402 1236.2 639.078L1234.6 641.051C1234.01 640.589 1233.4 640.224 1232.76 639.958C1232.12 639.691 1231.4 639.558 1230.6 639.558C1229.69 639.558 1228.97 639.745 1228.44 640.118C1227.92 640.473 1227.66 640.971 1227.66 641.611C1227.66 641.949 1227.74 642.242 1227.9 642.491C1228.06 642.722 1228.28 642.935 1228.54 643.131C1228.83 643.309 1229.15 643.469 1229.5 643.611C1229.88 643.753 1230.26 643.904 1230.65 644.064L1232.94 645.051C1233.49 645.264 1234 645.513 1234.46 645.797C1234.93 646.082 1235.33 646.411 1235.66 646.784C1236 647.157 1236.26 647.593 1236.44 648.09C1236.63 648.57 1236.73 649.13 1236.73 649.77C1236.73 650.481 1236.58 651.148 1236.28 651.77C1235.99 652.392 1235.57 652.943 1235.02 653.423C1234.47 653.885 1233.8 654.259 1233 654.543C1232.2 654.81 1231.29 654.943 1230.28 654.943C1229.05 654.943 1227.88 654.721 1226.76 654.276C1225.64 653.832 1224.64 653.201 1223.77 652.383L1225.58 650.277ZM1243.29 643.957H1239.8V641.664L1243.42 641.531L1243.82 637.958H1246.36V641.531H1252.3V643.957H1246.36V649.344C1246.36 650.428 1246.58 651.228 1247.02 651.743C1247.47 652.241 1248.25 652.49 1249.37 652.49C1249.94 652.49 1250.45 652.445 1250.92 652.357C1251.4 652.25 1251.85 652.117 1252.28 651.957L1252.84 654.196C1252.27 654.392 1251.62 654.561 1250.89 654.703C1250.18 654.863 1249.42 654.943 1248.62 654.943C1247.63 654.943 1246.79 654.81 1246.12 654.543C1245.44 654.276 1244.89 653.903 1244.46 653.423C1244.05 652.925 1243.75 652.33 1243.56 651.637C1243.38 650.943 1243.29 650.179 1243.29 649.344V643.957ZM1256.11 651.103C1256.11 650.375 1256.28 649.735 1256.62 649.184C1256.96 648.615 1257.49 648.135 1258.22 647.744C1258.95 647.353 1259.88 647.033 1261.02 646.784C1262.16 646.535 1263.54 646.357 1265.15 646.251C1265.1 645.504 1264.83 644.891 1264.35 644.411C1263.87 643.931 1263.1 643.691 1262.03 643.691C1261.29 643.691 1260.55 643.833 1259.82 644.117C1259.11 644.384 1258.42 644.704 1257.74 645.077L1256.62 643.024C1257.42 642.562 1258.34 642.144 1259.37 641.771C1260.4 641.398 1261.47 641.211 1262.59 641.211C1264.43 641.211 1265.82 641.7 1266.78 642.678C1267.74 643.637 1268.22 645.033 1268.22 646.864V654.623H1265.71L1265.47 652.997H1265.39C1264.7 653.53 1263.93 653.992 1263.07 654.383C1262.24 654.756 1261.38 654.943 1260.49 654.943C1259.85 654.943 1259.26 654.845 1258.73 654.65C1258.19 654.472 1257.73 654.214 1257.34 653.876C1256.95 653.539 1256.65 653.139 1256.43 652.677C1256.22 652.197 1256.11 651.672 1256.11 651.103ZM1259.07 650.863C1259.07 651.45 1259.3 651.877 1259.74 652.143C1260.2 652.41 1260.76 652.543 1261.42 652.543C1262.08 652.543 1262.71 652.401 1263.31 652.117C1263.94 651.814 1264.55 651.423 1265.15 650.943V648.17C1263.98 648.259 1263 648.384 1262.22 648.544C1261.44 648.686 1260.82 648.872 1260.35 649.104C1259.89 649.335 1259.56 649.601 1259.37 649.904C1259.17 650.188 1259.07 650.508 1259.07 650.863ZM1272.59 657.343C1272.77 657.396 1272.95 657.441 1273.13 657.476C1273.3 657.512 1273.49 657.529 1273.69 657.529C1274.52 657.529 1275.19 657.316 1275.69 656.889C1276.18 656.481 1276.57 655.947 1276.83 655.29L1277.15 654.463L1271.29 641.531H1274.35L1277.05 647.957C1277.3 648.544 1277.53 649.166 1277.77 649.823C1278 650.481 1278.24 651.139 1278.49 651.797H1278.59C1278.79 651.174 1279 650.535 1279.23 649.877C1279.46 649.219 1279.69 648.579 1279.9 647.957L1282.27 641.531H1285.18L1279.71 655.21C1279.43 655.956 1279.11 656.623 1278.75 657.209C1278.41 657.796 1278.01 658.294 1277.55 658.703C1277.09 659.129 1276.56 659.449 1275.95 659.662C1275.35 659.894 1274.66 660.009 1273.87 660.009C1273.52 660.009 1273.18 659.982 1272.86 659.929C1272.54 659.894 1272.26 659.831 1272.01 659.742L1272.59 657.343ZM1303.82 645.957C1303.82 644.535 1304.02 643.264 1304.43 642.144C1304.84 641.007 1305.4 640.047 1306.11 639.265C1306.84 638.482 1307.69 637.887 1308.67 637.478C1309.67 637.069 1310.74 636.865 1311.9 636.865C1312.96 636.865 1313.91 637.087 1314.75 637.531C1315.58 637.976 1316.29 638.482 1316.86 639.051L1315.12 640.971C1314.7 640.544 1314.22 640.207 1313.68 639.958C1313.17 639.691 1312.57 639.558 1311.9 639.558C1311.17 639.558 1310.5 639.709 1309.9 640.011C1309.29 640.296 1308.78 640.713 1308.35 641.264C1307.92 641.798 1307.59 642.455 1307.34 643.237C1307.11 644.02 1306.99 644.9 1306.99 645.877C1306.99 646.873 1307.11 647.77 1307.34 648.57C1307.59 649.352 1307.92 650.019 1308.35 650.57C1308.79 651.103 1309.32 651.521 1309.92 651.823C1310.55 652.108 1311.23 652.25 1311.98 652.25C1312.69 652.25 1313.32 652.099 1313.87 651.797C1314.44 651.494 1314.97 651.068 1315.47 650.517L1317.18 652.41C1316.46 653.228 1315.66 653.859 1314.78 654.303C1313.89 654.73 1312.89 654.943 1311.79 654.943C1310.67 654.943 1309.62 654.747 1308.64 654.356C1307.68 653.965 1306.84 653.388 1306.11 652.623C1305.4 651.859 1304.84 650.917 1304.43 649.797C1304.02 648.677 1303.82 647.397 1303.82 645.957ZM1319.63 648.09C1319.63 647.006 1319.81 646.037 1320.16 645.184C1320.54 644.331 1321.02 643.611 1321.63 643.024C1322.23 642.438 1322.93 641.993 1323.73 641.691C1324.53 641.371 1325.36 641.211 1326.21 641.211C1327.07 641.211 1327.89 641.371 1328.69 641.691C1329.49 641.993 1330.2 642.438 1330.8 643.024C1331.41 643.611 1331.89 644.331 1332.24 645.184C1332.61 646.037 1332.8 647.006 1332.8 648.09C1332.8 649.175 1332.61 650.143 1332.24 650.997C1331.89 651.85 1331.41 652.57 1330.8 653.156C1330.2 653.743 1329.49 654.188 1328.69 654.49C1327.89 654.792 1327.07 654.943 1326.21 654.943C1325.36 654.943 1324.53 654.792 1323.73 654.49C1322.93 654.188 1322.23 653.743 1321.63 653.156C1321.02 652.57 1320.54 651.85 1320.16 650.997C1319.81 650.143 1319.63 649.175 1319.63 648.09ZM1322.8 648.09C1322.8 649.406 1323.1 650.463 1323.71 651.263C1324.31 652.046 1325.15 652.437 1326.21 652.437C1327.28 652.437 1328.12 652.046 1328.72 651.263C1329.33 650.463 1329.63 649.406 1329.63 648.09C1329.63 646.757 1329.33 645.699 1328.72 644.917C1328.12 644.117 1327.28 643.717 1326.21 643.717C1325.15 643.717 1324.31 644.117 1323.71 644.917C1323.1 645.699 1322.8 646.757 1322.8 648.09ZM1336.4 641.531H1338.93L1339.17 643.504H1339.28C1339.9 642.882 1340.59 642.349 1341.33 641.904C1342.1 641.442 1342.99 641.211 1344 641.211C1345.51 641.211 1346.62 641.673 1347.33 642.598C1348.04 643.504 1348.4 644.811 1348.4 646.517V654.623H1345.31V646.917C1345.31 645.851 1345.12 645.077 1344.75 644.597C1344.39 644.1 1343.76 643.851 1342.85 643.851C1342.21 643.851 1341.64 644.002 1341.15 644.304C1340.65 644.606 1340.1 645.068 1339.49 645.691V654.623H1336.4L1336.4 641.531ZM1352.4 641.531H1354.93L1355.17 643.504H1355.28C1355.9 642.882 1356.58 642.349 1357.33 641.904C1358.1 641.442 1358.98 641.211 1360 641.211C1361.51 641.211 1362.62 641.673 1363.33 642.598C1364.04 643.504 1364.4 644.811 1364.4 646.517V654.623H1361.3V646.917C1361.3 645.851 1361.12 645.077 1360.74 644.597C1360.39 644.1 1359.76 643.851 1358.85 643.851C1358.21 643.851 1357.64 644.002 1357.14 644.304C1356.65 644.606 1356.1 645.068 1355.49 645.691V654.623H1352.4V641.531ZM1367.86 648.09C1367.86 647.024 1368.05 646.064 1368.42 645.211C1368.81 644.357 1369.32 643.637 1369.94 643.051C1370.57 642.446 1371.28 641.993 1372.08 641.691C1372.89 641.371 1373.73 641.211 1374.58 641.211C1375.56 641.211 1376.42 641.371 1377.17 641.691C1377.93 641.993 1378.57 642.42 1379.09 642.971C1379.6 643.504 1380 644.153 1380.26 644.917C1380.53 645.682 1380.66 646.517 1380.66 647.424C1380.66 647.726 1380.64 648.001 1380.61 648.25C1380.59 648.499 1380.57 648.704 1380.53 648.864H1371.01C1371.15 650.055 1371.62 650.97 1372.42 651.61C1373.22 652.25 1374.22 652.57 1375.41 652.57C1376.09 652.57 1376.72 652.481 1377.3 652.303C1377.89 652.108 1378.49 651.841 1379.09 651.503L1380.13 653.423C1379.42 653.868 1378.63 654.232 1377.76 654.516C1376.89 654.801 1375.97 654.943 1375.01 654.943C1374.01 654.943 1373.08 654.792 1372.21 654.49C1371.34 654.17 1370.58 653.716 1369.94 653.13C1369.3 652.543 1368.8 651.832 1368.42 650.997C1368.05 650.143 1367.86 649.175 1367.86 648.09ZM1377.84 646.917C1377.84 645.868 1377.57 645.051 1377.04 644.464C1376.5 643.877 1375.71 643.584 1374.66 643.584C1374.22 643.584 1373.79 643.655 1373.38 643.797C1372.97 643.94 1372.6 644.153 1372.26 644.437C1371.94 644.722 1371.67 645.068 1371.44 645.477C1371.21 645.886 1371.05 646.366 1370.98 646.917H1377.84ZM1384.16 648.09C1384.16 647.006 1384.35 646.037 1384.74 645.184C1385.15 644.331 1385.69 643.611 1386.37 643.024C1387.04 642.438 1387.84 641.993 1388.74 641.691C1389.65 641.371 1390.6 641.211 1391.59 641.211C1392.66 641.211 1393.59 641.389 1394.39 641.744C1395.21 642.1 1395.9 642.535 1396.45 643.051L1394.98 644.971C1394.47 644.562 1393.94 644.251 1393.41 644.037C1392.89 643.824 1392.34 643.717 1391.75 643.717C1390.44 643.717 1389.37 644.117 1388.56 644.917C1387.74 645.699 1387.33 646.757 1387.33 648.09C1387.33 648.748 1387.44 649.344 1387.65 649.877C1387.86 650.41 1388.16 650.872 1388.53 651.263C1388.92 651.637 1389.38 651.93 1389.91 652.143C1390.45 652.339 1391.03 652.437 1391.67 652.437C1392.42 652.437 1393.1 652.294 1393.7 652.01C1394.32 651.726 1394.89 651.388 1395.41 650.997L1396.69 652.97C1395.94 653.628 1395.11 654.125 1394.18 654.463C1393.26 654.783 1392.32 654.943 1391.38 654.943C1390.35 654.943 1389.39 654.792 1388.5 654.49C1387.63 654.188 1386.87 653.743 1386.21 653.156C1385.57 652.57 1385.06 651.85 1384.69 650.997C1384.33 650.143 1384.16 649.175 1384.16 648.09ZM1403.27 643.957H1399.78V641.664L1403.41 641.531L1403.81 637.958H1406.34V641.531H1412.29V643.957H1406.34V649.344C1406.34 650.428 1406.56 651.228 1407.01 651.743C1407.45 652.241 1408.23 652.49 1409.35 652.49C1409.92 652.49 1410.44 652.445 1410.9 652.357C1411.38 652.25 1411.83 652.117 1412.26 651.957L1412.82 654.196C1412.25 654.392 1411.6 654.561 1410.87 654.703C1410.16 654.863 1409.41 654.943 1408.61 654.943C1407.61 654.943 1406.78 654.81 1406.1 654.543C1405.42 654.276 1404.87 653.903 1404.45 653.423C1404.04 652.925 1403.74 652.33 1403.54 651.637C1403.36 650.943 1403.27 650.179 1403.27 649.344V643.957ZM1415.86 648.09C1415.86 647.024 1416.05 646.064 1416.42 645.211C1416.81 644.357 1417.32 643.637 1417.94 643.051C1418.56 642.446 1419.27 641.993 1420.07 641.691C1420.89 641.371 1421.73 641.211 1422.58 641.211C1423.56 641.211 1424.42 641.371 1425.16 641.691C1425.93 641.993 1426.57 642.42 1427.08 642.971C1427.6 643.504 1427.99 644.153 1428.26 644.917C1428.52 645.682 1428.66 646.517 1428.66 647.424C1428.66 647.726 1428.64 648.001 1428.6 648.25C1428.59 648.499 1428.56 648.704 1428.52 648.864H1419C1419.15 650.055 1419.62 650.97 1420.42 651.61C1421.22 652.25 1422.21 652.57 1423.4 652.57C1424.08 652.57 1424.71 652.481 1425.3 652.303C1425.88 652.108 1426.48 651.841 1427.08 651.503L1428.12 653.423C1427.41 653.868 1426.62 654.232 1425.75 654.516C1424.88 654.801 1423.96 654.943 1423 654.943C1422.01 654.943 1421.08 654.792 1420.2 654.49C1419.33 654.17 1418.58 653.716 1417.94 653.13C1417.3 652.543 1416.79 651.832 1416.42 650.997C1416.04 650.143 1415.86 649.175 1415.86 648.09ZM1425.83 646.917C1425.83 645.868 1425.56 645.051 1425.03 644.464C1424.5 643.877 1423.71 643.584 1422.66 643.584C1422.21 643.584 1421.79 643.655 1421.38 643.797C1420.97 643.94 1420.6 644.153 1420.26 644.437C1419.94 644.722 1419.66 645.068 1419.43 645.477C1419.2 645.886 1419.05 646.366 1418.98 646.917H1425.83ZM1433.67 641.531H1436.2L1436.47 644.491H1436.55C1437.23 643.424 1438.03 642.615 1438.98 642.064C1439.94 641.495 1440.99 641.211 1442.12 641.211C1442.66 641.211 1443.11 641.255 1443.48 641.344C1443.87 641.415 1444.27 641.549 1444.66 641.744L1444.02 644.331C1443.59 644.189 1443.21 644.091 1442.87 644.037C1442.55 643.966 1442.14 643.931 1441.64 643.931C1440.74 643.931 1439.87 644.189 1439.03 644.704C1438.19 645.22 1437.44 646.117 1436.76 647.397V654.623H1433.67L1433.67 641.531ZM1462.39 637.185H1465.51L1466.47 647.29C1466.5 648.037 1466.55 648.766 1466.6 649.477C1466.65 650.188 1466.7 650.917 1466.73 651.663H1466.81C1466.96 650.917 1467.12 650.188 1467.29 649.477C1467.49 648.748 1467.67 648.019 1467.83 647.29L1469.35 641.638H1471.32L1472.81 647.29C1472.96 648.001 1473.12 648.721 1473.29 649.45C1473.49 650.179 1473.66 650.917 1473.8 651.663H1473.91C1473.94 650.917 1473.99 650.179 1474.04 649.45C1474.09 648.721 1474.14 648.001 1474.17 647.29L1475.08 637.185H1478.01L1475.64 654.623H1472.36L1470.81 648.25C1470.69 647.699 1470.58 647.148 1470.49 646.597C1470.4 646.046 1470.32 645.513 1470.25 644.997H1470.17C1470.08 645.513 1470 646.046 1469.91 646.597C1469.82 647.148 1469.71 647.699 1469.59 648.25L1468.12 654.623H1464.89L1462.39 637.185ZM1480.44 641.531H1489.19V654.623H1486.12V643.957H1480.44V641.531ZM1487.43 639.238C1486.8 639.238 1486.28 639.051 1485.85 638.678C1485.44 638.305 1485.24 637.807 1485.24 637.185C1485.24 636.563 1485.44 636.065 1485.85 635.692C1486.28 635.301 1486.8 635.105 1487.43 635.105C1488.07 635.105 1488.59 635.301 1489 635.692C1489.41 636.065 1489.61 636.563 1489.61 637.185C1489.61 637.807 1489.41 638.305 1489 638.678C1488.59 639.051 1488.07 639.238 1487.43 639.238ZM1499.26 643.957H1495.77V641.664L1499.4 641.531L1499.8 637.958H1502.33V641.531H1508.28V643.957H1502.33V649.344C1502.33 650.428 1502.55 651.228 1503 651.743C1503.44 652.241 1504.22 652.49 1505.34 652.49C1505.91 652.49 1506.43 652.445 1506.89 652.357C1507.37 652.25 1507.82 652.117 1508.25 651.957L1508.81 654.196C1508.24 654.392 1507.59 654.561 1506.86 654.703C1506.15 654.863 1505.4 654.943 1504.6 654.943C1503.6 654.943 1502.77 654.81 1502.09 654.543C1501.41 654.276 1500.86 653.903 1500.44 653.423C1500.03 652.925 1499.73 652.33 1499.53 651.637C1499.35 650.943 1499.26 650.179 1499.26 649.344V643.957ZM1512.38 635.798H1515.48V640.651L1515.29 643.451C1515.89 642.846 1516.57 642.322 1517.32 641.878C1518.08 641.433 1518.97 641.211 1519.98 641.211C1521.49 641.211 1522.6 641.673 1523.32 642.598C1524.03 643.504 1524.38 644.811 1524.38 646.517V654.623H1521.29V646.917C1521.29 645.851 1521.1 645.077 1520.73 644.597C1520.37 644.1 1519.74 643.851 1518.84 643.851C1518.2 643.851 1517.63 644.002 1517.13 644.304C1516.63 644.606 1516.08 645.068 1515.48 645.691V654.623H1512.38V635.798ZM1548.65 648.57L1542.91 637.185H1546.19L1548.38 641.878C1548.68 642.553 1548.97 643.22 1549.26 643.877C1549.56 644.517 1549.86 645.193 1550.17 645.904H1550.27C1550.59 645.193 1550.9 644.508 1551.21 643.851C1551.51 643.193 1551.81 642.526 1552.11 641.851L1554.27 637.185H1557.47L1551.74 648.57V654.623H1548.65L1548.65 648.57ZM1559.6 648.09C1559.6 647.006 1559.78 646.037 1560.14 645.184C1560.51 644.331 1561 643.611 1561.6 643.024C1562.21 642.438 1562.91 641.993 1563.71 641.691C1564.51 641.371 1565.34 641.211 1566.19 641.211C1567.04 641.211 1567.87 641.371 1568.67 641.691C1569.47 641.993 1570.17 642.438 1570.78 643.024C1571.38 643.611 1571.86 644.331 1572.22 645.184C1572.59 646.037 1572.78 647.006 1572.78 648.09C1572.78 649.175 1572.59 650.143 1572.22 650.997C1571.86 651.85 1571.38 652.57 1570.78 653.156C1570.17 653.743 1569.47 654.188 1568.67 654.49C1567.87 654.792 1567.04 654.943 1566.19 654.943C1565.34 654.943 1564.51 654.792 1563.71 654.49C1562.91 654.188 1562.21 653.743 1561.6 653.156C1561 652.57 1560.51 651.85 1560.14 650.997C1559.78 650.143 1559.6 649.175 1559.6 648.09ZM1562.78 648.09C1562.78 649.406 1563.08 650.463 1563.68 651.263C1564.29 652.046 1565.12 652.437 1566.19 652.437C1567.26 652.437 1568.09 652.046 1568.7 651.263C1569.3 650.463 1569.6 649.406 1569.6 648.09C1569.6 646.757 1569.3 645.699 1568.7 644.917C1568.09 644.117 1567.26 643.717 1566.19 643.717C1565.12 643.717 1564.29 644.117 1563.68 644.917C1563.08 645.699 1562.78 646.757 1562.78 648.09ZM1587.92 654.623H1585.42L1585.18 652.543H1585.07C1584.45 653.272 1583.76 653.859 1583.02 654.303C1582.27 654.73 1581.41 654.943 1580.43 654.943C1578.9 654.943 1577.79 654.49 1577.1 653.583C1576.4 652.659 1576.06 651.343 1576.06 649.637V641.531H1579.12V649.237C1579.12 650.303 1579.3 651.086 1579.66 651.583C1580.03 652.063 1580.67 652.303 1581.58 652.303C1582.2 652.303 1582.75 652.161 1583.23 651.877C1583.73 651.592 1584.27 651.086 1584.86 650.357V641.531H1587.92V654.623ZM1593.65 641.531H1596.19L1596.45 644.491H1596.53C1597.21 643.424 1598.02 642.615 1598.96 642.064C1599.92 641.495 1600.97 641.211 1602.11 641.211C1602.64 641.211 1603.09 641.255 1603.47 641.344C1603.86 641.415 1604.25 641.549 1604.64 641.744L1604 644.331C1603.57 644.189 1603.19 644.091 1602.85 644.037C1602.53 643.966 1602.13 643.931 1601.63 643.931C1600.72 643.931 1599.85 644.189 1599.01 644.704C1598.18 645.22 1597.42 646.117 1596.75 647.397V654.623H1593.65L1593.65 641.531ZM1625.41 637.185H1636.5V639.798H1628.5V644.731H1635.3V647.344H1628.5V654.623H1625.41V637.185ZM1640.08 651.103C1640.08 650.375 1640.25 649.735 1640.58 649.184C1640.92 648.615 1641.45 648.135 1642.18 647.744C1642.91 647.353 1643.85 647.033 1644.98 646.784C1646.12 646.535 1647.5 646.357 1649.12 646.251C1649.06 645.504 1648.8 644.891 1648.32 644.411C1647.84 643.931 1647.06 643.691 1646 643.691C1645.25 643.691 1644.51 643.833 1643.78 644.117C1643.07 644.384 1642.38 644.704 1641.7 645.077L1640.58 643.024C1641.38 642.562 1642.3 642.144 1643.33 641.771C1644.36 641.398 1645.44 641.211 1646.56 641.211C1648.39 641.211 1649.78 641.7 1650.74 642.678C1651.7 643.637 1652.18 645.033 1652.18 646.864V654.623H1649.68L1649.44 652.997H1649.36C1648.66 653.53 1647.89 653.992 1647.04 654.383C1646.2 654.756 1645.34 654.943 1644.45 654.943C1643.81 654.943 1643.22 654.845 1642.69 654.65C1642.16 654.472 1641.69 654.214 1641.3 653.876C1640.91 653.539 1640.61 653.139 1640.4 652.677C1640.18 652.197 1640.08 651.672 1640.08 651.103ZM1643.04 650.863C1643.04 651.45 1643.26 651.877 1643.7 652.143C1644.17 652.41 1644.73 652.543 1645.38 652.543C1646.04 652.543 1646.67 652.401 1647.28 652.117C1647.9 651.814 1648.51 651.423 1649.12 650.943V648.17C1647.94 648.259 1646.96 648.384 1646.18 648.544C1645.4 648.686 1644.78 648.872 1644.32 649.104C1643.85 649.335 1643.53 649.601 1643.33 649.904C1643.13 650.188 1643.04 650.508 1643.04 650.863ZM1655.28 641.531H1658.37L1660.9 648.33C1661.15 648.988 1661.37 649.646 1661.57 650.303C1661.78 650.943 1661.99 651.601 1662.21 652.277H1662.31C1662.53 651.601 1662.73 650.943 1662.93 650.303C1663.14 649.646 1663.37 648.988 1663.62 648.33L1666.15 641.531H1669.09L1663.99 654.623H1660.5L1655.28 641.531ZM1671.59 648.09C1671.59 647.006 1671.77 646.037 1672.13 645.184C1672.5 644.331 1672.99 643.611 1673.59 643.024C1674.2 642.438 1674.9 641.993 1675.7 641.691C1676.5 641.371 1677.33 641.211 1678.18 641.211C1679.03 641.211 1679.86 641.371 1680.66 641.691C1681.46 641.993 1682.16 642.438 1682.77 643.024C1683.37 643.611 1683.85 644.331 1684.21 645.184C1684.58 646.037 1684.77 647.006 1684.77 648.09C1684.77 649.175 1684.58 650.143 1684.21 650.997C1683.85 651.85 1683.37 652.57 1682.77 653.156C1682.16 653.743 1681.46 654.188 1680.66 654.49C1679.86 654.792 1679.03 654.943 1678.18 654.943C1677.33 654.943 1676.5 654.792 1675.7 654.49C1674.9 654.188 1674.2 653.743 1673.59 653.156C1672.99 652.57 1672.5 651.85 1672.13 650.997C1671.77 650.143 1671.59 649.175 1671.59 648.09ZM1674.77 648.09C1674.77 649.406 1675.07 650.463 1675.67 651.263C1676.28 652.046 1677.11 652.437 1678.18 652.437C1679.25 652.437 1680.08 652.046 1680.69 651.263C1681.29 650.463 1681.59 649.406 1681.59 648.09C1681.59 646.757 1681.29 645.699 1680.69 644.917C1680.08 644.117 1679.25 643.717 1678.18 643.717C1677.11 643.717 1676.28 644.117 1675.67 644.917C1675.07 645.699 1674.77 646.757 1674.77 648.09ZM1689.65 641.531H1692.18L1692.44 644.491H1692.53C1693.2 643.424 1694.01 642.615 1694.95 642.064C1695.91 641.495 1696.96 641.211 1698.1 641.211C1698.63 641.211 1699.08 641.255 1699.46 641.344C1699.85 641.415 1700.24 641.549 1700.63 641.744L1699.99 644.331C1699.56 644.189 1699.18 644.091 1698.84 644.037C1698.52 643.966 1698.12 643.931 1697.62 643.931C1696.71 643.931 1695.84 644.189 1695 644.704C1694.17 645.22 1693.41 646.117 1692.74 647.397V654.623H1689.65L1689.65 641.531ZM1704.42 641.531H1713.16V654.623H1710.1V643.957H1704.42V641.531ZM1711.4 639.238C1710.78 639.238 1710.26 639.051 1709.83 638.678C1709.42 638.305 1709.22 637.807 1709.22 637.185C1709.22 636.563 1709.42 636.065 1709.83 635.692C1710.26 635.301 1710.78 635.105 1711.4 635.105C1712.04 635.105 1712.57 635.301 1712.98 635.692C1713.39 636.065 1713.59 636.563 1713.59 637.185C1713.59 637.807 1713.39 638.305 1712.98 638.678C1712.57 639.051 1712.04 639.238 1711.4 639.238ZM1723.24 643.957H1719.75V641.664L1723.38 641.531L1723.78 637.958H1726.31V641.531H1732.25V643.957H1726.31V649.344C1726.31 650.428 1726.53 651.228 1726.97 651.743C1727.42 652.241 1728.2 652.49 1729.32 652.49C1729.89 652.49 1730.41 652.445 1730.87 652.357C1731.35 652.25 1731.8 652.117 1732.23 651.957L1732.79 654.196C1732.22 654.392 1731.57 654.561 1730.84 654.703C1730.13 654.863 1729.37 654.943 1728.57 654.943C1727.58 654.943 1726.74 654.81 1726.07 654.543C1725.39 654.276 1724.84 653.903 1724.42 653.423C1724.01 652.925 1723.7 652.33 1723.51 651.637C1723.33 650.943 1723.24 650.179 1723.24 649.344V643.957ZM1735.83 648.09C1735.83 647.024 1736.01 646.064 1736.39 645.211C1736.78 644.357 1737.28 643.637 1737.91 643.051C1738.53 642.446 1739.24 641.993 1740.04 641.691C1740.86 641.371 1741.69 641.211 1742.55 641.211C1743.52 641.211 1744.39 641.371 1745.13 641.691C1745.9 641.993 1746.54 642.42 1747.05 642.971C1747.57 643.504 1747.96 644.153 1748.23 644.917C1748.49 645.682 1748.63 646.517 1748.63 647.424C1748.63 647.726 1748.61 648.001 1748.57 648.25C1748.55 648.499 1748.53 648.704 1748.49 648.864H1738.97C1739.12 650.055 1739.59 650.97 1740.39 651.61C1741.19 652.25 1742.18 652.57 1743.37 652.57C1744.05 652.57 1744.68 652.481 1745.27 652.303C1745.85 652.108 1746.45 651.841 1747.05 651.503L1748.09 653.423C1747.38 653.868 1746.59 654.232 1745.72 654.516C1744.85 654.801 1743.93 654.943 1742.97 654.943C1741.98 654.943 1741.04 654.792 1740.17 654.49C1739.3 654.17 1738.55 653.716 1737.91 653.13C1737.27 652.543 1736.76 651.832 1736.39 650.997C1736.01 650.143 1735.83 649.175 1735.83 648.09ZM1745.8 646.917C1745.8 645.868 1745.53 645.051 1745 644.464C1744.47 643.877 1743.68 643.584 1742.63 643.584C1742.18 643.584 1741.76 643.655 1741.35 643.797C1740.94 643.94 1740.56 644.153 1740.23 644.437C1739.91 644.722 1739.63 645.068 1739.4 645.477C1739.17 645.886 1739.02 646.366 1738.95 646.917H1745.8ZM1776.33 647.477L1775.72 645.344C1775.47 644.42 1775.21 643.469 1774.94 642.491C1774.68 641.513 1774.42 640.544 1774.17 639.585H1774.06C1773.81 640.562 1773.56 641.54 1773.29 642.518C1773.04 643.477 1772.78 644.42 1772.52 645.344L1771.9 647.477H1776.33ZM1777.02 649.904H1771.21L1769.85 654.623H1766.7L1772.36 637.185H1775.98L1781.64 654.623H1778.36L1777.02 649.904ZM1785.64 641.531H1788.17L1788.44 644.491H1788.52C1789.19 643.424 1790 642.615 1790.94 642.064C1791.9 641.495 1792.95 641.211 1794.09 641.211C1794.62 641.211 1795.07 641.255 1795.45 641.344C1795.84 641.415 1796.23 641.549 1796.62 641.744L1795.98 644.331C1795.55 644.189 1795.17 644.091 1794.83 644.037C1794.51 643.966 1794.11 643.931 1793.61 643.931C1792.7 643.931 1791.83 644.189 1791 644.704C1790.16 645.22 1789.4 646.117 1788.73 647.397V654.623H1785.64L1785.64 641.531ZM1803.23 643.957H1799.74V641.664L1803.37 641.531L1803.77 637.958H1806.3V641.531H1812.25V643.957H1806.3V649.344C1806.3 650.428 1806.52 651.228 1806.97 651.743C1807.41 652.241 1808.19 652.49 1809.31 652.49C1809.88 652.49 1810.4 652.445 1810.86 652.357C1811.34 652.25 1811.79 652.117 1812.22 651.957L1812.78 654.196C1812.21 654.392 1811.56 654.561 1810.83 654.703C1810.12 654.863 1809.37 654.943 1808.57 654.943C1807.57 654.943 1806.74 654.81 1806.06 654.543C1805.38 654.276 1804.83 653.903 1804.41 653.423C1804 652.925 1803.7 652.33 1803.5 651.637C1803.32 650.943 1803.23 650.179 1803.23 649.344V643.957ZM1816.41 641.531H1825.15V654.623H1822.09V643.957H1816.41V641.531ZM1823.39 639.238C1822.77 639.238 1822.25 639.051 1821.82 638.678C1821.41 638.305 1821.21 637.807 1821.21 637.185C1821.21 636.563 1821.41 636.065 1821.82 635.692C1822.25 635.301 1822.77 635.105 1823.39 635.105C1824.03 635.105 1824.56 635.301 1824.97 635.692C1825.37 636.065 1825.58 636.563 1825.58 637.185C1825.58 637.807 1825.37 638.305 1824.97 638.678C1824.56 639.051 1824.03 639.238 1823.39 639.238ZM1833.26 650.97C1834 651.486 1834.78 651.894 1835.58 652.197C1836.39 652.481 1837.31 652.623 1838.32 652.623C1839.35 652.623 1840.11 652.481 1840.59 652.197C1841.07 651.894 1841.31 651.512 1841.31 651.05C1841.31 650.588 1841 650.206 1840.38 649.904C1839.75 649.584 1838.78 649.246 1837.44 648.89C1836.82 648.73 1836.22 648.535 1835.63 648.304C1835.04 648.073 1834.53 647.806 1834.08 647.504C1833.64 647.202 1833.28 646.855 1833.02 646.464C1832.75 646.073 1832.62 645.628 1832.62 645.131C1832.62 643.975 1833.12 643.033 1834.11 642.304C1835.11 641.575 1836.54 641.211 1838.4 641.211C1839.47 641.211 1840.47 641.389 1841.42 641.744C1842.36 642.1 1843.17 642.5 1843.84 642.944L1842.43 644.837C1841.84 644.446 1841.21 644.135 1840.54 643.904C1839.88 643.655 1839.18 643.531 1838.43 643.531C1837.42 643.531 1836.71 643.673 1836.3 643.957C1835.89 644.224 1835.68 644.562 1835.68 644.971C1835.68 645.202 1835.77 645.415 1835.95 645.611C1836.15 645.788 1836.4 645.957 1836.72 646.117C1837.06 646.259 1837.45 646.402 1837.9 646.544C1838.34 646.686 1838.83 646.819 1839.36 646.944C1840.13 647.139 1840.81 647.362 1841.42 647.61C1842.04 647.841 1842.56 648.108 1842.99 648.41C1843.43 648.713 1843.77 649.068 1844 649.477C1844.25 649.886 1844.38 650.357 1844.38 650.89C1844.38 651.459 1844.24 651.992 1843.98 652.49C1843.71 652.97 1843.32 653.396 1842.8 653.77C1842.29 654.125 1841.65 654.41 1840.88 654.623C1840.12 654.836 1839.24 654.943 1838.24 654.943C1837.02 654.943 1835.84 654.747 1834.72 654.356C1833.6 653.965 1832.64 653.485 1831.82 652.917L1833.26 650.97ZM1851.23 643.957H1847.74V641.664L1851.36 641.531L1851.76 637.958H1854.3V641.531H1860.24V643.957H1854.3V649.344C1854.3 650.428 1854.52 651.228 1854.96 651.743C1855.41 652.241 1856.19 652.49 1857.31 652.49C1857.88 652.49 1858.39 652.445 1858.85 652.357C1859.33 652.25 1859.79 652.117 1860.21 651.957L1860.77 654.196C1860.21 654.392 1859.56 654.561 1858.83 654.703C1858.12 654.863 1857.36 654.943 1856.56 654.943C1855.57 654.943 1854.73 654.81 1854.06 654.543C1853.38 654.276 1852.83 653.903 1852.4 653.423C1851.99 652.925 1851.69 652.33 1851.5 651.637C1851.32 650.943 1851.23 650.179 1851.23 649.344V643.957ZM1865.25 650.97C1866 651.486 1866.77 651.894 1867.57 652.197C1868.39 652.481 1869.31 652.623 1870.32 652.623C1871.35 652.623 1872.11 652.481 1872.59 652.197C1873.07 651.894 1873.31 651.512 1873.31 651.05C1873.31 650.588 1873 650.206 1872.37 649.904C1871.75 649.584 1870.77 649.246 1869.44 648.89C1868.82 648.73 1868.21 648.535 1867.63 648.304C1867.04 648.073 1866.53 647.806 1866.08 647.504C1865.64 647.202 1865.28 646.855 1865.01 646.464C1864.75 646.073 1864.61 645.628 1864.61 645.131C1864.61 643.975 1865.11 643.033 1866.11 642.304C1867.1 641.575 1868.53 641.211 1870.4 641.211C1871.47 641.211 1872.47 641.389 1873.41 641.744C1874.36 642.1 1875.16 642.5 1875.84 642.944L1874.43 644.837C1873.84 644.446 1873.21 644.135 1872.53 643.904C1871.88 643.655 1871.17 643.531 1870.43 643.531C1869.41 643.531 1868.7 643.673 1868.29 643.957C1867.89 644.224 1867.68 644.562 1867.68 644.971C1867.68 645.202 1867.77 645.415 1867.95 645.611C1868.14 645.788 1868.4 645.957 1868.72 646.117C1869.06 646.259 1869.45 646.402 1869.89 646.544C1870.34 646.686 1870.83 646.819 1871.36 646.944C1872.12 647.139 1872.81 647.362 1873.41 647.61C1874.04 647.841 1874.56 648.108 1874.99 648.41C1875.43 648.713 1875.77 649.068 1876 649.477C1876.25 649.886 1876.37 650.357 1876.37 650.89C1876.37 651.459 1876.24 651.992 1875.97 652.49C1875.71 652.97 1875.32 653.396 1874.8 653.77C1874.28 654.125 1873.64 654.41 1872.88 654.623C1872.12 654.836 1871.24 654.943 1870.24 654.943C1869.01 654.943 1867.84 654.747 1866.72 654.356C1865.6 653.965 1864.63 653.485 1863.81 652.917L1865.25 650.97ZM1904.32 647.477L1903.7 645.344C1903.45 644.42 1903.2 643.469 1902.93 642.491C1902.66 641.513 1902.41 640.544 1902.16 639.585H1902.05C1901.8 640.562 1901.54 641.54 1901.28 642.518C1901.03 643.477 1900.77 644.42 1900.5 645.344L1899.89 647.477H1904.32ZM1905.01 649.904H1899.2L1897.84 654.623H1894.69L1900.34 637.185H1903.97L1909.62 654.623H1906.34L1905.01 649.904ZM1912.34 641.531H1914.88L1915.12 643.504H1915.22C1915.84 642.882 1916.53 642.349 1917.28 641.904C1918.04 641.442 1918.93 641.211 1919.94 641.211C1921.45 641.211 1922.56 641.673 1923.28 642.598C1923.99 643.504 1924.34 644.811 1924.34 646.517V654.623H1921.25V646.917C1921.25 645.851 1921.06 645.077 1920.69 644.597C1920.33 644.1 1919.7 643.851 1918.8 643.851C1918.16 643.851 1917.59 644.002 1917.09 644.304C1916.59 644.606 1916.04 645.068 1915.44 645.691V654.623H1912.34L1912.34 641.531ZM1927.57 648.09C1927.57 647.024 1927.73 646.064 1928.05 645.211C1928.37 644.357 1928.79 643.637 1929.33 643.051C1929.88 642.464 1930.5 642.011 1931.19 641.691C1931.89 641.371 1932.61 641.211 1933.35 641.211C1934.14 641.211 1934.8 641.353 1935.35 641.638C1935.92 641.904 1936.47 642.278 1937.01 642.758L1936.87 640.544V635.798H1939.97V654.623H1937.43L1937.19 653.103H1937.11C1936.6 653.619 1935.99 654.054 1935.3 654.41C1934.62 654.765 1933.91 654.943 1933.17 654.943C1932.33 654.943 1931.57 654.792 1930.87 654.49C1930.18 654.17 1929.59 653.716 1929.09 653.13C1928.61 652.543 1928.23 651.832 1927.97 650.997C1927.7 650.143 1927.57 649.175 1927.57 648.09ZM1930.74 648.064C1930.74 649.486 1931.02 650.57 1931.57 651.317C1932.12 652.045 1932.9 652.41 1933.91 652.41C1935 652.41 1935.99 651.885 1936.87 650.837V644.944C1936.41 644.5 1935.95 644.188 1935.49 644.011C1935.03 643.833 1934.55 643.744 1934.07 643.744C1933.61 643.744 1933.18 643.842 1932.77 644.037C1932.38 644.233 1932.03 644.517 1931.73 644.891C1931.43 645.246 1931.19 645.691 1931.01 646.224C1930.83 646.757 1930.74 647.37 1930.74 648.064ZM1960.92 637.185H1972.07V639.798H1964.02V644.251H1970.84V646.864H1964.02V652.01H1972.34V654.623H1960.92V637.185ZM1975.24 641.531H1978.34L1980.87 648.33C1981.12 648.988 1981.34 649.646 1981.54 650.303C1981.75 650.943 1981.96 651.601 1982.18 652.277H1982.28C1982.5 651.601 1982.7 650.943 1982.9 650.303C1983.11 649.646 1983.34 648.988 1983.59 648.33L1986.12 641.531H1989.06L1983.96 654.623H1980.47L1975.24 641.531ZM1991.8 648.09C1991.8 647.024 1991.99 646.064 1992.36 645.211C1992.75 644.357 1993.26 643.637 1993.88 643.051C1994.5 642.446 1995.21 641.993 1996.01 641.691C1996.83 641.371 1997.67 641.211 1998.52 641.211C1999.5 641.211 2000.36 641.371 2001.11 641.691C2001.87 641.993 2002.51 642.42 2003.03 642.971C2003.54 643.504 2003.93 644.153 2004.2 644.917C2004.47 645.682 2004.6 646.517 2004.6 647.424C2004.6 647.726 2004.58 648.001 2004.55 648.25C2004.53 648.499 2004.5 648.704 2004.47 648.864H1994.95C1995.09 650.055 1995.56 650.97 1996.36 651.61C1997.16 652.25 1998.16 652.57 1999.35 652.57C2000.02 652.57 2000.65 652.481 2001.24 652.303C2001.83 652.108 2002.42 651.841 2003.03 651.503L2004.07 653.423C2003.36 653.867 2002.57 654.232 2001.69 654.516C2000.82 654.801 1999.91 654.943 1998.95 654.943C1997.95 654.943 1997.02 654.792 1996.15 654.49C1995.28 654.17 1994.52 653.716 1993.88 653.13C1993.24 652.543 1992.74 651.832 1992.36 650.997C1991.99 650.143 1991.8 649.175 1991.8 648.09ZM2001.77 646.917C2001.77 645.868 2001.51 645.051 2000.97 644.464C2000.44 643.877 1999.65 643.584 1998.6 643.584C1998.16 643.584 1997.73 643.655 1997.32 643.797C1996.91 643.94 1996.54 644.153 1996.2 644.437C1995.88 644.722 1995.61 645.068 1995.37 645.477C1995.14 645.886 1994.99 646.366 1994.92 646.917H2001.77ZM2008.33 641.531H2010.87L2011.11 643.504H2011.21C2011.84 642.882 2012.52 642.349 2013.27 641.904C2014.03 641.442 2014.92 641.211 2015.93 641.211C2017.44 641.211 2018.55 641.673 2019.27 642.598C2019.98 643.504 2020.33 644.811 2020.33 646.517V654.623H2017.24V646.917C2017.24 645.851 2017.05 645.077 2016.68 644.597C2016.32 644.1 2015.69 643.851 2014.79 643.851C2014.15 643.851 2013.58 644.002 2013.08 644.304C2012.58 644.606 2012.03 645.068 2011.43 645.691V654.623H2008.33L2008.33 641.531ZM2027.21 643.957H2023.72V641.664L2027.34 641.531L2027.74 637.958H2030.28V641.531H2036.22V643.957H2030.28V649.344C2030.28 650.428 2030.5 651.228 2030.94 651.743C2031.39 652.241 2032.17 652.49 2033.29 652.49C2033.86 652.49 2034.38 652.445 2034.84 652.357C2035.32 652.25 2035.77 652.117 2036.2 651.957L2036.76 654.196C2036.19 654.392 2035.54 654.561 2034.81 654.703C2034.1 654.863 2033.34 654.943 2032.54 654.943C2031.55 654.943 2030.71 654.81 2030.04 654.543C2029.36 654.276 2028.81 653.903 2028.38 653.423C2027.98 652.925 2027.67 652.33 2027.48 651.637C2027.3 650.943 2027.21 650.179 2027.21 649.344V643.957ZM2041.24 650.97C2041.98 651.486 2042.76 651.894 2043.56 652.197C2044.37 652.481 2045.29 652.623 2046.3 652.623C2047.33 652.623 2048.09 652.481 2048.57 652.197C2049.05 651.894 2049.29 651.512 2049.29 651.05C2049.29 650.588 2048.98 650.206 2048.36 649.903C2047.73 649.583 2046.76 649.246 2045.42 648.89C2044.8 648.73 2044.2 648.535 2043.61 648.304C2043.02 648.073 2042.51 647.806 2042.06 647.504C2041.62 647.202 2041.26 646.855 2041 646.464C2040.73 646.073 2040.6 645.628 2040.6 645.131C2040.6 643.975 2041.09 643.033 2042.09 642.304C2043.09 641.575 2044.52 641.211 2046.38 641.211C2047.45 641.211 2048.45 641.389 2049.4 641.744C2050.34 642.1 2051.15 642.5 2051.82 642.944L2050.41 644.837C2049.82 644.446 2049.19 644.135 2048.52 643.904C2047.86 643.655 2047.16 643.531 2046.41 643.531C2045.4 643.531 2044.69 643.673 2044.28 643.957C2043.87 644.224 2043.66 644.562 2043.66 644.971C2043.66 645.202 2043.75 645.415 2043.93 645.611C2044.13 645.788 2044.38 645.957 2044.7 646.117C2045.04 646.259 2045.43 646.402 2045.88 646.544C2046.32 646.686 2046.81 646.819 2047.34 646.944C2048.11 647.139 2048.79 647.361 2049.4 647.61C2050.02 647.841 2050.54 648.108 2050.97 648.41C2051.41 648.712 2051.75 649.068 2051.98 649.477C2052.23 649.886 2052.36 650.357 2052.36 650.89C2052.36 651.459 2052.22 651.992 2051.96 652.49C2051.69 652.97 2051.3 653.396 2050.78 653.77C2050.27 654.125 2049.63 654.41 2048.86 654.623C2048.1 654.836 2047.22 654.943 2046.22 654.943C2045 654.943 2043.82 654.747 2042.7 654.356C2041.58 653.965 2040.61 653.485 2039.8 652.916L2041.24 650.97Z" fill="url(#paint7_linear_36_67)"/>
<defs>
<radialGradient id="paint0_radial_36_67" cx="0" cy="0" r="1" gradientUnits="userSpaceOnUse" gradientTransform="translate(1635.19 555.924) scale(1635.19 555.924)">
<stop stop-color="white"/>
<stop offset="0.49" stop-color="white" stop-opacity="0.27"/>
<stop offset="0.835" stop-color="#FBFBFB" stop-opacity="0"/>
</radialGradient>
<linearGradient id="paint1_linear_36_67" x1="2112.71" y1="556.282" x2="2102.42" y2="661.016" gradientUnits="userSpaceOnUse">
<stop stop-color="#F4B011"/>
<stop offset="1" stop-color="#F6E54B" stop-opacity="0.920705"/>
</linearGradient>
<linearGradient id="paint2_linear_36_67" x1="1845.85" y1="-377.295" x2="2031.34" y2="-381.52" gradientUnits="userSpaceOnUse">
<stop stop-color="#F4B011"/>
<stop offset="1" stop-color="#F6E54B" stop-opacity="0.920705"/>
</linearGradient>
<linearGradient id="paint3_linear_36_67" x1="1141.2" y1="537.016" x2="2134.93" y2="537.016" gradientUnits="userSpaceOnUse">
<stop stop-color="#141414"/>
<stop offset="1" stop-color="#2C2C2C"/>
</linearGradient>
<linearGradient id="paint4_linear_36_67" x1="1141.2" y1="537.016" x2="2134.93" y2="537.016" gradientUnits="userSpaceOnUse">
<stop stop-color="#F4B011"/>
<stop offset="1" stop-color="#F6E54B" stop-opacity="0.920705"/>
</linearGradient>
<linearGradient id="paint5_linear_36_67" x1="874.337" y1="-396.561" x2="1868.07" y2="-396.561" gradientUnits="userSpaceOnUse">
<stop stop-color="#141414"/>
<stop offset="1" stop-color="#2C2C2C"/>
</linearGradient>
<linearGradient id="paint6_linear_36_67" x1="874.337" y1="-396.561" x2="1868.07" y2="-396.561" gradientUnits="userSpaceOnUse">
<stop stop-color="#F4B011"/>
<stop offset="1" stop-color="#F6E54B" stop-opacity="0.920705"/>
</linearGradient>
<linearGradient id="paint7_linear_36_67" x1="1223.77" y1="647.557" x2="2052.36" y2="647.557" gradientUnits="userSpaceOnUse">
<stop stop-opacity="0.85022"/>
<stop offset="0.420485" stop-opacity="0.449339"/>
<stop offset="1" stop-opacity="0.894273"/>
</linearGradient>
</defs>
</svg>
