<svg width="1436" height="447" viewBox="0 0 1436 447" fill="none" xmlns="http://www.w3.org/2000/svg">
<path opacity="0.60119" d="M1435.51 0H0.508789V447H1435.51V0Z" fill="url(#paint0_radial_602_59)"/>
<path d="M307.04 248.704C310.745 248.704 313.089 248.024 314.072 246.663C315.13 245.302 315.66 242.996 315.66 239.745V217.742H308.401V215.247H341.064V217.742H336.641V249.725H334.94C333.579 247.835 331.651 246.89 329.156 246.89C328.097 246.89 324.922 247.57 319.629 248.931C314.412 250.292 309.951 250.973 306.246 250.973C293.922 250.973 284.358 247.646 277.553 240.992C270.824 234.339 267.459 224.358 267.459 211.051C267.459 197.668 270.975 187.348 278.006 180.089C285.114 172.831 294.64 169.202 306.587 169.202C311.199 169.202 315.811 169.806 320.423 171.016C325.111 172.15 327.833 172.717 328.589 172.717C329.345 172.717 329.912 172.566 330.29 172.264C330.668 171.886 331.084 171.281 331.537 170.449H332.785L333.692 195.06H331.651C327.946 187.726 324.203 181.979 320.423 177.821C316.718 173.587 312.56 171.47 307.948 171.47C296.379 171.47 290.595 182.773 290.595 205.38V214.34C290.595 225.681 291.994 234.263 294.792 240.085C297.665 245.831 301.748 248.704 307.04 248.704ZM383.821 199.029C381.023 199.029 378.566 200.844 376.449 204.473C374.332 208.102 373.273 212.412 373.273 217.402V247.797H381.326V249.838H345.941V247.797H352.179V197.895H345.941V195.854H373.273V206.741C374.256 202.885 376.147 199.937 378.944 197.895C381.742 195.778 384.917 194.72 388.471 194.72C392.024 194.72 394.898 195.74 397.09 197.782C399.359 199.748 400.493 202.583 400.493 206.288C400.493 209.917 399.661 212.714 397.998 214.68C396.334 216.646 393.763 217.629 390.285 217.629C386.883 217.629 384.35 216.495 382.687 214.227C381.099 211.958 380.91 208.821 382.12 204.813H386.203C388.093 200.957 387.299 199.029 383.821 199.029ZM438.146 227.496V217.856C438.146 210.522 437.73 205.191 436.898 201.865C436.142 198.462 434.328 196.761 431.455 196.761C429.791 196.761 428.43 197.252 427.372 198.235C426.389 199.143 425.671 200.693 425.217 202.885C424.536 206.288 424.196 211.467 424.196 218.423V227.269C424.196 235.511 424.423 240.463 424.877 242.126C425.406 243.79 425.935 245.151 426.464 246.209C427.296 248.024 428.922 248.931 431.341 248.931C434.29 248.931 436.218 247.23 437.125 243.827C437.806 241.408 438.146 235.964 438.146 227.496ZM431.114 250.973C421.663 250.973 414.518 248.553 409.679 243.714C404.84 238.875 402.421 231.957 402.421 222.959C402.421 213.886 404.992 206.93 410.133 202.091C415.35 197.177 422.646 194.72 432.022 194.72C441.397 194.72 448.391 196.988 453.003 201.524C457.615 205.985 459.921 212.828 459.921 222.052C459.921 241.332 450.319 250.973 431.114 250.973ZM529.444 249.838H503.585L502.338 241.559C501.128 244.584 499.314 246.927 496.894 248.591C494.55 250.179 491.034 250.973 486.347 250.973C474.627 250.973 468.768 244.659 468.768 232.033V197.895H462.416V195.854H489.862V234.754C489.862 239.291 490.165 242.278 490.77 243.714C491.45 245.151 492.736 245.869 494.626 245.869C496.592 245.869 498.331 244.697 499.843 242.353C501.355 240.009 502.111 236.758 502.111 232.6V197.895H496.894V195.854H523.206V247.797H529.444V249.838ZM573.108 219.33C573.108 211.543 572.73 206.326 571.974 203.679C571.217 200.957 569.743 199.596 567.55 199.596C565.358 199.596 563.392 201.033 561.653 203.906C559.914 206.704 559.044 210.484 559.044 215.247V236.002C559.044 239.253 559.687 242.013 560.972 244.281C562.258 246.549 564.148 247.684 566.643 247.684C569.138 247.684 570.839 246.02 571.747 242.693C572.654 239.367 573.108 233.545 573.108 225.228V219.33ZM558.818 195.854V204.813C561.766 198.084 566.983 194.72 574.469 194.72C580.971 194.72 585.999 197.063 589.553 201.751C593.182 206.439 594.996 213.546 594.996 223.073C594.996 232.6 593.031 239.631 589.099 244.168C585.243 248.704 579.421 250.973 571.633 250.973C568.004 250.973 565.282 250.519 563.468 249.612C561.653 248.704 560.179 247.305 559.044 245.415V274.789H573.675V276.831H531.712V274.789H537.95V197.895H531.939V195.854H558.818ZM615.07 188.028C611.063 188.028 608.19 187.007 606.451 184.966C604.788 182.925 603.956 180.392 603.956 177.367C603.956 174.343 604.863 171.848 606.678 169.882C608.568 167.916 611.403 166.933 615.184 166.933C618.964 166.933 621.837 167.841 623.803 169.655C625.769 171.394 626.752 173.927 626.752 177.254C626.752 180.505 625.807 183.114 623.917 185.079C622.027 187.045 619.078 188.028 615.07 188.028ZM597.945 195.854H625.731V247.797H632.083V249.838H598.399V247.797H604.636V197.895H597.945V195.854ZM664.178 250.973C654.425 250.973 647.091 248.477 642.176 243.487C637.337 238.421 634.918 231.428 634.918 222.506C634.918 213.508 637.64 206.628 643.084 201.865C648.603 197.101 655.597 194.72 664.065 194.72C681.228 194.72 689.47 203.339 688.789 220.578H656.806V225.001C656.806 232.411 657.752 238.006 659.642 241.786C661.532 245.566 664.821 247.457 669.509 247.457C678.279 247.457 684.026 242.769 686.748 233.393L688.789 233.734C687.352 239.178 684.744 243.412 680.964 246.436C677.259 249.46 671.664 250.973 664.178 250.973ZM656.92 218.31H668.601V212.752C668.601 206.628 668.223 202.469 667.467 200.277C666.787 198.009 665.35 196.874 663.158 196.874C661.041 196.874 659.453 198.084 658.394 200.504C657.411 202.847 656.92 206.93 656.92 212.752V218.31ZM784.283 170.449L785.417 198.916H783.262C779.936 188.86 776.987 182.017 774.416 178.388C771.845 174.683 768.141 172.831 763.302 172.831H761.941V247.457H771.581V249.838H730.185V247.457H739.825V172.831H738.351C733.512 172.831 729.769 174.759 727.123 178.615C724.477 182.395 721.566 189.162 718.39 198.916H716.235L717.369 170.449H784.283ZM826.359 199.029C823.562 199.029 821.105 200.844 818.988 204.473C816.871 208.102 815.812 212.412 815.812 217.402V247.797H823.864V249.838H788.479V247.797H794.717V197.895H788.479V195.854H815.812V206.741C816.795 202.885 818.685 199.937 821.483 197.895C824.28 195.778 827.456 194.72 831.009 194.72C834.563 194.72 837.436 195.74 839.629 197.782C841.897 199.748 843.031 202.583 843.031 206.288C843.031 209.917 842.199 212.714 840.536 214.68C838.873 216.646 836.302 217.629 832.824 217.629C829.422 217.629 826.889 216.495 825.225 214.227C823.638 211.958 823.449 208.821 824.658 204.813H828.741C830.631 200.957 829.837 199.029 826.359 199.029ZM870.137 223.186H873.426V214.453C873.426 207.271 873.01 202.469 872.179 200.05C871.422 197.555 869.91 196.307 867.642 196.307C866.281 196.307 865.034 196.685 863.899 197.441C862.841 198.122 862.312 199.105 862.312 200.39C862.312 201.6 862.538 202.848 862.992 204.133H865.827C866.432 205.721 866.735 207.649 866.735 209.917C866.735 212.11 865.79 214.038 863.899 215.701C862.009 217.289 859.627 218.083 856.754 218.083C850.252 218.083 847.001 214.945 847.001 208.669C847.001 199.369 854.902 194.72 870.704 194.72C879.702 194.72 885.902 196.27 889.304 199.37C892.782 202.394 894.521 207.989 894.521 216.155V239.178C894.521 243.109 895.617 245.075 897.81 245.075C900.381 245.075 901.893 241.181 902.346 233.393L904.048 233.507C903.745 240.16 902.498 244.735 900.305 247.23C898.112 249.725 894.521 250.973 889.531 250.973C880.458 250.973 875.241 248.175 873.88 242.58C872.897 245.453 871.422 247.57 869.457 248.931C867.491 250.292 864.618 250.973 860.837 250.973C849.647 250.973 844.052 246.398 844.052 237.25C844.052 231.881 846.169 228.214 850.403 226.248C854.713 224.207 861.291 223.186 870.137 223.186ZM865.601 237.136C865.601 241.068 865.79 243.601 866.168 244.735C866.621 245.869 867.415 246.436 868.549 246.436C869.759 246.436 870.855 245.491 871.838 243.601C872.897 241.635 873.426 238.951 873.426 235.548V225.001H872.632C867.944 225.001 865.601 228.441 865.601 235.321V237.136ZM936.937 196.761C933.611 196.761 931.229 198.576 929.792 202.205C928.356 205.834 927.638 211.845 927.638 220.238V226.135C927.638 233.62 928.469 238.989 930.133 242.24C931.796 245.491 934.858 247.116 939.319 247.116C943.78 247.116 947.334 245.604 949.98 242.58C952.626 239.556 954.327 236.115 955.084 232.259L957.125 232.486C955.688 238.989 953.042 243.676 949.186 246.549C945.254 249.498 939.848 250.973 932.968 250.973C924.197 250.973 917.468 248.629 912.78 243.941C908.093 239.178 905.749 232.259 905.749 223.186C905.749 214.038 908.395 207.006 913.688 202.091C919.056 197.177 926.503 194.72 936.03 194.72C942.759 194.72 947.901 196.043 951.454 198.689C955.008 201.26 956.785 204.511 956.785 208.443C956.785 212.374 955.915 215.247 954.176 217.062C952.513 218.877 950.169 219.784 947.145 219.784C944.196 219.784 941.814 218.99 940 217.402C938.185 215.814 937.278 213.471 937.278 210.371C937.278 209.01 937.467 207.649 937.845 206.288H941.587C942.117 204.776 942.381 203.415 942.381 202.205C942.381 198.576 940.567 196.761 936.937 196.761ZM1051.03 250.973C1041.28 250.973 1033.94 248.477 1029.03 243.487C1024.19 238.421 1021.77 231.428 1021.77 222.506C1021.77 213.508 1024.49 206.628 1029.94 201.865C1035.46 197.101 1042.45 194.72 1050.92 194.72C1068.08 194.72 1076.32 203.339 1075.64 220.578H1043.66V225.001C1043.66 232.411 1044.6 238.006 1046.49 241.786C1048.38 245.566 1051.67 247.457 1056.36 247.457C1065.13 247.457 1070.88 242.769 1073.6 233.393L1075.64 233.734C1074.21 239.178 1071.6 243.412 1067.82 246.436C1064.11 249.46 1058.52 250.973 1051.03 250.973ZM1043.77 218.31H1055.45V212.752C1055.45 206.628 1055.08 202.469 1054.32 200.277C1053.64 198.009 1052.2 196.874 1050.01 196.874C1047.89 196.874 1046.31 198.084 1045.25 200.504C1044.26 202.847 1043.77 206.93 1043.77 212.752V218.31ZM1117.6 199.029C1114.81 199.029 1112.35 200.844 1110.23 204.473C1108.12 208.102 1107.06 212.412 1107.06 217.402V247.797H1115.11V249.838H1079.72V247.797H1085.96V197.895H1079.72V195.854H1107.06V206.741C1108.04 202.885 1109.93 199.937 1112.73 197.895C1115.53 195.778 1118.7 194.72 1122.25 194.72C1125.81 194.72 1128.68 195.74 1130.87 197.782C1133.14 199.748 1134.28 202.583 1134.28 206.288C1134.28 209.917 1133.45 212.714 1131.78 214.68C1130.12 216.646 1127.55 217.629 1124.07 217.629C1120.67 217.629 1118.13 216.495 1116.47 214.227C1114.88 211.958 1114.69 208.821 1115.9 204.813H1119.99C1121.88 200.957 1121.08 199.029 1117.6 199.029Z" fill="url(#paint1_linear_602_59)" stroke="url(#paint2_linear_602_59)" stroke-width="0.699999" stroke-miterlimit="3.1" stroke-linecap="square"/>
<mask id="mask0_602_59" style="mask-type:luminance" maskUnits="userSpaceOnUse" x="68" y="67" width="1346" height="310">
<path d="M1402.82 67.7632H79.1398C73.2112 67.7632 68.405 72.5693 68.405 78.498V365.573C68.405 371.501 73.2112 376.307 79.1398 376.307H1386.01C1391.94 376.307 1413.55 371.501 1413.55 365.573V78.498C1413.55 72.5693 1408.75 67.7632 1402.82 67.7632Z" fill="white"/>
</mask>
<g mask="url(#mask0_602_59)">
<path d="M996.861 213.789C995.956 208.833 995.523 203.445 994.658 198.41C1002.29 190.74 1011.18 180.553 1012.12 164.309C1012.44 158.724 1011.3 154.043 1009.92 148.93C1008.97 145.39 1006.46 135.911 1002.68 137.445C989.466 142.834 986.359 168.911 990.096 185.47C980.97 194.87 965.552 204.31 963.232 222.56C962.013 232.157 965.08 240.613 969.446 246.788C975.071 254.773 985.926 261.931 999.693 258.785C1001.38 270.309 1005.67 287.261 994.501 292.099C990.41 293.869 981.207 294.026 980.302 288.756C992.613 290.683 992.573 273.416 983.842 271.371C976.605 269.64 972.278 276.72 971.963 281.401C971.373 290.172 979.673 296.504 988.798 296.307C998.591 296.111 1005.51 290.132 1005.24 277.782C1005.08 270.938 1003.08 265.628 1002.76 257.801C1010.67 254.026 1017.75 248.598 1018.69 237.821C1019.79 224.998 1011.77 212.963 996.861 213.789ZM999.024 153.493C1002.56 150.071 1008.54 150.425 1008.82 156.757C1009.09 162.893 1005.91 168.36 1002.96 172.608C999.889 177.013 996.664 180.829 992.652 183.149C990.41 173.552 993.399 158.999 999.024 153.493ZM969.21 232.393C969.682 224.251 973.458 218.312 977.47 213.514C981.796 208.322 987.028 204.349 991.944 200.455C992.809 204.86 993.242 209.698 993.832 214.379C987.185 217.329 979.673 222.56 979.987 233.298C980.105 236.995 981.639 240.574 983.724 243.367C985.651 245.884 988.562 248.991 991.983 248.519C991.826 246.434 989.309 245.923 988.05 244.664C981.718 238.568 986.477 225.982 995.366 224.92C996.585 235.343 998.041 245.49 999.339 255.835C980.42 258.706 968.306 246.906 969.21 232.393ZM1002.17 254.812C1001.11 244.546 999.339 234.871 998.355 224.526C1002.17 224.998 1005.44 226.414 1007.72 228.538C1015.58 235.933 1012.32 252.138 1002.17 254.812Z" fill="url(#paint3_linear_602_59)" stroke="url(#paint4_linear_602_59)" stroke-width="0.699999"/>
</g>
<path d="M341.267 314.988C341.84 315.5 342.484 315.918 343.197 316.244C343.926 316.554 344.662 316.709 345.407 316.709C346.337 316.709 347.043 316.531 347.523 316.174C348.004 315.818 348.244 315.345 348.244 314.755C348.244 314.445 348.182 314.182 348.058 313.965C347.934 313.748 347.756 313.561 347.523 313.406C347.306 313.236 347.035 313.081 346.709 312.941C346.399 312.802 346.058 312.662 345.686 312.523L343.616 311.615C343.213 311.46 342.817 311.267 342.43 311.034C342.042 310.801 341.693 310.522 341.383 310.197C341.073 309.871 340.825 309.491 340.639 309.057C340.453 308.623 340.36 308.127 340.36 307.568C340.36 306.964 340.491 306.406 340.755 305.894C341.019 305.367 341.383 304.909 341.848 304.522C342.313 304.134 342.864 303.832 343.499 303.615C344.151 303.397 344.864 303.289 345.639 303.289C346.57 303.289 347.453 303.467 348.291 303.824C349.144 304.165 349.888 304.63 350.524 305.219L349.128 306.941C348.616 306.537 348.081 306.219 347.523 305.987C346.965 305.754 346.337 305.638 345.639 305.638C344.848 305.638 344.22 305.801 343.755 306.126C343.306 306.437 343.081 306.871 343.081 307.429C343.081 307.724 343.151 307.979 343.29 308.196C343.43 308.398 343.616 308.584 343.848 308.755C344.096 308.91 344.376 309.049 344.686 309.173C345.011 309.297 345.345 309.429 345.686 309.569L347.686 310.429C348.167 310.615 348.609 310.832 349.012 311.081C349.415 311.329 349.764 311.615 350.058 311.941C350.353 312.267 350.578 312.647 350.733 313.081C350.903 313.499 350.989 313.988 350.989 314.546C350.989 315.166 350.857 315.748 350.593 316.29C350.345 316.833 349.981 317.314 349.5 317.733C349.02 318.136 348.43 318.461 347.733 318.709C347.035 318.942 346.244 319.058 345.36 319.058C344.29 319.058 343.267 318.864 342.29 318.477C341.313 318.089 340.445 317.539 339.685 316.825L341.267 314.988ZM356.71 309.476H353.664V307.475L356.827 307.359L357.176 304.243H359.385V307.359H364.572V309.476H359.385V314.174C359.385 315.12 359.579 315.818 359.967 316.267C360.354 316.701 361.036 316.918 362.013 316.918C362.509 316.918 362.959 316.88 363.362 316.802C363.781 316.709 364.176 316.593 364.549 316.453L365.037 318.407C364.541 318.578 363.975 318.725 363.339 318.849C362.719 318.988 362.06 319.058 361.362 319.058C360.494 319.058 359.765 318.942 359.176 318.709C358.587 318.477 358.106 318.151 357.734 317.733C357.377 317.298 357.113 316.779 356.943 316.174C356.788 315.569 356.71 314.903 356.71 314.174V309.476ZM367.898 315.709C367.898 315.073 368.045 314.515 368.34 314.034C368.634 313.538 369.099 313.12 369.735 312.778C370.371 312.437 371.185 312.158 372.177 311.941C373.17 311.724 374.371 311.569 375.782 311.476C375.736 310.825 375.503 310.29 375.085 309.871C374.666 309.452 373.992 309.243 373.061 309.243C372.41 309.243 371.766 309.367 371.131 309.615C370.511 309.848 369.906 310.127 369.317 310.453L368.34 308.662C369.037 308.258 369.836 307.894 370.735 307.568C371.635 307.243 372.573 307.08 373.55 307.08C375.147 307.08 376.364 307.506 377.201 308.359C378.038 309.197 378.457 310.414 378.457 312.011V318.779H376.271L376.062 317.36H375.992C375.387 317.826 374.713 318.229 373.968 318.57C373.239 318.895 372.487 319.058 371.712 319.058C371.154 319.058 370.642 318.973 370.177 318.802C369.712 318.647 369.309 318.423 368.968 318.128C368.627 317.833 368.363 317.484 368.177 317.081C367.991 316.663 367.898 316.205 367.898 315.709ZM370.479 315.5C370.479 316.011 370.673 316.384 371.061 316.616C371.464 316.849 371.953 316.965 372.526 316.965C373.1 316.965 373.65 316.841 374.178 316.593C374.72 316.329 375.255 315.988 375.782 315.569V313.151C374.759 313.228 373.906 313.337 373.224 313.476C372.542 313.6 371.999 313.763 371.596 313.965C371.193 314.166 370.906 314.399 370.735 314.662C370.565 314.91 370.479 315.19 370.479 315.5ZM382.272 321.152C382.427 321.198 382.582 321.237 382.737 321.268C382.892 321.299 383.055 321.314 383.225 321.314C383.954 321.314 384.535 321.128 384.97 320.756C385.404 320.399 385.737 319.934 385.97 319.361L386.249 318.64L381.132 307.359H383.807L386.156 312.964C386.373 313.476 386.582 314.019 386.784 314.593C386.985 315.166 387.195 315.74 387.412 316.314H387.505C387.675 315.771 387.861 315.213 388.063 314.639C388.265 314.065 388.458 313.507 388.644 312.964L390.714 307.359H393.25L388.482 319.291C388.233 319.942 387.954 320.524 387.644 321.035C387.35 321.547 387.001 321.981 386.598 322.338C386.195 322.71 385.729 322.989 385.202 323.175C384.675 323.377 384.07 323.477 383.388 323.477C383.078 323.477 382.783 323.454 382.504 323.408C382.225 323.377 381.977 323.322 381.76 323.245L382.272 321.152ZM409.507 311.22C409.507 309.98 409.686 308.871 410.042 307.894C410.399 306.902 410.887 306.064 411.508 305.382C412.143 304.7 412.888 304.18 413.74 303.824C414.609 303.467 415.547 303.289 416.555 303.289C417.485 303.289 418.315 303.483 419.043 303.87C419.772 304.258 420.385 304.7 420.881 305.196L419.369 306.871C418.997 306.499 418.578 306.204 418.113 305.987C417.663 305.754 417.144 305.638 416.555 305.638C415.919 305.638 415.338 305.77 414.81 306.033C414.283 306.282 413.834 306.646 413.461 307.127C413.089 307.592 412.795 308.165 412.578 308.848C412.376 309.53 412.275 310.298 412.275 311.15C412.275 312.019 412.376 312.802 412.578 313.499C412.795 314.182 413.089 314.763 413.461 315.244C413.849 315.709 414.306 316.073 414.834 316.337C415.376 316.585 415.973 316.709 416.625 316.709C417.245 316.709 417.795 316.577 418.276 316.314C418.772 316.05 419.237 315.678 419.671 315.197L421.16 316.849C420.54 317.562 419.842 318.112 419.067 318.5C418.291 318.872 417.423 319.058 416.462 319.058C415.485 319.058 414.57 318.888 413.717 318.547C412.88 318.205 412.143 317.701 411.508 317.035C410.887 316.368 410.399 315.546 410.042 314.569C409.686 313.592 409.507 312.476 409.507 311.22ZM423.3 313.081C423.3 312.135 423.455 311.29 423.765 310.546C424.091 309.801 424.517 309.173 425.044 308.662C425.571 308.15 426.184 307.762 426.882 307.499C427.579 307.22 428.3 307.08 429.045 307.08C429.789 307.08 430.51 307.22 431.208 307.499C431.905 307.762 432.518 308.15 433.045 308.662C433.572 309.173 433.991 309.801 434.301 310.546C434.627 311.29 434.79 312.135 434.79 313.081C434.79 314.027 434.627 314.872 434.301 315.616C433.991 316.36 433.572 316.988 433.045 317.5C432.518 318.012 431.905 318.399 431.208 318.663C430.51 318.926 429.789 319.058 429.045 319.058C428.3 319.058 427.579 318.926 426.882 318.663C426.184 318.399 425.571 318.012 425.044 317.5C424.517 316.988 424.091 316.36 423.765 315.616C423.455 314.872 423.3 314.027 423.3 313.081ZM426.068 313.081C426.068 314.228 426.331 315.151 426.858 315.849C427.386 316.531 428.114 316.872 429.045 316.872C429.975 316.872 430.704 316.531 431.231 315.849C431.758 315.151 432.022 314.228 432.022 313.081C432.022 311.918 431.758 310.995 431.231 310.313C430.704 309.615 429.975 309.266 429.045 309.266C428.114 309.266 427.386 309.615 426.858 310.313C426.331 310.995 426.068 311.918 426.068 313.081ZM437.929 307.359H440.139L440.348 309.08H440.441C440.984 308.538 441.581 308.072 442.232 307.685C442.899 307.282 443.674 307.08 444.558 307.08C445.876 307.08 446.845 307.483 447.465 308.29C448.086 309.08 448.396 310.22 448.396 311.709V318.779H445.698V312.057C445.698 311.127 445.535 310.453 445.209 310.034C444.899 309.6 444.349 309.383 443.558 309.383C443 309.383 442.504 309.514 442.069 309.778C441.635 310.042 441.155 310.445 440.627 310.988V318.779H437.929L437.929 307.359ZM451.885 307.359H454.094L454.304 309.08H454.396C454.939 308.538 455.536 308.072 456.187 307.685C456.854 307.282 457.629 307.08 458.513 307.08C459.831 307.08 460.8 307.483 461.421 308.29C462.041 309.08 462.351 310.22 462.351 311.709V318.779H459.653V312.057C459.653 311.127 459.49 310.453 459.164 310.034C458.854 309.6 458.304 309.383 457.513 309.383C456.955 309.383 456.459 309.514 456.025 309.778C455.59 310.042 455.11 310.445 454.583 310.988V318.779H451.885L451.885 307.359ZM465.375 313.081C465.375 312.15 465.537 311.313 465.863 310.569C466.204 309.825 466.646 309.197 467.189 308.685C467.731 308.158 468.352 307.762 469.049 307.499C469.763 307.22 470.492 307.08 471.236 307.08C472.089 307.08 472.841 307.22 473.492 307.499C474.159 307.762 474.717 308.134 475.167 308.615C475.616 309.08 475.957 309.646 476.19 310.313C476.422 310.98 476.539 311.709 476.539 312.499C476.539 312.763 476.523 313.003 476.492 313.22C476.477 313.437 476.453 313.616 476.422 313.755H468.119C468.243 314.794 468.654 315.593 469.352 316.151C470.05 316.709 470.918 316.988 471.957 316.988C472.546 316.988 473.096 316.911 473.608 316.756C474.12 316.585 474.639 316.353 475.167 316.058L476.074 317.733C475.453 318.12 474.763 318.438 474.004 318.686C473.244 318.934 472.445 319.058 471.608 319.058C470.74 319.058 469.926 318.926 469.166 318.663C468.406 318.384 467.747 317.988 467.189 317.477C466.631 316.965 466.189 316.345 465.863 315.616C465.537 314.872 465.375 314.027 465.375 313.081ZM474.073 312.057C474.073 311.143 473.841 310.429 473.376 309.918C472.91 309.406 472.22 309.15 471.306 309.15C470.918 309.15 470.546 309.212 470.189 309.336C469.833 309.46 469.507 309.646 469.212 309.894C468.933 310.142 468.693 310.445 468.491 310.801C468.29 311.158 468.158 311.577 468.096 312.057H474.073ZM479.586 313.081C479.586 312.135 479.756 311.29 480.097 310.546C480.454 309.801 480.927 309.173 481.516 308.662C482.105 308.15 482.795 307.762 483.586 307.499C484.377 307.22 485.206 307.08 486.075 307.08C487.005 307.08 487.819 307.235 488.517 307.545C489.23 307.855 489.827 308.235 490.308 308.685L489.029 310.36C488.579 310.003 488.122 309.732 487.656 309.545C487.207 309.359 486.726 309.266 486.214 309.266C485.067 309.266 484.137 309.615 483.423 310.313C482.71 310.995 482.353 311.918 482.353 313.081C482.353 313.654 482.446 314.174 482.633 314.639C482.819 315.104 483.074 315.507 483.4 315.849C483.741 316.174 484.144 316.43 484.609 316.616C485.075 316.787 485.586 316.872 486.145 316.872C486.796 316.872 487.385 316.748 487.912 316.5C488.455 316.252 488.951 315.957 489.401 315.616L490.517 317.337C489.866 317.911 489.137 318.345 488.331 318.64C487.525 318.919 486.71 319.058 485.889 319.058C484.989 319.058 484.152 318.926 483.377 318.663C482.617 318.399 481.95 318.012 481.377 317.5C480.818 316.988 480.376 316.36 480.051 315.616C479.741 314.872 479.586 314.027 479.586 313.081ZM496.262 309.476H493.215V307.475L496.378 307.359L496.727 304.243H498.937V307.359H504.123V309.476H498.937V314.174C498.937 315.12 499.131 315.818 499.518 316.267C499.906 316.701 500.588 316.918 501.565 316.918C502.061 316.918 502.511 316.88 502.914 316.802C503.333 316.709 503.728 316.593 504.1 316.453L504.589 318.407C504.092 318.578 503.526 318.725 502.891 318.849C502.271 318.988 501.612 319.058 500.914 319.058C500.045 319.058 499.317 318.942 498.727 318.709C498.138 318.477 497.658 318.151 497.285 317.733C496.929 317.298 496.665 316.779 496.495 316.174C496.34 315.569 496.262 314.903 496.262 314.174V309.476ZM507.24 313.081C507.24 312.15 507.403 311.313 507.729 310.569C508.07 309.825 508.512 309.197 509.054 308.685C509.597 308.158 510.217 307.762 510.915 307.499C511.628 307.22 512.357 307.08 513.101 307.08C513.954 307.08 514.706 307.22 515.357 307.499C516.024 307.762 516.582 308.134 517.032 308.615C517.482 309.08 517.823 309.646 518.055 310.313C518.288 310.98 518.404 311.709 518.404 312.499C518.404 312.763 518.389 313.003 518.358 313.22C518.342 313.437 518.319 313.616 518.288 313.755H509.985C510.109 314.794 510.52 315.593 511.217 316.151C511.915 316.709 512.783 316.988 513.822 316.988C514.412 316.988 514.962 316.911 515.474 316.756C515.985 316.585 516.505 316.353 517.032 316.058L517.939 317.733C517.319 318.12 516.629 318.438 515.869 318.686C515.109 318.934 514.311 319.058 513.473 319.058C512.605 319.058 511.791 318.926 511.031 318.663C510.271 318.384 509.613 317.988 509.054 317.477C508.496 316.965 508.054 316.345 507.729 315.616C507.403 314.872 507.24 314.027 507.24 313.081ZM515.939 312.057C515.939 311.143 515.706 310.429 515.241 309.918C514.776 309.406 514.086 309.15 513.171 309.15C512.783 309.15 512.411 309.212 512.055 309.336C511.698 309.46 511.372 309.646 511.078 309.894C510.799 310.142 510.558 310.445 510.357 310.801C510.155 311.158 510.023 311.577 509.961 312.057H515.939ZM522.777 307.359H524.986L525.219 309.941H525.289C525.878 309.011 526.584 308.305 527.405 307.824C528.243 307.328 529.158 307.08 530.15 307.08C530.615 307.08 531.01 307.119 531.336 307.196C531.677 307.258 532.018 307.375 532.359 307.545L531.801 309.801C531.429 309.677 531.096 309.592 530.801 309.545C530.522 309.483 530.165 309.452 529.731 309.452C528.94 309.452 528.181 309.677 527.452 310.127C526.723 310.577 526.064 311.36 525.475 312.476V318.779H522.777L522.777 307.359ZM547.826 303.568H550.548L551.385 312.383C551.416 313.034 551.455 313.67 551.501 314.29C551.548 314.91 551.587 315.546 551.618 316.197H551.687C551.811 315.546 551.951 314.91 552.106 314.29C552.277 313.654 552.432 313.019 552.571 312.383L553.897 307.452H555.618L556.921 312.383C557.045 313.003 557.184 313.631 557.339 314.267C557.51 314.903 557.657 315.546 557.781 316.197H557.874C557.905 315.546 557.944 314.903 557.99 314.267C558.037 313.631 558.076 313.003 558.107 312.383L558.898 303.568H561.456L559.386 318.779H556.525L555.176 313.22C555.068 312.74 554.975 312.259 554.897 311.778C554.82 311.298 554.75 310.832 554.688 310.383H554.618C554.54 310.832 554.463 311.298 554.385 311.778C554.308 312.259 554.215 312.74 554.106 313.22L552.827 318.779H550.013L547.826 303.568ZM563.573 307.359H571.201V318.779H568.527V309.476H563.573V307.359ZM569.666 305.359C569.124 305.359 568.666 305.196 568.294 304.871C567.937 304.545 567.759 304.111 567.759 303.568C567.759 303.025 567.937 302.591 568.294 302.266C568.666 301.924 569.124 301.754 569.666 301.754C570.224 301.754 570.682 301.924 571.039 302.266C571.395 302.591 571.573 303.025 571.573 303.568C571.573 304.111 571.395 304.545 571.039 304.871C570.682 305.196 570.224 305.359 569.666 305.359ZM579.993 309.476H576.946V307.475L580.109 307.359L580.458 304.243H582.668V307.359H587.854V309.476H582.668V314.174C582.668 315.12 582.862 315.818 583.249 316.267C583.637 316.701 584.319 316.918 585.296 316.918C585.792 316.918 586.242 316.88 586.645 316.802C587.064 316.709 587.459 316.593 587.831 316.453L588.32 318.407C587.823 318.578 587.257 318.725 586.622 318.849C586.002 318.988 585.343 319.058 584.645 319.058C583.776 319.058 583.048 318.942 582.458 318.709C581.869 318.477 581.389 318.151 581.016 317.733C580.66 317.298 580.396 316.779 580.226 316.174C580.071 315.569 579.993 314.903 579.993 314.174V309.476ZM591.436 302.359H594.134V306.592L593.971 309.034C594.499 308.507 595.088 308.049 595.739 307.662C596.406 307.274 597.181 307.08 598.065 307.08C599.383 307.08 600.352 307.483 600.972 308.29C601.593 309.08 601.903 310.22 601.903 311.709V318.779H599.205V312.057C599.205 311.127 599.042 310.453 598.716 310.034C598.406 309.6 597.856 309.383 597.065 309.383C596.507 309.383 596.011 309.514 595.576 309.778C595.142 310.042 594.662 310.445 594.134 310.988V318.779H591.436V302.359ZM623.068 313.499L618.067 303.568H620.928L622.835 307.662C623.099 308.251 623.355 308.832 623.603 309.406C623.867 309.964 624.13 310.553 624.394 311.174H624.487C624.766 310.553 625.037 309.956 625.301 309.383C625.564 308.809 625.828 308.227 626.092 307.638L627.976 303.568H630.767L625.766 313.499V318.779H623.068V313.499ZM632.627 313.081C632.627 312.135 632.782 311.29 633.092 310.546C633.418 309.801 633.845 309.173 634.372 308.662C634.899 308.15 635.511 307.762 636.209 307.499C636.907 307.22 637.628 307.08 638.372 307.08C639.116 307.08 639.837 307.22 640.535 307.499C641.233 307.762 641.845 308.15 642.373 308.662C642.9 309.173 643.318 309.801 643.629 310.546C643.954 311.29 644.117 312.135 644.117 313.081C644.117 314.027 643.954 314.872 643.629 315.616C643.318 316.36 642.9 316.988 642.373 317.5C641.845 318.012 641.233 318.399 640.535 318.663C639.837 318.926 639.116 319.058 638.372 319.058C637.628 319.058 636.907 318.926 636.209 318.663C635.511 318.399 634.899 318.012 634.372 317.5C633.845 316.988 633.418 316.36 633.092 315.616C632.782 314.872 632.627 314.027 632.627 313.081ZM635.395 313.081C635.395 314.228 635.659 315.151 636.186 315.849C636.713 316.531 637.442 316.872 638.372 316.872C639.303 316.872 640.031 316.531 640.558 315.849C641.086 315.151 641.349 314.228 641.349 313.081C641.349 311.918 641.086 310.995 640.558 310.313C640.031 309.615 639.303 309.266 638.372 309.266C637.442 309.266 636.713 309.615 636.186 310.313C635.659 310.995 635.395 311.918 635.395 313.081ZM657.328 318.779H655.142L654.932 316.965H654.839C654.297 317.601 653.7 318.112 653.048 318.5C652.397 318.872 651.645 319.058 650.792 319.058C649.459 319.058 648.49 318.663 647.885 317.872C647.28 317.066 646.978 315.918 646.978 314.43V307.359H649.653V314.081C649.653 315.011 649.808 315.693 650.118 316.128C650.443 316.546 651.002 316.756 651.792 316.756C652.335 316.756 652.816 316.632 653.234 316.384C653.669 316.135 654.142 315.694 654.653 315.058V307.359H657.328L657.328 318.779ZM662.329 307.359H664.538L664.771 309.941H664.841C665.43 309.011 666.135 308.305 666.957 307.824C667.794 307.328 668.709 307.08 669.702 307.08C670.167 307.08 670.562 307.119 670.888 307.196C671.229 307.258 671.57 307.375 671.911 307.545L671.353 309.801C670.981 309.677 670.647 309.592 670.353 309.545C670.074 309.483 669.717 309.452 669.283 309.452C668.492 309.452 667.732 309.677 667.004 310.127C666.275 310.577 665.616 311.36 665.027 312.476V318.779H662.329L662.329 307.359ZM690.03 303.568H699.705V305.847H692.728V310.15H698.659V312.43H692.728V318.779H690.03V303.568ZM702.822 315.709C702.822 315.073 702.969 314.515 703.264 314.034C703.558 313.538 704.024 313.12 704.659 312.778C705.295 312.437 706.109 312.158 707.101 311.941C708.094 311.724 709.295 311.569 710.706 311.476C710.66 310.825 710.427 310.29 710.009 309.871C709.59 309.452 708.916 309.243 707.985 309.243C707.334 309.243 706.69 309.367 706.055 309.615C705.435 309.848 704.83 310.127 704.241 310.453L703.264 308.662C703.961 308.258 704.76 307.894 705.659 307.568C706.559 307.243 707.497 307.08 708.474 307.08C710.071 307.08 711.288 307.506 712.125 308.359C712.963 309.197 713.381 310.414 713.381 312.011V318.779H711.195L710.986 317.36H710.916C710.311 317.826 709.637 318.229 708.892 318.57C708.164 318.895 707.411 319.058 706.636 319.058C706.078 319.058 705.566 318.973 705.101 318.802C704.636 318.647 704.233 318.423 703.892 318.128C703.551 317.833 703.287 317.484 703.101 317.081C702.915 316.663 702.822 316.205 702.822 315.709ZM705.404 315.5C705.404 316.011 705.597 316.384 705.985 316.616C706.388 316.849 706.877 316.965 707.45 316.965C708.024 316.965 708.574 316.841 709.102 316.593C709.644 316.329 710.179 315.988 710.706 315.569V313.151C709.683 313.228 708.83 313.337 708.148 313.476C707.466 313.6 706.923 313.763 706.52 313.965C706.117 314.166 705.83 314.399 705.659 314.662C705.489 314.91 705.404 315.19 705.404 315.5ZM716.079 307.359H718.777L720.987 313.29C721.204 313.864 721.398 314.438 721.568 315.011C721.754 315.569 721.94 316.143 722.126 316.732H722.219C722.406 316.143 722.584 315.569 722.754 315.011C722.94 314.438 723.142 313.864 723.359 313.29L725.569 307.359H728.127L723.685 318.779H720.638L716.079 307.359ZM730.313 313.081C730.313 312.135 730.469 311.29 730.779 310.546C731.104 309.801 731.531 309.173 732.058 308.662C732.585 308.15 733.198 307.762 733.895 307.499C734.593 307.22 735.314 307.08 736.058 307.08C736.803 307.08 737.524 307.22 738.221 307.499C738.919 307.762 739.532 308.15 740.059 308.662C740.586 309.173 741.005 309.801 741.315 310.546C741.64 311.29 741.803 312.135 741.803 313.081C741.803 314.027 741.64 314.872 741.315 315.616C741.005 316.36 740.586 316.988 740.059 317.5C739.532 318.012 738.919 318.399 738.221 318.663C737.524 318.926 736.803 319.058 736.058 319.058C735.314 319.058 734.593 318.926 733.895 318.663C733.198 318.399 732.585 318.012 732.058 317.5C731.531 316.988 731.104 316.36 730.779 315.616C730.469 314.872 730.313 314.027 730.313 313.081ZM733.081 313.081C733.081 314.228 733.345 315.151 733.872 315.849C734.399 316.531 735.128 316.872 736.058 316.872C736.989 316.872 737.717 316.531 738.245 315.849C738.772 315.151 739.035 314.228 739.035 313.081C739.035 311.918 738.772 310.995 738.245 310.313C737.717 309.615 736.989 309.266 736.058 309.266C735.128 309.266 734.399 309.615 733.872 310.313C733.345 310.995 733.081 311.918 733.081 313.081ZM746.06 307.359H748.269L748.502 309.941H748.572C749.161 309.011 749.866 308.305 750.688 307.824C751.526 307.328 752.44 307.08 753.433 307.08C753.898 307.08 754.293 307.119 754.619 307.196C754.96 307.258 755.301 307.375 755.642 307.545L755.084 309.801C754.712 309.677 754.379 309.592 754.084 309.545C753.805 309.483 753.448 309.452 753.014 309.452C752.223 309.452 751.464 309.677 750.735 310.127C750.006 310.577 749.347 311.36 748.758 312.476V318.779H746.06L746.06 307.359ZM758.945 307.359H766.574V318.779H763.899V309.476H758.945V307.359ZM765.039 305.359C764.496 305.359 764.038 305.196 763.666 304.871C763.31 304.545 763.131 304.111 763.131 303.568C763.131 303.025 763.31 302.591 763.666 302.266C764.038 301.924 764.496 301.754 765.039 301.754C765.597 301.754 766.054 301.924 766.411 302.266C766.767 302.591 766.946 303.025 766.946 303.568C766.946 304.111 766.767 304.545 766.411 304.871C766.054 305.196 765.597 305.359 765.039 305.359ZM775.365 309.476H772.319V307.475L775.482 307.359L775.831 304.243H778.04V307.359H783.227V309.476H778.04V314.174C778.04 315.12 778.234 315.818 778.622 316.267C779.009 316.701 779.692 316.918 780.668 316.918C781.165 316.918 781.614 316.88 782.017 316.802C782.436 316.709 782.831 316.593 783.204 316.453L783.692 318.407C783.196 318.578 782.63 318.725 781.994 318.849C781.374 318.988 780.715 319.058 780.017 319.058C779.149 319.058 778.42 318.942 777.831 318.709C777.242 318.477 776.761 318.151 776.389 317.733C776.032 317.298 775.769 316.779 775.598 316.174C775.443 315.569 775.365 314.903 775.365 314.174V309.476ZM786.344 313.081C786.344 312.15 786.506 311.313 786.832 310.569C787.173 309.825 787.615 309.197 788.158 308.685C788.7 308.158 789.321 307.762 790.018 307.499C790.732 307.22 791.46 307.08 792.205 307.08C793.058 307.08 793.809 307.22 794.461 307.499C795.127 307.762 795.686 308.134 796.135 308.615C796.585 309.08 796.926 309.646 797.159 310.313C797.391 310.98 797.508 311.709 797.508 312.499C797.508 312.763 797.492 313.003 797.461 313.22C797.445 313.437 797.422 313.616 797.391 313.755H789.087C789.211 314.794 789.622 315.593 790.32 316.151C791.018 316.709 791.886 316.988 792.925 316.988C793.514 316.988 794.065 316.911 794.576 316.756C795.088 316.585 795.608 316.353 796.135 316.058L797.042 317.733C796.422 318.12 795.731 318.438 794.972 318.686C794.212 318.934 793.414 319.058 792.576 319.058C791.708 319.058 790.894 318.926 790.134 318.663C789.374 318.384 788.715 317.988 788.157 317.477C787.599 316.965 787.157 316.345 786.831 315.616C786.506 314.872 786.344 314.027 786.344 313.081ZM795.042 312.057C795.042 311.143 794.81 310.429 794.344 309.918C793.879 309.406 793.189 309.15 792.274 309.15C791.887 309.15 791.515 309.212 791.158 309.336C790.801 309.46 790.476 309.646 790.181 309.894C789.902 310.142 789.662 310.445 789.46 310.801C789.259 311.158 789.127 311.577 789.065 312.057H795.042ZM821.673 312.546L821.138 310.685C820.921 309.879 820.696 309.049 820.464 308.196C820.231 307.344 820.006 306.499 819.789 305.661H819.696C819.479 306.514 819.255 307.367 819.022 308.22C818.805 309.057 818.58 309.879 818.347 310.685L817.812 312.546H821.673ZM822.278 314.662H817.208L816.021 318.779H813.277L818.208 303.568H821.371L826.302 318.779H823.441L822.278 314.662ZM829.791 307.359H832L832.233 309.941H832.303C832.892 309.011 833.597 308.305 834.419 307.824C835.257 307.328 836.171 307.08 837.164 307.08C837.629 307.08 838.024 307.119 838.35 307.196C838.691 307.258 839.032 307.375 839.373 307.545L838.815 309.801C838.443 309.677 838.11 309.592 837.815 309.545C837.536 309.483 837.179 309.452 836.745 309.452C835.954 309.452 835.195 309.677 834.466 310.127C833.737 310.577 833.078 311.36 832.489 312.476V318.779H829.791L829.791 307.359ZM845.141 309.476H842.094V307.475L845.258 307.359L845.606 304.243H847.816V307.359H853.003V309.476H847.816V314.174C847.816 315.12 848.01 315.818 848.397 316.267C848.785 316.701 849.467 316.918 850.444 316.918C850.94 316.918 851.39 316.88 851.793 316.802C852.212 316.709 852.607 316.593 852.979 316.453L853.468 318.407C852.972 318.578 852.406 318.725 851.77 318.849C851.15 318.988 850.491 319.058 849.793 319.058C848.925 319.058 848.196 318.942 847.607 318.709C847.017 318.477 846.537 318.151 846.165 317.733C845.808 317.298 845.544 316.779 845.374 316.174C845.219 315.569 845.141 314.903 845.141 314.174V309.476ZM856.631 307.359H864.26V318.779H861.585V309.476H856.631V307.359ZM862.725 305.359C862.182 305.359 861.725 305.196 861.353 304.871C860.996 304.545 860.818 304.111 860.818 303.568C860.818 303.025 860.996 302.591 861.353 302.266C861.725 301.924 862.182 301.754 862.725 301.754C863.283 301.754 863.74 301.924 864.097 302.266C864.454 302.591 864.632 303.025 864.632 303.568C864.632 304.111 864.454 304.545 864.097 304.871C863.74 305.196 863.283 305.359 862.725 305.359ZM871.33 315.593C871.982 316.042 872.656 316.399 873.354 316.663C874.067 316.911 874.866 317.035 875.75 317.035C876.649 317.035 877.308 316.911 877.727 316.663C878.145 316.399 878.354 316.066 878.354 315.662C878.354 315.259 878.083 314.926 877.541 314.662C876.998 314.383 876.145 314.089 874.982 313.779C874.439 313.639 873.912 313.468 873.401 313.267C872.889 313.065 872.439 312.833 872.052 312.569C871.664 312.305 871.354 312.003 871.121 311.662C870.888 311.321 870.772 310.933 870.772 310.499C870.772 309.491 871.206 308.669 872.075 308.034C872.943 307.398 874.191 307.08 875.819 307.08C876.75 307.08 877.626 307.235 878.448 307.545C879.269 307.855 879.975 308.204 880.564 308.592L879.331 310.243C878.82 309.902 878.269 309.631 877.68 309.429C877.106 309.212 876.494 309.104 875.843 309.104C874.959 309.104 874.339 309.228 873.982 309.476C873.625 309.708 873.447 310.003 873.447 310.36C873.447 310.561 873.524 310.747 873.68 310.918C873.85 311.073 874.075 311.22 874.354 311.36C874.649 311.484 874.99 311.608 875.377 311.732C875.765 311.856 876.192 311.972 876.657 312.081C877.323 312.251 877.92 312.445 878.448 312.662C878.99 312.864 879.448 313.096 879.82 313.36C880.207 313.623 880.502 313.934 880.704 314.29C880.921 314.647 881.029 315.058 881.029 315.523C881.029 316.019 880.913 316.484 880.68 316.918C880.448 317.337 880.107 317.709 879.657 318.035C879.207 318.345 878.649 318.593 877.982 318.779C877.316 318.965 876.548 319.058 875.68 319.058C874.61 319.058 873.587 318.888 872.61 318.547C871.633 318.205 870.788 317.787 870.074 317.291L871.33 315.593ZM887.007 309.476H883.96V307.475L887.123 307.359L887.472 304.243H889.682V307.359H894.868V309.476H889.682V314.174C889.682 315.12 889.875 315.818 890.263 316.267C890.651 316.701 891.333 316.918 892.31 316.918C892.806 316.918 893.256 316.88 893.659 316.802C894.077 316.709 894.473 316.593 894.845 316.453L895.333 318.407C894.837 318.578 894.271 318.725 893.635 318.849C893.015 318.988 892.356 319.058 891.659 319.058C890.79 319.058 890.061 318.942 889.472 318.709C888.883 318.477 888.402 318.151 888.03 317.733C887.674 317.298 887.41 316.779 887.239 316.174C887.084 315.569 887.007 314.903 887.007 314.174V309.476ZM899.241 315.593C899.892 316.042 900.566 316.399 901.264 316.663C901.978 316.911 902.776 317.035 903.66 317.035C904.559 317.035 905.218 316.911 905.637 316.663C906.056 316.399 906.265 316.066 906.265 315.662C906.265 315.259 905.994 314.926 905.451 314.662C904.908 314.383 904.055 314.089 902.892 313.779C902.35 313.639 901.822 313.468 901.311 313.267C900.799 313.065 900.349 312.833 899.962 312.569C899.574 312.305 899.264 312.003 899.031 311.662C898.799 311.321 898.683 310.933 898.683 310.499C898.683 309.491 899.117 308.669 899.985 308.034C900.853 307.398 902.102 307.08 903.73 307.08C904.66 307.08 905.536 307.235 906.358 307.545C907.18 307.855 907.885 308.204 908.474 308.592L907.242 310.243C906.73 309.902 906.18 309.631 905.59 309.429C905.017 309.212 904.404 309.104 903.753 309.104C902.869 309.104 902.249 309.228 901.892 309.476C901.536 309.708 901.357 310.003 901.357 310.36C901.357 310.561 901.435 310.747 901.59 310.918C901.761 311.073 901.985 311.22 902.264 311.36C902.559 311.484 902.9 311.608 903.288 311.732C903.675 311.856 904.102 311.972 904.567 312.081C905.234 312.251 905.831 312.445 906.358 312.662C906.901 312.864 907.358 313.096 907.73 313.36C908.118 313.623 908.412 313.934 908.614 314.29C908.831 314.647 908.94 315.058 908.94 315.523C908.94 316.019 908.823 316.484 908.591 316.918C908.358 317.337 908.017 317.709 907.567 318.035C907.118 318.345 906.56 318.593 905.893 318.779C905.226 318.965 904.458 319.058 903.59 319.058C902.52 319.058 901.497 318.888 900.52 318.547C899.543 318.205 898.698 317.787 897.985 317.291L899.241 315.593ZM933.315 312.546L932.78 310.685C932.563 309.879 932.338 309.049 932.105 308.196C931.873 307.344 931.648 306.499 931.431 305.661H931.338C931.121 306.514 930.896 307.367 930.663 308.22C930.446 309.057 930.221 309.879 929.989 310.685L929.454 312.546H933.315ZM933.919 314.662H928.849L927.663 318.779H924.918L929.849 303.568H933.012L937.943 318.779H935.082L933.919 314.662ZM940.316 307.359H942.525L942.734 309.08H942.827C943.37 308.538 943.967 308.072 944.618 307.685C945.285 307.282 946.06 307.08 946.944 307.08C948.262 307.08 949.231 307.483 949.852 308.29C950.472 309.08 950.782 310.22 950.782 311.709V318.779H948.084V312.057C948.084 311.127 947.921 310.453 947.595 310.034C947.285 309.6 946.735 309.383 945.944 309.383C945.386 309.383 944.89 309.514 944.456 309.778C944.021 310.042 943.541 310.445 943.013 310.988V318.779H940.315L940.316 307.359ZM953.596 313.081C953.596 312.15 953.736 311.313 954.015 310.569C954.294 309.825 954.666 309.197 955.131 308.685C955.612 308.173 956.155 307.778 956.759 307.499C957.364 307.22 957.992 307.08 958.643 307.08C959.326 307.08 959.907 307.204 960.388 307.452C960.884 307.685 961.365 308.01 961.83 308.429L961.713 306.499V302.359H964.411V318.779H962.202L961.993 317.453H961.922C961.473 317.903 960.946 318.283 960.341 318.593C959.752 318.903 959.131 319.058 958.48 319.058C957.751 319.058 957.085 318.926 956.48 318.663C955.875 318.384 955.356 317.988 954.922 317.477C954.503 316.965 954.177 316.345 953.945 315.616C953.712 314.872 953.596 314.027 953.596 313.081ZM956.364 313.057C956.364 314.298 956.604 315.244 957.085 315.895C957.566 316.531 958.248 316.849 959.132 316.849C960.078 316.849 960.938 316.391 961.713 315.476V310.336C961.31 309.949 960.907 309.677 960.504 309.522C960.101 309.367 959.69 309.29 959.271 309.29C958.868 309.29 958.488 309.375 958.132 309.545C957.79 309.716 957.488 309.964 957.224 310.29C956.961 310.6 956.752 310.987 956.597 311.453C956.441 311.918 956.364 312.453 956.364 313.057ZM982.693 303.568H992.415V305.847H985.391V309.732H991.345V312.011H985.391V316.5H992.647V318.779H982.693V303.568ZM995.183 307.359H997.881L1000.09 313.29C1000.31 313.864 1000.5 314.437 1000.67 315.011C1000.86 315.569 1001.04 316.143 1001.23 316.732H1001.32C1001.51 316.143 1001.69 315.569 1001.86 315.011C1002.04 314.437 1002.25 313.864 1002.46 313.29L1004.67 307.359H1007.23L1002.79 318.779H999.741L995.183 307.359ZM1009.63 313.081C1009.63 312.15 1009.79 311.313 1010.11 310.569C1010.46 309.825 1010.9 309.197 1011.44 308.685C1011.98 308.158 1012.6 307.762 1013.3 307.499C1014.01 307.22 1014.74 307.08 1015.49 307.08C1016.34 307.08 1017.09 307.22 1017.74 307.499C1018.41 307.762 1018.97 308.134 1019.42 308.615C1019.87 309.08 1020.21 309.646 1020.44 310.313C1020.67 310.98 1020.79 311.708 1020.79 312.499C1020.79 312.763 1020.77 313.003 1020.74 313.22C1020.73 313.437 1020.71 313.616 1020.67 313.755H1012.37C1012.5 314.794 1012.91 315.593 1013.6 316.151C1014.3 316.709 1015.17 316.988 1016.21 316.988C1016.8 316.988 1017.35 316.911 1017.86 316.756C1018.37 316.585 1018.89 316.352 1019.42 316.058L1020.33 317.732C1019.71 318.12 1019.02 318.438 1018.26 318.686C1017.5 318.934 1016.7 319.058 1015.86 319.058C1014.99 319.058 1014.18 318.926 1013.42 318.663C1012.66 318.384 1012 317.988 1011.44 317.477C1010.88 316.965 1010.44 316.345 1010.11 315.616C1009.79 314.872 1009.63 314.027 1009.63 313.081ZM1018.32 312.057C1018.32 311.143 1018.09 310.429 1017.63 309.918C1017.16 309.406 1016.47 309.15 1015.56 309.15C1015.17 309.15 1014.8 309.212 1014.44 309.336C1014.08 309.46 1013.76 309.646 1013.46 309.894C1013.18 310.142 1012.94 310.445 1012.74 310.801C1012.54 311.158 1012.41 311.577 1012.35 312.057H1018.32ZM1024.05 307.359H1026.26L1026.47 309.08H1026.56C1027.1 308.538 1027.7 308.072 1028.35 307.685C1029.02 307.282 1029.79 307.08 1030.68 307.08C1031.99 307.08 1032.96 307.483 1033.58 308.289C1034.2 309.08 1034.51 310.22 1034.51 311.708V318.779H1031.81V312.057C1031.81 311.127 1031.65 310.453 1031.33 310.034C1031.02 309.6 1030.47 309.383 1029.68 309.383C1029.12 309.383 1028.62 309.514 1028.19 309.778C1027.75 310.042 1027.27 310.445 1026.74 310.987V318.779H1024.05L1024.05 307.359ZM1040.51 309.476H1037.47V307.475L1040.63 307.359L1040.98 304.242H1043.19V307.359H1048.38V309.476H1043.19V314.174C1043.19 315.12 1043.38 315.818 1043.77 316.267C1044.16 316.701 1044.84 316.918 1045.82 316.918C1046.31 316.918 1046.76 316.88 1047.17 316.802C1047.58 316.709 1047.98 316.593 1048.35 316.453L1048.84 318.407C1048.34 318.578 1047.78 318.725 1047.14 318.849C1046.52 318.988 1045.86 319.058 1045.17 319.058C1044.3 319.058 1043.57 318.942 1042.98 318.709C1042.39 318.477 1041.91 318.151 1041.54 317.732C1041.18 317.298 1040.92 316.779 1040.75 316.174C1040.59 315.569 1040.51 314.903 1040.51 314.174V309.476ZM1052.75 315.593C1053.4 316.042 1054.07 316.399 1054.77 316.663C1055.48 316.911 1056.28 317.035 1057.17 317.035C1058.07 317.035 1058.73 316.911 1059.14 316.663C1059.56 316.399 1059.77 316.066 1059.77 315.662C1059.77 315.259 1059.5 314.926 1058.96 314.662C1058.42 314.383 1057.56 314.089 1056.4 313.779C1055.86 313.639 1055.33 313.468 1054.82 313.267C1054.31 313.065 1053.86 312.833 1053.47 312.569C1053.08 312.305 1052.77 312.003 1052.54 311.662C1052.31 311.321 1052.19 310.933 1052.19 310.499C1052.19 309.491 1052.62 308.669 1053.49 308.034C1054.36 307.398 1055.61 307.08 1057.24 307.08C1058.17 307.08 1059.04 307.235 1059.86 307.545C1060.69 307.855 1061.39 308.204 1061.98 308.592L1060.75 310.243C1060.24 309.902 1059.69 309.631 1059.1 309.429C1058.52 309.212 1057.91 309.104 1057.26 309.104C1056.38 309.104 1055.76 309.228 1055.4 309.476C1055.04 309.708 1054.86 310.003 1054.86 310.359C1054.86 310.561 1054.94 310.747 1055.1 310.918C1055.27 311.073 1055.49 311.22 1055.77 311.36C1056.07 311.484 1056.41 311.608 1056.79 311.732C1057.18 311.856 1057.61 311.972 1058.07 312.081C1058.74 312.251 1059.34 312.445 1059.86 312.662C1060.41 312.864 1060.86 313.096 1061.24 313.36C1061.62 313.623 1061.92 313.934 1062.12 314.29C1062.34 314.647 1062.45 315.058 1062.45 315.523C1062.45 316.019 1062.33 316.484 1062.1 316.918C1061.87 317.337 1061.52 317.709 1061.07 318.035C1060.62 318.345 1060.07 318.593 1059.4 318.779C1058.73 318.965 1057.97 319.058 1057.1 319.058C1056.03 319.058 1055 318.888 1054.03 318.547C1053.05 318.205 1052.2 317.787 1051.49 317.291L1052.75 315.593Z" fill="url(#paint5_linear_602_59)"/>
<defs>
<radialGradient id="paint0_radial_602_59" cx="0" cy="0" r="1" gradientUnits="userSpaceOnUse" gradientTransform="translate(718.009 223.5) scale(717.5 223.5)">
<stop stop-color="#FEF8EA"/>
<stop offset="0.522911" stop-color="#FEF8EA" stop-opacity="0.348018"/>
<stop offset="1" stop-color="#FEF8EA" stop-opacity="0"/>
</radialGradient>
<linearGradient id="paint1_linear_602_59" x1="267.459" y1="216.795" x2="1134.28" y2="216.795" gradientUnits="userSpaceOnUse">
<stop stop-color="#141414"/>
<stop offset="1" stop-color="#2C2C2C"/>
</linearGradient>
<linearGradient id="paint2_linear_602_59" x1="267.459" y1="216.795" x2="1134.28" y2="216.795" gradientUnits="userSpaceOnUse">
<stop stop-color="#F4B011"/>
<stop offset="1" stop-color="#F6E54B" stop-opacity="0.920705"/>
</linearGradient>
<linearGradient id="paint3_linear_602_59" x1="34.6798" y1="-597.55" x2="901.498" y2="-597.55" gradientUnits="userSpaceOnUse">
<stop stop-color="#141414"/>
<stop offset="1" stop-color="#2C2C2C"/>
</linearGradient>
<linearGradient id="paint4_linear_602_59" x1="34.6798" y1="-597.55" x2="901.498" y2="-597.55" gradientUnits="userSpaceOnUse">
<stop stop-color="#F4B011"/>
<stop offset="1" stop-color="#F6E54B" stop-opacity="0.920705"/>
</linearGradient>
<linearGradient id="paint5_linear_602_59" x1="339.685" y1="312.616" x2="1062.45" y2="312.616" gradientUnits="userSpaceOnUse">
<stop stop-opacity="0.85022"/>
<stop offset="0.420485" stop-opacity="0.449339"/>
<stop offset="1" stop-opacity="0.894273"/>
</linearGradient>
</defs>
</svg>
